<svg width="180" height="220" viewBox="0 0 180 220" fill="none" xmlns="http://www.w3.org/2000/svg">
<rect width="180" height="220" rx="10" fill="#606060"/>
<path d="M70.882 158.34C70.606 158.34 70.366 158.442 70.162 158.646C69.97 158.838 69.874 159.072 69.874 159.348C69.874 159.636 69.976 159.882 70.18 160.086C70.384 160.278 70.624 160.374 70.9 160.374C71.176 160.374 71.41 160.278 71.602 160.086C71.806 159.882 71.908 159.636 71.908 159.348C71.908 159.072 71.806 158.838 71.602 158.646C71.398 158.442 71.158 158.34 70.882 158.34ZM72.394 174.018V162.336C72.394 161.952 72.256 161.622 71.98 161.346C71.704 161.058 71.368 160.914 70.972 160.914C70.588 160.914 70.252 161.052 69.964 161.328C69.676 161.604 69.532 161.94 69.532 162.336V174.018H72.394Z" fill="white"/>
<path d="M82.3113 172.776V167.718C82.3113 167.178 82.2153 166.692 82.0233 166.26C81.8313 165.828 81.5613 165.462 81.2133 165.162C80.8773 164.85 80.4813 164.61 80.0253 164.442C79.5693 164.274 79.0833 164.19 78.5673 164.19C78.0633 164.19 77.5833 164.292 77.1273 164.496C76.6713 164.7 76.2993 165.012 76.0113 165.432C75.9633 165.108 75.8553 164.814 75.6873 164.55C75.5193 164.286 75.2433 164.154 74.8593 164.154C74.6673 164.154 74.4873 164.196 74.3193 164.28C74.1513 164.352 74.0073 164.454 73.8873 164.586C73.7673 164.718 73.6713 164.868 73.5993 165.036C73.5273 165.204 73.4913 165.384 73.4913 165.576V174H76.2633V168.15C76.2633 167.694 76.4193 167.31 76.7313 166.998C77.0433 166.674 77.4273 166.512 77.8833 166.512C78.3393 166.512 78.7293 166.674 79.0533 166.998C79.3773 167.322 79.5393 167.712 79.5393 168.168V172.812C79.5393 173.196 79.6713 173.52 79.9353 173.784C80.2113 174.048 80.5413 174.18 80.9253 174.18C81.1173 174.18 81.2973 174.144 81.4653 174.072C81.6333 174 81.7773 173.904 81.8973 173.784C82.0293 173.652 82.1313 173.502 82.2033 173.334C82.2753 173.154 82.3113 172.968 82.3113 172.776Z" fill="white"/>
<path d="M83.3706 165.612V178.122H86.1246V173.28C86.7366 173.892 87.4866 174.198 88.3746 174.198C89.0586 174.198 89.6766 174.06 90.2286 173.784C90.7806 173.508 91.2486 173.142 91.6326 172.686C92.0166 172.23 92.3106 171.708 92.5146 171.12C92.7306 170.52 92.8386 169.896 92.8386 169.248C92.8386 168.624 92.7366 168.012 92.5326 167.412C92.3286 166.812 92.0346 166.278 91.6506 165.81C91.2786 165.33 90.8226 164.946 90.2826 164.658C89.7426 164.37 89.1366 164.226 88.4646 164.226C87.9486 164.226 87.4626 164.334 87.0066 164.55C86.5506 164.766 86.1666 165.084 85.8546 165.504C85.8186 165.18 85.7166 164.88 85.5486 164.604C85.3926 164.328 85.1166 164.19 84.7206 164.19C84.3006 164.19 83.9706 164.322 83.7306 164.586C83.4906 164.85 83.3706 165.192 83.3706 165.612ZM86.0526 169.05C86.0526 168.75 86.0946 168.456 86.1786 168.168C86.2626 167.868 86.3826 167.61 86.5386 167.394C86.7066 167.166 86.9166 166.986 87.1686 166.854C87.4206 166.71 87.7206 166.638 88.0686 166.638C88.4166 166.638 88.7166 166.716 88.9686 166.872C89.2206 167.028 89.4246 167.226 89.5806 167.466C89.7486 167.706 89.8686 167.982 89.9406 168.294C90.0246 168.606 90.0666 168.912 90.0666 169.212C90.0666 169.512 90.0246 169.812 89.9406 170.112C89.8566 170.412 89.7306 170.682 89.5626 170.922C89.3946 171.162 89.1786 171.36 88.9146 171.516C88.6626 171.66 88.3686 171.732 88.0326 171.732C87.6486 171.732 87.3306 171.654 87.0786 171.498C86.8266 171.33 86.6226 171.12 86.4666 170.868C86.3226 170.616 86.2146 170.334 86.1426 170.022C86.0826 169.698 86.0526 169.374 86.0526 169.05Z" fill="white"/>
<path d="M102.632 170.022V165.594C102.632 165.21 102.494 164.886 102.218 164.622C101.954 164.346 101.63 164.208 101.246 164.208C101.054 164.208 100.874 164.244 100.706 164.316C100.538 164.388 100.388 164.49 100.256 164.622C100.136 164.742 100.04 164.892 99.968 165.072C99.896 165.24 99.86 165.42 99.86 165.612V170.004C99.86 170.544 99.728 170.97 99.464 171.282C99.2 171.594 98.792 171.75 98.24 171.75C97.676 171.75 97.262 171.594 96.998 171.282C96.734 170.958 96.602 170.532 96.602 170.004V164.46H93.83V170.04C93.83 171.456 94.22 172.5 95 173.172C95.78 173.844 96.86 174.18 98.24 174.18C99.62 174.18 100.694 173.844 101.462 173.172C102.242 172.5 102.632 171.45 102.632 170.022Z" fill="white"/>
<path d="M109.726 165.504C109.726 165.252 109.672 165.054 109.564 164.91C109.456 164.754 109.318 164.634 109.15 164.55C108.982 164.454 108.796 164.394 108.592 164.37C108.388 164.334 108.19 164.316 107.998 164.316V162.84C107.998 162.456 107.86 162.12 107.584 161.832C107.32 161.544 106.996 161.4 106.612 161.4C106.228 161.4 105.898 161.544 105.622 161.832C105.358 162.108 105.226 162.438 105.226 162.822V164.334C105.034 164.334 104.836 164.352 104.632 164.388C104.44 164.412 104.26 164.466 104.092 164.55C103.936 164.634 103.804 164.754 103.696 164.91C103.588 165.054 103.534 165.246 103.534 165.486C103.534 165.726 103.588 165.924 103.696 166.08C103.804 166.224 103.942 166.338 104.11 166.422C104.278 166.506 104.458 166.566 104.65 166.602C104.854 166.638 105.052 166.656 105.244 166.656V174H107.998V166.674C108.19 166.674 108.388 166.662 108.592 166.638C108.796 166.602 108.982 166.542 109.15 166.458C109.318 166.362 109.456 166.242 109.564 166.098C109.672 165.942 109.726 165.744 109.726 165.504Z" fill="white"/>
<path d="M51.933 187.36C51.933 187.132 51.915 186.898 51.879 186.658C51.735 185.782 51.375 185.062 50.799 184.498C50.223 183.922 49.533 183.55 48.729 183.382C47.637 183.142 46.509 183.022 45.345 183.022L42.375 183.04V194.686C42.375 195.082 42.513 195.424 42.789 195.712C43.077 196 43.425 196.144 43.833 196.144C44.073 196.144 44.283 196.078 44.463 195.946C44.643 195.802 44.799 195.64 44.931 195.46C45.015 195.34 45.081 195.106 45.129 194.758C45.177 194.398 45.207 194.014 45.219 193.606C45.231 193.198 45.237 192.814 45.237 192.454C45.237 192.094 45.237 191.842 45.237 191.698C45.333 191.698 45.495 191.698 45.723 191.698C45.951 191.698 46.191 191.698 46.443 191.698C46.707 191.698 46.953 191.698 47.181 191.698C47.409 191.686 47.577 191.674 47.685 191.662C48.285 191.626 48.843 191.5 49.359 191.284C49.887 191.056 50.337 190.756 50.709 190.384C51.093 190.012 51.393 189.574 51.609 189.07C51.825 188.554 51.933 187.984 51.933 187.36ZM45.255 185.56H47.271C47.523 185.56 47.757 185.608 47.973 185.704C48.201 185.8 48.399 185.932 48.567 186.1C48.735 186.256 48.867 186.448 48.963 186.676C49.059 186.892 49.107 187.126 49.107 187.378C49.107 187.63 49.059 187.864 48.963 188.08C48.867 188.296 48.735 188.488 48.567 188.656C48.399 188.824 48.201 188.956 47.973 189.052C47.757 189.148 47.523 189.196 47.271 189.196H45.255V185.56Z" fill="white"/>
<path d="M62.1501 190.816C62.1501 190.192 62.0241 189.604 61.7721 189.052C61.5201 188.488 61.1841 187.996 60.7641 187.576C60.3441 187.156 59.8521 186.826 59.2881 186.586C58.7241 186.334 58.1361 186.208 57.5241 186.208C56.8281 186.208 56.1801 186.34 55.5801 186.604C54.9921 186.856 54.4761 187.204 54.0321 187.648C53.6001 188.092 53.2581 188.614 53.0061 189.214C52.7661 189.814 52.6461 190.462 52.6461 191.158C52.6461 191.914 52.7781 192.598 53.0421 193.21C53.3061 193.822 53.6721 194.35 54.1401 194.794C54.6081 195.226 55.1541 195.562 55.7781 195.802C56.4141 196.042 57.0981 196.162 57.8301 196.162C58.2861 196.162 58.7181 196.12 59.1261 196.036C59.5461 195.964 59.9661 195.844 60.3861 195.676L60.0081 193.552C59.6841 193.624 59.3541 193.696 59.0181 193.768C58.6941 193.828 58.3701 193.858 58.0461 193.858C57.4341 193.858 56.9061 193.684 56.4621 193.336C56.0181 192.988 55.7301 192.526 55.5981 191.95H60.8541C61.2741 191.95 61.5921 191.878 61.8081 191.734C62.0361 191.578 62.1501 191.272 62.1501 190.816ZM55.5981 190.384C55.6341 190.12 55.6941 189.868 55.7781 189.628C55.8741 189.376 55.9941 189.154 56.1381 188.962C56.2941 188.77 56.4801 188.62 56.6961 188.512C56.9241 188.392 57.1881 188.332 57.4881 188.332C57.7641 188.332 58.0101 188.392 58.2261 188.512C58.4421 188.632 58.6221 188.788 58.7661 188.98C58.9221 189.172 59.0421 189.394 59.1261 189.646C59.2221 189.886 59.2761 190.132 59.2881 190.384H55.5981Z" fill="white"/>
<path d="M77.3905 194.776V189.556C77.3905 189.04 77.3005 188.578 77.1205 188.17C76.9405 187.75 76.6885 187.396 76.3645 187.108C76.0525 186.808 75.6805 186.58 75.2485 186.424C74.8165 186.268 74.3485 186.19 73.8445 186.19C73.2685 186.19 72.7165 186.31 72.1885 186.55C71.6725 186.778 71.2345 187.108 70.8745 187.54C70.5625 187.096 70.1545 186.754 69.6505 186.514C69.1585 186.274 68.6365 186.154 68.0845 186.154C67.6165 186.154 67.1605 186.256 66.7165 186.46C66.2845 186.652 65.9305 186.946 65.6545 187.342C65.6305 187.018 65.5345 186.748 65.3665 186.532C65.1985 186.304 64.9345 186.19 64.5745 186.19C64.1545 186.19 63.8125 186.322 63.5485 186.586C63.2965 186.838 63.1705 187.174 63.1705 187.594V196H65.9245V190.024C65.9245 189.604 66.0685 189.256 66.3565 188.98C66.6565 188.692 67.0165 188.548 67.4365 188.548C67.8445 188.548 68.1925 188.698 68.4805 188.998C68.7805 189.286 68.9305 189.64 68.9305 190.06V196H71.6485V190.06C71.6485 189.652 71.7925 189.304 72.0805 189.016C72.3685 188.728 72.7225 188.584 73.1425 188.584C73.5625 188.584 73.9105 188.734 74.1865 189.034C74.4745 189.322 74.6185 189.67 74.6185 190.078V194.776C74.6185 195.16 74.7565 195.49 75.0325 195.766C75.3085 196.03 75.6385 196.162 76.0225 196.162C76.4065 196.162 76.7305 196.03 76.9945 195.766C77.2585 195.49 77.3905 195.16 77.3905 194.776Z" fill="white"/>
<path d="M87.5895 196.036V187.54C87.5895 187.228 87.5055 186.958 87.3375 186.73C87.1815 186.502 86.9415 186.376 86.6175 186.352C86.4255 186.328 86.2215 186.334 86.0055 186.37C85.7895 186.394 85.5615 186.484 85.3215 186.64C85.0815 186.784 84.9255 186.94 84.8535 187.108C84.7935 187.276 84.7635 187.36 84.7635 187.36C84.7635 187.36 84.6555 187.306 84.4395 187.198C84.2235 187.078 83.9415 186.964 83.5935 186.856C83.2575 186.748 82.8675 186.67 82.4235 186.622C81.9915 186.562 81.5595 186.586 81.1275 186.694C80.6475 186.826 80.2215 187.042 79.8495 187.342C79.4775 187.63 79.1595 187.978 78.8955 188.386C78.6435 188.782 78.4455 189.226 78.3015 189.718C78.1695 190.21 78.1035 190.708 78.1035 191.212C78.1035 191.872 78.2055 192.502 78.4095 193.102C78.6255 193.69 78.9255 194.212 79.3095 194.668C79.7055 195.124 80.1795 195.49 80.7315 195.766C81.2955 196.03 81.9195 196.162 82.6035 196.162C83.1195 196.162 83.5935 196.054 84.0255 195.838C84.4575 195.622 84.8115 195.286 85.0875 194.83C85.0875 194.83 85.0815 194.884 85.0695 194.992C85.0695 195.088 85.0695 195.202 85.0695 195.334C85.0695 195.466 85.0695 195.598 85.0695 195.73C85.0815 195.862 85.0875 195.964 85.0875 196.036H87.5895ZM84.9255 191.122C84.9255 191.446 84.8895 191.77 84.8175 192.094C84.7575 192.406 84.6435 192.694 84.4755 192.958C84.3195 193.21 84.1095 193.42 83.8455 193.588C83.5935 193.744 83.2815 193.822 82.9095 193.822C82.5495 193.822 82.2435 193.744 81.9915 193.588C81.7395 193.432 81.5295 193.228 81.3615 192.976C81.2055 192.724 81.0855 192.442 81.0015 192.13C80.9295 191.818 80.8935 191.506 80.8935 191.194C80.8935 190.894 80.9295 190.588 81.0015 190.276C81.0855 189.964 81.2115 189.682 81.3795 189.43C81.5475 189.178 81.7575 188.974 82.0095 188.818C82.2735 188.662 82.5855 188.584 82.9455 188.584C83.3055 188.584 83.6115 188.662 83.8635 188.818C84.1155 188.962 84.3195 189.154 84.4755 189.394C84.6315 189.634 84.7455 189.904 84.8175 190.204C84.8895 190.504 84.9255 190.81 84.9255 191.122Z" fill="white"/>
<path d="M96.5276 193.138C96.5276 192.622 96.4076 192.19 96.1676 191.842C95.9276 191.482 95.6216 191.182 95.2496 190.942C94.8896 190.702 94.4936 190.504 94.0616 190.348C93.6416 190.18 93.2456 190.03 92.8736 189.898C92.5136 189.766 92.2136 189.634 91.9736 189.502C91.7336 189.37 91.6136 189.208 91.6136 189.016C91.6136 188.884 91.6436 188.77 91.7036 188.674C91.7636 188.578 91.8416 188.5 91.9376 188.44C92.0336 188.368 92.1416 188.32 92.2616 188.296C92.3936 188.26 92.5196 188.242 92.6396 188.242C92.9036 188.242 93.1556 188.278 93.3956 188.35C93.6356 188.422 93.8636 188.506 94.0796 188.602C94.2956 188.686 94.4996 188.764 94.6916 188.836C94.8836 188.908 95.0696 188.944 95.2496 188.944C95.5256 188.944 95.7656 188.848 95.9696 188.656C96.1736 188.452 96.2756 188.206 96.2756 187.918C96.2756 187.594 96.1376 187.318 95.8616 187.09C95.5856 186.862 95.2556 186.682 94.8716 186.55C94.4996 186.418 94.1156 186.322 93.7196 186.262C93.3236 186.202 93.0056 186.172 92.7656 186.172C92.3336 186.172 91.8896 186.232 91.4336 186.352C90.9896 186.472 90.5816 186.652 90.2096 186.892C89.8376 187.132 89.5316 187.438 89.2916 187.81C89.0516 188.17 88.9316 188.596 88.9316 189.088C88.9316 189.592 89.0516 190.012 89.2916 190.348C89.5316 190.672 89.8316 190.948 90.1916 191.176C90.5516 191.392 90.9416 191.572 91.3616 191.716C91.7816 191.848 92.1716 191.98 92.5316 192.112C92.8916 192.232 93.1916 192.37 93.4316 192.526C93.6716 192.67 93.7916 192.862 93.7916 193.102C93.7916 193.258 93.7496 193.39 93.6656 193.498C93.5936 193.606 93.4976 193.696 93.3776 193.768C93.2576 193.84 93.1256 193.894 92.9816 193.93C92.8376 193.954 92.6996 193.966 92.5676 193.966C92.3516 193.966 92.1056 193.936 91.8296 193.876C91.5656 193.804 91.2956 193.72 91.0196 193.624C90.7556 193.516 90.4916 193.402 90.2276 193.282C89.9636 193.162 89.7356 193.048 89.5436 192.94L88.7336 194.938C89.2616 195.298 89.8736 195.592 90.5696 195.82C91.2656 196.048 91.9436 196.162 92.6036 196.162C93.0476 196.162 93.5036 196.102 93.9716 195.982C94.4396 195.862 94.8596 195.676 95.2316 195.424C95.6156 195.172 95.9276 194.86 96.1676 194.488C96.4076 194.104 96.5276 193.654 96.5276 193.138Z" fill="white"/>
<path d="M106.526 192.022V187.594C106.526 187.21 106.388 186.886 106.112 186.622C105.848 186.346 105.524 186.208 105.14 186.208C104.948 186.208 104.768 186.244 104.6 186.316C104.432 186.388 104.282 186.49 104.15 186.622C104.03 186.742 103.934 186.892 103.862 187.072C103.79 187.24 103.754 187.42 103.754 187.612V192.004C103.754 192.544 103.622 192.97 103.358 193.282C103.094 193.594 102.686 193.75 102.134 193.75C101.57 193.75 101.156 193.594 100.892 193.282C100.628 192.958 100.496 192.532 100.496 192.004V186.46H97.7236V192.04C97.7236 193.456 98.1136 194.5 98.8936 195.172C99.6736 195.844 100.754 196.18 102.134 196.18C103.514 196.18 104.588 195.844 105.356 195.172C106.136 194.5 106.526 193.45 106.526 192.022Z" fill="white"/>
<path d="M116.356 194.686L112.54 190.582C112.588 190.534 112.684 190.45 112.828 190.33C112.984 190.198 113.158 190.048 113.35 189.88C113.554 189.712 113.764 189.538 113.98 189.358C114.196 189.178 114.394 189.004 114.574 188.836C114.754 188.656 114.904 188.494 115.024 188.35C115.156 188.206 115.234 188.098 115.258 188.026C115.318 187.954 115.366 187.876 115.402 187.792C115.438 187.696 115.456 187.6 115.456 187.504C115.456 187.144 115.324 186.838 115.06 186.586C114.796 186.334 114.484 186.208 114.124 186.208C113.908 186.208 113.704 186.262 113.512 186.37C113.332 186.478 113.158 186.61 112.99 186.766L110.362 189.268V183.292C110.362 182.908 110.23 182.584 109.966 182.32C109.702 182.044 109.378 181.906 108.994 181.906C108.61 181.906 108.28 182.044 108.004 182.32C107.74 182.584 107.608 182.908 107.608 183.292V195.982L110.362 196V191.824L114.142 196.288L116.356 194.686Z" fill="white"/>
<path d="M125.91 196.036V187.54C125.91 187.228 125.826 186.958 125.658 186.73C125.502 186.502 125.262 186.376 124.938 186.352C124.746 186.328 124.542 186.334 124.326 186.37C124.11 186.394 123.882 186.484 123.642 186.64C123.402 186.784 123.246 186.94 123.174 187.108C123.114 187.276 123.084 187.36 123.084 187.36C123.084 187.36 122.976 187.306 122.76 187.198C122.544 187.078 122.262 186.964 121.914 186.856C121.578 186.748 121.188 186.67 120.744 186.622C120.312 186.562 119.88 186.586 119.448 186.694C118.968 186.826 118.542 187.042 118.17 187.342C117.798 187.63 117.48 187.978 117.216 188.386C116.964 188.782 116.766 189.226 116.622 189.718C116.49 190.21 116.424 190.708 116.424 191.212C116.424 191.872 116.526 192.502 116.73 193.102C116.946 193.69 117.246 194.212 117.63 194.668C118.026 195.124 118.5 195.49 119.052 195.766C119.616 196.03 120.24 196.162 120.924 196.162C121.44 196.162 121.914 196.054 122.346 195.838C122.778 195.622 123.132 195.286 123.408 194.83C123.408 194.83 123.402 194.884 123.39 194.992C123.39 195.088 123.39 195.202 123.39 195.334C123.39 195.466 123.39 195.598 123.39 195.73C123.402 195.862 123.408 195.964 123.408 196.036H125.91ZM123.246 191.122C123.246 191.446 123.21 191.77 123.138 192.094C123.078 192.406 122.964 192.694 122.796 192.958C122.64 193.21 122.43 193.42 122.166 193.588C121.914 193.744 121.602 193.822 121.23 193.822C120.87 193.822 120.564 193.744 120.312 193.588C120.06 193.432 119.85 193.228 119.682 192.976C119.526 192.724 119.406 192.442 119.322 192.13C119.25 191.818 119.214 191.506 119.214 191.194C119.214 190.894 119.25 190.588 119.322 190.276C119.406 189.964 119.532 189.682 119.7 189.43C119.868 189.178 120.078 188.974 120.33 188.818C120.594 188.662 120.906 188.584 121.266 188.584C121.626 188.584 121.932 188.662 122.184 188.818C122.436 188.962 122.64 189.154 122.796 189.394C122.952 189.634 123.066 189.904 123.138 190.204C123.21 190.504 123.246 190.81 123.246 191.122Z" fill="white"/>
<path d="M135.74 194.776V189.718C135.74 189.178 135.644 188.692 135.452 188.26C135.26 187.828 134.99 187.462 134.642 187.162C134.306 186.85 133.91 186.61 133.454 186.442C132.998 186.274 132.512 186.19 131.996 186.19C131.492 186.19 131.012 186.292 130.556 186.496C130.1 186.7 129.728 187.012 129.44 187.432C129.392 187.108 129.284 186.814 129.116 186.55C128.948 186.286 128.672 186.154 128.288 186.154C128.096 186.154 127.916 186.196 127.748 186.28C127.58 186.352 127.436 186.454 127.316 186.586C127.196 186.718 127.1 186.868 127.028 187.036C126.956 187.204 126.92 187.384 126.92 187.576V196H129.692V190.15C129.692 189.694 129.848 189.31 130.16 188.998C130.472 188.674 130.856 188.512 131.312 188.512C131.768 188.512 132.158 188.674 132.482 188.998C132.806 189.322 132.968 189.712 132.968 190.168V194.812C132.968 195.196 133.1 195.52 133.364 195.784C133.64 196.048 133.97 196.18 134.354 196.18C134.546 196.18 134.726 196.144 134.894 196.072C135.062 196 135.206 195.904 135.326 195.784C135.458 195.652 135.56 195.502 135.632 195.334C135.704 195.154 135.74 194.968 135.74 194.776Z" fill="white"/>
<path d="M132.065 51.2105L119.119 38.2648C118.719 37.8632 118.243 37.5446 117.719 37.3276C117.195 37.1105 116.634 36.9992 116.067 37H64.2667C63.6998 36.9994 63.1383 37.1109 62.6146 37.3279C62.0909 37.545 61.6152 37.8633 61.2148 38.2648L48.2691 51.2105C47.8662 51.6109 47.5466 52.0871 47.3287 52.6116C47.1109 53.1362 46.9992 53.6987 47 54.2667V110.384C47 115.145 50.8721 119.017 55.6334 119.017H124.7C129.462 119.017 133.334 115.145 133.334 110.384V54.2667C133.335 53.6987 133.223 53.136 133.006 52.6114C132.788 52.0867 132.468 51.6106 132.065 51.2105ZM66.0538 45.6334H114.28L118.597 49.95H61.7372L66.0538 45.6334ZM90.1668 106.067L68.5834 84.4835H81.5335V71.5335H98.8002V84.4835H111.75L90.1668 106.067Z" fill="#8E919A"/>
<path d="M90.1668 106.067L68.5834 84.4835H81.5335V71.5335H98.8002V84.4835H111.75L90.1668 106.067Z" fill="#8E919A"/>
<path d="M66.0538 45.6334H114.28L118.597 49.95H61.7372L66.0538 45.6334Z" fill="#8E919A"/>
<path d="M132.065 51.2105L119.119 38.2648C118.719 37.8632 118.243 37.5446 117.719 37.3276C117.195 37.1105 116.634 36.9992 116.067 37H64.2667C63.6998 36.9994 63.1383 37.1109 62.6146 37.3279C62.0909 37.545 61.6152 37.8633 61.2148 38.2648L48.2691 51.2105C47.8662 51.6109 47.5466 52.0871 47.3287 52.6116C47.1109 53.1362 46.9992 53.6987 47 54.2667V110.384C47 115.145 50.8721 119.017 55.6334 119.017H124.7C129.462 119.017 133.334 115.145 133.334 110.384V54.2667C133.335 53.6987 133.223 53.136 133.006 52.6114C132.788 52.0867 132.468 51.6106 132.065 51.2105ZM66.0538 45.6334H114.28L118.596 49.95H61.7372L66.0538 45.6334ZM90.1668 106.067L68.5834 84.4835H81.5335V71.5335H98.8002V84.4835H111.75L90.1668 106.067Z" fill="white"/>
</svg>
