<svg width="180" height="220" viewBox="0 0 180 220" fill="none" xmlns="http://www.w3.org/2000/svg">
<rect width="180" height="220" rx="10" fill="#606060"/>
<path d="M70.382 158.34C70.106 158.34 69.866 158.442 69.662 158.646C69.47 158.838 69.374 159.072 69.374 159.348C69.374 159.636 69.476 159.882 69.68 160.086C69.884 160.278 70.124 160.374 70.4 160.374C70.676 160.374 70.91 160.278 71.102 160.086C71.306 159.882 71.408 159.636 71.408 159.348C71.408 159.072 71.306 158.838 71.102 158.646C70.898 158.442 70.658 158.34 70.382 158.34ZM71.894 174.018V162.336C71.894 161.952 71.756 161.622 71.48 161.346C71.204 161.058 70.868 160.914 70.472 160.914C70.088 160.914 69.752 161.052 69.464 161.328C69.176 161.604 69.032 161.94 69.032 162.336V174.018H71.894Z" fill="white"/>
<path d="M81.8113 172.776V167.718C81.8113 167.178 81.7153 166.692 81.5233 166.26C81.3313 165.828 81.0613 165.462 80.7133 165.162C80.3773 164.85 79.9813 164.61 79.5253 164.442C79.0693 164.274 78.5833 164.19 78.0673 164.19C77.5633 164.19 77.0833 164.292 76.6273 164.496C76.1713 164.7 75.7993 165.012 75.5113 165.432C75.4633 165.108 75.3553 164.814 75.1873 164.55C75.0193 164.286 74.7433 164.154 74.3593 164.154C74.1673 164.154 73.9873 164.196 73.8193 164.28C73.6513 164.352 73.5073 164.454 73.3873 164.586C73.2673 164.718 73.1713 164.868 73.0993 165.036C73.0273 165.204 72.9913 165.384 72.9913 165.576V174H75.7633V168.15C75.7633 167.694 75.9193 167.31 76.2313 166.998C76.5433 166.674 76.9273 166.512 77.3833 166.512C77.8393 166.512 78.2293 166.674 78.5533 166.998C78.8773 167.322 79.0393 167.712 79.0393 168.168V172.812C79.0393 173.196 79.1713 173.52 79.4353 173.784C79.7113 174.048 80.0413 174.18 80.4253 174.18C80.6173 174.18 80.7973 174.144 80.9653 174.072C81.1333 174 81.2773 173.904 81.3973 173.784C81.5293 173.652 81.6313 173.502 81.7033 173.334C81.7753 173.154 81.8113 172.968 81.8113 172.776Z" fill="white"/>
<path d="M82.8706 165.612V178.122H85.6246V173.28C86.2366 173.892 86.9866 174.198 87.8746 174.198C88.5586 174.198 89.1766 174.06 89.7286 173.784C90.2806 173.508 90.7486 173.142 91.1326 172.686C91.5166 172.23 91.8106 171.708 92.0146 171.12C92.2306 170.52 92.3386 169.896 92.3386 169.248C92.3386 168.624 92.2366 168.012 92.0326 167.412C91.8286 166.812 91.5346 166.278 91.1506 165.81C90.7786 165.33 90.3226 164.946 89.7826 164.658C89.2426 164.37 88.6366 164.226 87.9646 164.226C87.4486 164.226 86.9626 164.334 86.5066 164.55C86.0506 164.766 85.6666 165.084 85.3546 165.504C85.3186 165.18 85.2166 164.88 85.0486 164.604C84.8926 164.328 84.6166 164.19 84.2206 164.19C83.8006 164.19 83.4706 164.322 83.2306 164.586C82.9906 164.85 82.8706 165.192 82.8706 165.612ZM85.5526 169.05C85.5526 168.75 85.5946 168.456 85.6786 168.168C85.7626 167.868 85.8826 167.61 86.0386 167.394C86.2066 167.166 86.4166 166.986 86.6686 166.854C86.9206 166.71 87.2206 166.638 87.5686 166.638C87.9166 166.638 88.2166 166.716 88.4686 166.872C88.7206 167.028 88.9246 167.226 89.0806 167.466C89.2486 167.706 89.3686 167.982 89.4406 168.294C89.5246 168.606 89.5666 168.912 89.5666 169.212C89.5666 169.512 89.5246 169.812 89.4406 170.112C89.3566 170.412 89.2306 170.682 89.0626 170.922C88.8946 171.162 88.6786 171.36 88.4146 171.516C88.1626 171.66 87.8686 171.732 87.5326 171.732C87.1486 171.732 86.8306 171.654 86.5786 171.498C86.3266 171.33 86.1226 171.12 85.9666 170.868C85.8226 170.616 85.7146 170.334 85.6426 170.022C85.5826 169.698 85.5526 169.374 85.5526 169.05Z" fill="white"/>
<path d="M102.132 170.022V165.594C102.132 165.21 101.994 164.886 101.718 164.622C101.454 164.346 101.13 164.208 100.746 164.208C100.554 164.208 100.374 164.244 100.206 164.316C100.038 164.388 99.888 164.49 99.756 164.622C99.636 164.742 99.54 164.892 99.468 165.072C99.396 165.24 99.36 165.42 99.36 165.612V170.004C99.36 170.544 99.228 170.97 98.964 171.282C98.7 171.594 98.292 171.75 97.74 171.75C97.176 171.75 96.762 171.594 96.498 171.282C96.234 170.958 96.102 170.532 96.102 170.004V164.46H93.33V170.04C93.33 171.456 93.72 172.5 94.5 173.172C95.28 173.844 96.36 174.18 97.74 174.18C99.12 174.18 100.194 173.844 100.962 173.172C101.742 172.5 102.132 171.45 102.132 170.022Z" fill="white"/>
<path d="M109.226 165.504C109.226 165.252 109.172 165.054 109.064 164.91C108.956 164.754 108.818 164.634 108.65 164.55C108.482 164.454 108.296 164.394 108.092 164.37C107.888 164.334 107.69 164.316 107.498 164.316V162.84C107.498 162.456 107.36 162.12 107.084 161.832C106.82 161.544 106.496 161.4 106.112 161.4C105.728 161.4 105.398 161.544 105.122 161.832C104.858 162.108 104.726 162.438 104.726 162.822V164.334C104.534 164.334 104.336 164.352 104.132 164.388C103.94 164.412 103.76 164.466 103.592 164.55C103.436 164.634 103.304 164.754 103.196 164.91C103.088 165.054 103.034 165.246 103.034 165.486C103.034 165.726 103.088 165.924 103.196 166.08C103.304 166.224 103.442 166.338 103.61 166.422C103.778 166.506 103.958 166.566 104.15 166.602C104.354 166.638 104.552 166.656 104.744 166.656V174H107.498V166.674C107.69 166.674 107.888 166.662 108.092 166.638C108.296 166.602 108.482 166.542 108.65 166.458C108.818 166.362 108.956 166.242 109.064 166.098C109.172 165.942 109.226 165.744 109.226 165.504Z" fill="white"/>
<path d="M47.0121 187.36C47.0121 187.132 46.9941 186.898 46.9581 186.658C46.8141 185.782 46.4541 185.062 45.8781 184.498C45.3021 183.922 44.6121 183.55 43.8081 183.382C42.7161 183.142 41.5881 183.022 40.4241 183.022L37.4541 183.04V194.686C37.4541 195.082 37.5921 195.424 37.8681 195.712C38.1561 196 38.5041 196.144 38.9121 196.144C39.1521 196.144 39.3621 196.078 39.5421 195.946C39.7221 195.802 39.8781 195.64 40.0101 195.46C40.0941 195.34 40.1601 195.106 40.2081 194.758C40.2561 194.398 40.2861 194.014 40.2981 193.606C40.3101 193.198 40.3161 192.814 40.3161 192.454C40.3161 192.094 40.3161 191.842 40.3161 191.698C40.4121 191.698 40.5741 191.698 40.8021 191.698C41.0301 191.698 41.2701 191.698 41.5221 191.698C41.7861 191.698 42.0321 191.698 42.2601 191.698C42.4881 191.686 42.6561 191.674 42.7641 191.662C43.3641 191.626 43.9221 191.5 44.4381 191.284C44.9661 191.056 45.4161 190.756 45.7881 190.384C46.1721 190.012 46.4721 189.574 46.6881 189.07C46.9041 188.554 47.0121 187.984 47.0121 187.36ZM40.3341 185.56H42.3501C42.6021 185.56 42.8361 185.608 43.0521 185.704C43.2801 185.8 43.4781 185.932 43.6461 186.1C43.8141 186.256 43.9461 186.448 44.0421 186.676C44.1381 186.892 44.1861 187.126 44.1861 187.378C44.1861 187.63 44.1381 187.864 44.0421 188.08C43.9461 188.296 43.8141 188.488 43.6461 188.656C43.4781 188.824 43.2801 188.956 43.0521 189.052C42.8361 189.148 42.6021 189.196 42.3501 189.196H40.3341V185.56Z" fill="white"/>
<path d="M57.2292 190.816C57.2292 190.192 57.1032 189.604 56.8512 189.052C56.5992 188.488 56.2632 187.996 55.8432 187.576C55.4232 187.156 54.9312 186.826 54.3672 186.586C53.8032 186.334 53.2152 186.208 52.6032 186.208C51.9072 186.208 51.2592 186.34 50.6592 186.604C50.0712 186.856 49.5552 187.204 49.1112 187.648C48.6792 188.092 48.3372 188.614 48.0852 189.214C47.8452 189.814 47.7252 190.462 47.7252 191.158C47.7252 191.914 47.8572 192.598 48.1212 193.21C48.3852 193.822 48.7512 194.35 49.2192 194.794C49.6872 195.226 50.2332 195.562 50.8572 195.802C51.4932 196.042 52.1772 196.162 52.9092 196.162C53.3652 196.162 53.7972 196.12 54.2052 196.036C54.6252 195.964 55.0452 195.844 55.4652 195.676L55.0872 193.552C54.7632 193.624 54.4332 193.696 54.0972 193.768C53.7732 193.828 53.4492 193.858 53.1252 193.858C52.5132 193.858 51.9852 193.684 51.5412 193.336C51.0972 192.988 50.8092 192.526 50.6772 191.95H55.9332C56.3532 191.95 56.6712 191.878 56.8872 191.734C57.1152 191.578 57.2292 191.272 57.2292 190.816ZM50.6772 190.384C50.7132 190.12 50.7732 189.868 50.8572 189.628C50.9532 189.376 51.0732 189.154 51.2172 188.962C51.3732 188.77 51.5592 188.62 51.7752 188.512C52.0032 188.392 52.2672 188.332 52.5672 188.332C52.8432 188.332 53.0892 188.392 53.3052 188.512C53.5212 188.632 53.7012 188.788 53.8452 188.98C54.0012 189.172 54.1212 189.394 54.2052 189.646C54.3012 189.886 54.3552 190.132 54.3672 190.384H50.6772Z" fill="white"/>
<path d="M67.2918 194.776V189.718C67.2918 189.178 67.1958 188.692 67.0038 188.26C66.8118 187.828 66.5418 187.462 66.1938 187.162C65.8578 186.85 65.4618 186.61 65.0058 186.442C64.5498 186.274 64.0638 186.19 63.5478 186.19C63.0438 186.19 62.5638 186.292 62.1078 186.496C61.6518 186.7 61.2798 187.012 60.9918 187.432C60.9438 187.108 60.8358 186.814 60.6678 186.55C60.4998 186.286 60.2238 186.154 59.8398 186.154C59.6478 186.154 59.4678 186.196 59.2998 186.28C59.1318 186.352 58.9878 186.454 58.8678 186.586C58.7478 186.718 58.6518 186.868 58.5798 187.036C58.5078 187.204 58.4718 187.384 58.4718 187.576V196H61.2438V190.15C61.2438 189.694 61.3998 189.31 61.7118 188.998C62.0238 188.674 62.4078 188.512 62.8638 188.512C63.3198 188.512 63.7098 188.674 64.0338 188.998C64.3578 189.322 64.5198 189.712 64.5198 190.168V194.812C64.5198 195.196 64.6518 195.52 64.9158 195.784C65.1918 196.048 65.5218 196.18 65.9058 196.18C66.0978 196.18 66.2778 196.144 66.4458 196.072C66.6138 196 66.7578 195.904 66.8778 195.784C67.0098 195.652 67.1118 195.502 67.1838 195.334C67.2558 195.154 67.2918 194.968 67.2918 194.776Z" fill="white"/>
<path d="M78.1853 195.01V187.576C78.1853 187.156 78.0713 186.814 77.8433 186.55C77.6273 186.286 77.2973 186.154 76.8533 186.154C76.4573 186.154 76.1753 186.286 76.0073 186.55C75.8513 186.802 75.7553 187.102 75.7193 187.45C75.4313 187.03 75.0653 186.718 74.6213 186.514C74.1773 186.298 73.7033 186.19 73.1993 186.19C72.4913 186.19 71.8613 186.34 71.3093 186.64C70.7573 186.928 70.2893 187.312 69.9053 187.792C69.5213 188.272 69.2273 188.824 69.0233 189.448C68.8193 190.06 68.7173 190.69 68.7173 191.338C68.7173 191.986 68.8193 192.61 69.0233 193.21C69.2273 193.798 69.5213 194.32 69.9053 194.776C70.2893 195.22 70.7513 195.574 71.2913 195.838C71.8433 196.102 72.4613 196.234 73.1453 196.234C73.5893 196.234 74.0093 196.15 74.4053 195.982C74.8013 195.814 75.1433 195.568 75.4313 195.244C75.4433 195.304 75.4493 195.394 75.4493 195.514C75.4493 196.198 75.2633 196.774 74.8913 197.242C74.5313 197.71 73.9793 197.944 73.2353 197.944C72.8993 197.944 72.5633 197.908 72.2273 197.836C71.9033 197.776 71.5793 197.704 71.2553 197.62C71.2553 197.68 71.2373 197.824 71.2013 198.052C71.1773 198.28 71.1473 198.526 71.1113 198.79C71.0873 199.054 71.0633 199.3 71.0393 199.528C71.0153 199.768 71.0033 199.912 71.0033 199.96C71.0273 199.972 71.0513 199.99 71.0753 200.014C71.0993 200.038 71.1233 200.056 71.1473 200.068C71.4713 200.164 71.8013 200.236 72.1373 200.284C72.4853 200.332 72.8273 200.356 73.1633 200.356C73.9673 200.356 74.6813 200.218 75.3053 199.942C75.9293 199.678 76.4513 199.306 76.8713 198.826C77.3033 198.358 77.6273 197.794 77.8433 197.134C78.0713 196.486 78.1853 195.778 78.1853 195.01ZM75.5573 191.266C75.5573 191.554 75.5153 191.848 75.4313 192.148C75.3473 192.448 75.2213 192.718 75.0533 192.958C74.8973 193.186 74.6933 193.378 74.4413 193.534C74.2013 193.678 73.9133 193.75 73.5773 193.75C73.2173 193.75 72.9053 193.678 72.6413 193.534C72.3773 193.378 72.1613 193.18 71.9933 192.94C71.8253 192.688 71.6993 192.406 71.6153 192.094C71.5433 191.782 71.5073 191.464 71.5073 191.14C71.5073 190.828 71.5493 190.522 71.6333 190.222C71.7173 189.922 71.8433 189.658 72.0113 189.43C72.1913 189.19 72.4133 188.998 72.6773 188.854C72.9413 188.71 73.2473 188.638 73.5953 188.638C73.9073 188.638 74.2013 188.71 74.4773 188.854C74.6933 188.974 74.8733 189.124 75.0173 189.304C75.1613 189.484 75.2693 189.682 75.3413 189.898C75.4253 190.102 75.4793 190.324 75.5033 190.564C75.5393 190.792 75.5573 191.026 75.5573 191.266Z" fill="white"/>
<path d="M88.8171 190.816C88.8171 190.192 88.6911 189.604 88.4391 189.052C88.1871 188.488 87.8511 187.996 87.4311 187.576C87.0111 187.156 86.5191 186.826 85.9551 186.586C85.3911 186.334 84.8031 186.208 84.1911 186.208C83.4951 186.208 82.8471 186.34 82.2471 186.604C81.6591 186.856 81.1431 187.204 80.6991 187.648C80.2671 188.092 79.9251 188.614 79.6731 189.214C79.4331 189.814 79.3131 190.462 79.3131 191.158C79.3131 191.914 79.4451 192.598 79.7091 193.21C79.9731 193.822 80.3391 194.35 80.8071 194.794C81.2751 195.226 81.8211 195.562 82.4451 195.802C83.0811 196.042 83.7651 196.162 84.4971 196.162C84.9531 196.162 85.3851 196.12 85.7931 196.036C86.2131 195.964 86.6331 195.844 87.0531 195.676L86.6751 193.552C86.3511 193.624 86.0211 193.696 85.6851 193.768C85.3611 193.828 85.0371 193.858 84.7131 193.858C84.1011 193.858 83.5731 193.684 83.1291 193.336C82.6851 192.988 82.3971 192.526 82.2651 191.95H87.5211C87.9411 191.95 88.2591 191.878 88.4751 191.734C88.7031 191.578 88.8171 191.272 88.8171 190.816ZM82.2651 190.384C82.3011 190.12 82.3611 189.868 82.4451 189.628C82.5411 189.376 82.6611 189.154 82.8051 188.962C82.9611 188.77 83.1471 188.62 83.3631 188.512C83.5911 188.392 83.8551 188.332 84.1551 188.332C84.4311 188.332 84.6771 188.392 84.8931 188.512C85.1091 188.632 85.2891 188.788 85.4331 188.98C85.5891 189.172 85.7091 189.394 85.7931 189.646C85.8891 189.886 85.9431 190.132 85.9551 190.384H82.2651Z" fill="white"/>
<path d="M92.6517 196V183.31C92.6517 182.938 92.5197 182.614 92.2557 182.338C91.9917 182.062 91.6677 181.924 91.2837 181.924C90.8997 181.924 90.5697 182.056 90.2937 182.32C90.0177 182.584 89.8797 182.914 89.8797 183.31V196.018L92.6517 196Z" fill="white"/>
<path d="M102.589 192.022V187.594C102.589 187.21 102.451 186.886 102.175 186.622C101.911 186.346 101.587 186.208 101.203 186.208C101.011 186.208 100.831 186.244 100.663 186.316C100.495 186.388 100.345 186.49 100.213 186.622C100.093 186.742 99.9971 186.892 99.9251 187.072C99.8531 187.24 99.8171 187.42 99.8171 187.612V192.004C99.8171 192.544 99.6851 192.97 99.4211 193.282C99.1571 193.594 98.7491 193.75 98.1971 193.75C97.6331 193.75 97.2191 193.594 96.9551 193.282C96.6911 192.958 96.5591 192.532 96.5591 192.004V186.46H93.7871V192.04C93.7871 193.456 94.1771 194.5 94.9571 195.172C95.7371 195.844 96.8171 196.18 98.1971 196.18C99.5771 196.18 100.651 195.844 101.419 195.172C102.199 194.5 102.589 193.45 102.589 192.022Z" fill="white"/>
<path d="M113.114 196.036V187.54C113.114 187.228 113.03 186.958 112.862 186.73C112.706 186.502 112.466 186.376 112.142 186.352C111.95 186.328 111.746 186.334 111.53 186.37C111.314 186.394 111.086 186.484 110.846 186.64C110.606 186.784 110.45 186.94 110.378 187.108C110.318 187.276 110.288 187.36 110.288 187.36C110.288 187.36 110.18 187.306 109.964 187.198C109.748 187.078 109.466 186.964 109.118 186.856C108.782 186.748 108.392 186.67 107.948 186.622C107.516 186.562 107.084 186.586 106.652 186.694C106.172 186.826 105.746 187.042 105.374 187.342C105.002 187.63 104.684 187.978 104.42 188.386C104.168 188.782 103.97 189.226 103.826 189.718C103.694 190.21 103.628 190.708 103.628 191.212C103.628 191.872 103.73 192.502 103.934 193.102C104.15 193.69 104.45 194.212 104.834 194.668C105.23 195.124 105.704 195.49 106.256 195.766C106.82 196.03 107.444 196.162 108.128 196.162C108.644 196.162 109.118 196.054 109.55 195.838C109.982 195.622 110.336 195.286 110.612 194.83C110.612 194.83 110.606 194.884 110.594 194.992C110.594 195.088 110.594 195.202 110.594 195.334C110.594 195.466 110.594 195.598 110.594 195.73C110.606 195.862 110.612 195.964 110.612 196.036H113.114ZM110.45 191.122C110.45 191.446 110.414 191.77 110.342 192.094C110.282 192.406 110.168 192.694 110 192.958C109.844 193.21 109.634 193.42 109.37 193.588C109.118 193.744 108.806 193.822 108.434 193.822C108.074 193.822 107.768 193.744 107.516 193.588C107.264 193.432 107.054 193.228 106.886 192.976C106.73 192.724 106.61 192.442 106.526 192.13C106.454 191.818 106.418 191.506 106.418 191.194C106.418 190.894 106.454 190.588 106.526 190.276C106.61 189.964 106.736 189.682 106.904 189.43C107.072 189.178 107.282 188.974 107.534 188.818C107.798 188.662 108.11 188.584 108.47 188.584C108.83 188.584 109.136 188.662 109.388 188.818C109.64 188.962 109.844 189.154 110 189.394C110.156 189.634 110.27 189.904 110.342 190.204C110.414 190.504 110.45 190.81 110.45 191.122Z" fill="white"/>
<path d="M120.054 187.54C120.054 187.24 119.952 186.982 119.748 186.766C119.556 186.55 119.322 186.424 119.046 186.388C118.806 186.364 118.554 186.412 118.29 186.532C118.026 186.652 117.792 186.778 117.588 186.91C117.336 187.078 117.096 187.276 116.868 187.504C116.64 187.72 116.466 187.9 116.346 188.044C116.226 188.176 116.16 188.254 116.148 188.278C116.076 188.074 115.986 187.87 115.878 187.666C115.782 187.45 115.668 187.264 115.536 187.108C115.404 186.952 115.26 186.85 115.104 186.802C114.948 186.742 114.786 186.772 114.618 186.892C114.486 186.988 114.378 187.09 114.294 187.198C114.21 187.294 114.168 187.426 114.168 187.594V196.036L116.94 196.018V191.662C116.94 191.386 116.952 191.128 116.976 190.888C117 190.636 117.066 190.408 117.174 190.204C117.306 189.952 117.468 189.748 117.66 189.592C117.852 189.424 118.056 189.286 118.272 189.178C118.488 189.058 118.698 188.956 118.902 188.872C119.118 188.788 119.31 188.692 119.478 188.584C119.646 188.464 119.784 188.326 119.892 188.17C120 188.002 120.054 187.792 120.054 187.54Z" fill="white"/>
<path d="M129.831 196.036V187.54C129.831 187.228 129.747 186.958 129.579 186.73C129.423 186.502 129.183 186.376 128.859 186.352C128.667 186.328 128.463 186.334 128.247 186.37C128.031 186.394 127.803 186.484 127.563 186.64C127.323 186.784 127.167 186.94 127.095 187.108C127.035 187.276 127.005 187.36 127.005 187.36C127.005 187.36 126.897 187.306 126.681 187.198C126.465 187.078 126.183 186.964 125.835 186.856C125.499 186.748 125.109 186.67 124.665 186.622C124.233 186.562 123.801 186.586 123.369 186.694C122.889 186.826 122.463 187.042 122.091 187.342C121.719 187.63 121.401 187.978 121.137 188.386C120.885 188.782 120.687 189.226 120.543 189.718C120.411 190.21 120.345 190.708 120.345 191.212C120.345 191.872 120.447 192.502 120.651 193.102C120.867 193.69 121.167 194.212 121.551 194.668C121.947 195.124 122.421 195.49 122.973 195.766C123.537 196.03 124.161 196.162 124.845 196.162C125.361 196.162 125.835 196.054 126.267 195.838C126.699 195.622 127.053 195.286 127.329 194.83C127.329 194.83 127.323 194.884 127.311 194.992C127.311 195.088 127.311 195.202 127.311 195.334C127.311 195.466 127.311 195.598 127.311 195.73C127.323 195.862 127.329 195.964 127.329 196.036H129.831ZM127.167 191.122C127.167 191.446 127.131 191.77 127.059 192.094C126.999 192.406 126.885 192.694 126.717 192.958C126.561 193.21 126.351 193.42 126.087 193.588C125.835 193.744 125.523 193.822 125.151 193.822C124.791 193.822 124.485 193.744 124.233 193.588C123.981 193.432 123.771 193.228 123.603 192.976C123.447 192.724 123.327 192.442 123.243 192.13C123.171 191.818 123.135 191.506 123.135 191.194C123.135 190.894 123.171 190.588 123.243 190.276C123.327 189.964 123.453 189.682 123.621 189.43C123.789 189.178 123.999 188.974 124.251 188.818C124.515 188.662 124.827 188.584 125.187 188.584C125.547 188.584 125.853 188.662 126.105 188.818C126.357 188.962 126.561 189.154 126.717 189.394C126.873 189.634 126.987 189.904 127.059 190.204C127.131 190.504 127.167 190.81 127.167 191.122Z" fill="white"/>
<path d="M139.661 194.776V189.718C139.661 189.178 139.565 188.692 139.373 188.26C139.181 187.828 138.911 187.462 138.563 187.162C138.227 186.85 137.831 186.61 137.375 186.442C136.919 186.274 136.433 186.19 135.917 186.19C135.413 186.19 134.933 186.292 134.477 186.496C134.021 186.7 133.649 187.012 133.361 187.432C133.313 187.108 133.205 186.814 133.037 186.55C132.869 186.286 132.593 186.154 132.209 186.154C132.017 186.154 131.837 186.196 131.669 186.28C131.501 186.352 131.357 186.454 131.237 186.586C131.117 186.718 131.021 186.868 130.949 187.036C130.877 187.204 130.841 187.384 130.841 187.576V196H133.613V190.15C133.613 189.694 133.769 189.31 134.081 188.998C134.393 188.674 134.777 188.512 135.233 188.512C135.689 188.512 136.079 188.674 136.403 188.998C136.727 189.322 136.889 189.712 136.889 190.168V194.812C136.889 195.196 137.021 195.52 137.285 195.784C137.561 196.048 137.891 196.18 138.275 196.18C138.467 196.18 138.647 196.144 138.815 196.072C138.983 196 139.127 195.904 139.247 195.784C139.379 195.652 139.481 195.502 139.553 195.334C139.625 195.154 139.661 194.968 139.661 194.776Z" fill="white"/>
<path d="M132.046 51.2075L119.103 38.2645C118.703 37.863 118.228 37.5445 117.704 37.3275C117.18 37.1105 116.619 36.9992 116.052 37H64.263C63.6962 36.9992 63.1348 37.1105 62.6111 37.3275C62.0875 37.5445 61.6119 37.863 61.2118 38.2645L48.2688 51.2075C47.8656 51.6074 47.5458 52.0835 47.328 52.608C47.1102 53.1325 46.9987 53.6951 47 54.263V110.368C47 115.128 50.8712 118.999 55.6315 118.999H124.684C129.444 118.999 133.315 115.128 133.315 110.368V54.263C133.316 53.6951 133.205 53.1325 132.987 52.608C132.769 52.0835 132.45 51.6074 132.046 51.2075ZM66.0498 45.6315H114.265L118.581 49.9473H61.734L66.0498 45.6315ZM98.7891 88.7891V101.736H81.5261V88.7891H68.5788L90.1576 67.2103L111.736 88.7891H98.7891Z" fill="white"/>
<path d="M98.7891 88.7891V101.736H81.5261V88.7891H68.5788L90.1576 67.2103L111.736 88.7891H98.7891Z" fill="#8E919A"/>
<path d="M66.0498 45.6315H114.265L118.581 49.9473H61.734L66.0498 45.6315Z" fill="#8E919A"/>
<path d="M132.046 51.2075L119.103 38.2645C118.703 37.863 118.228 37.5445 117.704 37.3275C117.18 37.1105 116.619 36.9992 116.052 37H64.263C63.6962 36.9992 63.1348 37.1105 62.6111 37.3275C62.0875 37.5445 61.6119 37.863 61.2118 38.2645L48.2688 51.2075C47.8656 51.6074 47.5458 52.0835 47.328 52.608C47.1102 53.1325 46.9987 53.6951 47 54.263V110.368C47 115.128 50.8712 118.999 55.6315 118.999H124.684C129.444 118.999 133.315 115.128 133.315 110.368V54.263C133.316 53.6951 133.205 53.1325 132.987 52.608C132.769 52.0835 132.45 51.6074 132.046 51.2075ZM66.0498 45.6315H114.265L118.581 49.9473H61.734L66.0498 45.6315ZM98.7891 88.7891V101.736H81.5261V88.7891H68.5788L90.1576 67.2103L111.736 88.7891H98.7891Z" fill="white"/>
</svg>
