<svg width="180" height="220" viewBox="0 0 180 220" fill="none" xmlns="http://www.w3.org/2000/svg">
<rect width="180" height="220" rx="10" fill="#606060"/>
<path d="M76.1657 174H82.3937V171.48H77.6057V168.762H80.5757C80.9237 168.762 81.2237 168.648 81.4757 168.42C81.7397 168.18 81.8717 167.88 81.8717 167.52C81.8717 167.172 81.7517 166.89 81.5117 166.674C81.3797 166.554 81.2297 166.458 81.0617 166.386C80.9057 166.314 80.7317 166.278 80.5397 166.278H77.6057V163.56H80.8997C81.2477 163.56 81.5417 163.44 81.7817 163.2C82.0337 162.948 82.1597 162.648 82.1597 162.3C82.1597 161.952 82.0397 161.658 81.7997 161.418C81.5597 161.166 81.2657 161.04 80.9177 161.04H78.1457C78.1097 161.04 77.9177 161.04 77.5697 161.04C77.2337 161.04 76.8557 161.04 76.4357 161.04C76.0277 161.04 75.6497 161.04 75.3017 161.04C74.9657 161.028 74.7797 161.022 74.7437 161.022V172.524C74.7437 172.716 74.7797 172.902 74.8517 173.082C74.9237 173.262 75.0197 173.418 75.1397 173.55C75.2717 173.682 75.4217 173.79 75.5897 173.874C75.7697 173.958 75.9617 174 76.1657 174Z" fill="white"/>
<path d="M92.8045 172.74V160.23H90.0325V165.09C89.4205 164.478 88.6705 164.172 87.7825 164.172C87.0985 164.172 86.4805 164.31 85.9285 164.586C85.3765 164.85 84.9085 165.216 84.5245 165.684C84.1405 166.14 83.8405 166.668 83.6245 167.268C83.4205 167.856 83.3185 168.474 83.3185 169.122C83.3185 169.746 83.4205 170.358 83.6245 170.958C83.8285 171.558 84.1165 172.098 84.4885 172.578C84.8725 173.046 85.3345 173.424 85.8745 173.712C86.4145 174 87.0205 174.144 87.6925 174.144C88.2085 174.144 88.6945 174.036 89.1505 173.82C89.6185 173.604 90.0085 173.286 90.3205 172.866C90.3445 173.19 90.4345 173.49 90.5905 173.766C90.7585 174.03 91.0405 174.162 91.4365 174.162C91.8565 174.162 92.1865 174.03 92.4265 173.766C92.6785 173.502 92.8045 173.16 92.8045 172.74ZM90.1045 169.32C90.1045 169.632 90.0625 169.932 89.9785 170.22C89.8945 170.508 89.7685 170.766 89.6005 170.994C89.4445 171.21 89.2345 171.39 88.9705 171.534C88.7185 171.666 88.4245 171.732 88.0885 171.732C87.7405 171.732 87.4405 171.654 87.1885 171.498C86.9365 171.342 86.7265 171.144 86.5585 170.904C86.4025 170.664 86.2825 170.394 86.1985 170.094C86.1265 169.782 86.0905 169.47 86.0905 169.158C86.0905 168.858 86.1325 168.558 86.2165 168.258C86.3005 167.958 86.4265 167.688 86.5945 167.448C86.7625 167.208 86.9725 167.016 87.2245 166.872C87.4765 166.716 87.7765 166.638 88.1245 166.638C88.4965 166.638 88.8085 166.722 89.0605 166.89C89.3245 167.046 89.5285 167.25 89.6725 167.502C89.8285 167.754 89.9365 168.042 89.9965 168.366C90.0685 168.678 90.1045 168.996 90.1045 169.32Z" fill="white"/>
<path d="M95.5448 160.86C95.2688 160.86 95.0288 160.962 94.8248 161.166C94.6328 161.358 94.5368 161.592 94.5368 161.868C94.5368 162.156 94.6388 162.402 94.8428 162.606C95.0468 162.798 95.2868 162.894 95.5628 162.894C95.8388 162.894 96.0728 162.798 96.2648 162.606C96.4688 162.402 96.5708 162.156 96.5708 161.868C96.5708 161.592 96.4688 161.358 96.2648 161.166C96.0608 160.962 95.8208 160.86 95.5448 160.86ZM97.0028 174V165.576C97.0028 165.396 96.9668 165.222 96.8948 165.054C96.8228 164.886 96.7208 164.742 96.5888 164.622C96.4688 164.49 96.3248 164.388 96.1568 164.316C96.0008 164.232 95.8268 164.19 95.6348 164.19C95.2508 164.19 94.9208 164.322 94.6448 164.586C94.3688 164.85 94.2308 165.18 94.2308 165.576V174H97.0028Z" fill="white"/>
<path d="M104.497 165.504C104.497 165.252 104.443 165.054 104.335 164.91C104.227 164.754 104.089 164.634 103.921 164.55C103.753 164.454 103.567 164.394 103.363 164.37C103.159 164.334 102.961 164.316 102.769 164.316V162.84C102.769 162.456 102.631 162.12 102.355 161.832C102.091 161.544 101.767 161.4 101.383 161.4C100.999 161.4 100.669 161.544 100.393 161.832C100.129 162.108 99.997 162.438 99.997 162.822V164.334C99.805 164.334 99.607 164.352 99.403 164.388C99.211 164.412 99.031 164.466 98.863 164.55C98.707 164.634 98.575 164.754 98.467 164.91C98.359 165.054 98.305 165.246 98.305 165.486C98.305 165.726 98.359 165.924 98.467 166.08C98.575 166.224 98.713 166.338 98.881 166.422C99.049 166.506 99.229 166.566 99.421 166.602C99.625 166.638 99.823 166.656 100.015 166.656V174H102.769V166.674C102.961 166.674 103.159 166.662 103.363 166.638C103.567 166.602 103.753 166.542 103.921 166.458C104.089 166.362 104.227 166.242 104.335 166.098C104.443 165.942 104.497 165.744 104.497 165.504Z" fill="white"/>
<path d="M43.7943 180.34C43.5183 180.34 43.2783 180.442 43.0743 180.646C42.8823 180.838 42.7863 181.072 42.7863 181.348C42.7863 181.636 42.8883 181.882 43.0923 182.086C43.2963 182.278 43.5363 182.374 43.8123 182.374C44.0883 182.374 44.3223 182.278 44.5143 182.086C44.7183 181.882 44.8203 181.636 44.8203 181.348C44.8203 181.072 44.7183 180.838 44.5143 180.646C44.3103 180.442 44.0703 180.34 43.7943 180.34ZM45.3063 196.018V184.336C45.3063 183.952 45.1683 183.622 44.8923 183.346C44.6163 183.058 44.2803 182.914 43.8843 182.914C43.5003 182.914 43.1643 183.052 42.8763 183.328C42.5883 183.604 42.4443 183.94 42.4443 184.336V196.018H45.3063Z" fill="white"/>
<path d="M55.2236 194.776V189.718C55.2236 189.178 55.1276 188.692 54.9356 188.26C54.7436 187.828 54.4736 187.462 54.1256 187.162C53.7896 186.85 53.3936 186.61 52.9376 186.442C52.4816 186.274 51.9956 186.19 51.4796 186.19C50.9756 186.19 50.4956 186.292 50.0396 186.496C49.5836 186.7 49.2116 187.012 48.9236 187.432C48.8756 187.108 48.7676 186.814 48.5996 186.55C48.4316 186.286 48.1556 186.154 47.7716 186.154C47.5796 186.154 47.3996 186.196 47.2316 186.28C47.0636 186.352 46.9196 186.454 46.7996 186.586C46.6796 186.718 46.5836 186.868 46.5116 187.036C46.4396 187.204 46.4036 187.384 46.4036 187.576V196H49.1756V190.15C49.1756 189.694 49.3316 189.31 49.6436 188.998C49.9556 188.674 50.3396 188.512 50.7956 188.512C51.2516 188.512 51.6416 188.674 51.9656 188.998C52.2896 189.322 52.4516 189.712 52.4516 190.168V194.812C52.4516 195.196 52.5836 195.52 52.8476 195.784C53.1236 196.048 53.4536 196.18 53.8376 196.18C54.0296 196.18 54.2096 196.144 54.3776 196.072C54.5456 196 54.6896 195.904 54.8096 195.784C54.9416 195.652 55.0436 195.502 55.1156 195.334C55.1876 195.154 55.2236 194.968 55.2236 194.776Z" fill="white"/>
<path d="M62.2831 183.274C62.2831 183.058 62.2291 182.866 62.1211 182.698C62.0251 182.53 61.8931 182.392 61.7251 182.284C61.5691 182.176 61.3891 182.098 61.1851 182.05C60.9811 181.99 60.7831 181.96 60.5911 181.96H59.8171C59.1811 181.96 58.6831 182.146 58.3231 182.518C57.9751 182.89 57.7591 183.346 57.6751 183.886C57.6391 183.982 57.6091 184.144 57.5851 184.372C57.5731 184.6 57.5611 184.846 57.5491 185.11C57.5371 185.362 57.5251 185.602 57.5131 185.83C57.5131 186.058 57.5131 186.226 57.5131 186.334C57.3331 186.334 57.1411 186.352 56.9371 186.388C56.7451 186.412 56.5651 186.466 56.3971 186.55C56.2411 186.634 56.1091 186.754 56.0011 186.91C55.8931 187.066 55.8391 187.258 55.8391 187.486C55.8391 187.702 55.8871 187.894 55.9831 188.062C56.0791 188.218 56.1991 188.35 56.3431 188.458C56.4991 188.554 56.6731 188.626 56.8651 188.674C57.0571 188.722 57.2431 188.746 57.4231 188.746C57.4351 188.758 57.4471 188.764 57.4591 188.764C57.4831 188.752 57.5011 188.746 57.5131 188.746V200.05H60.2671V188.746C60.4591 188.746 60.6631 188.734 60.8791 188.71C61.0951 188.674 61.2931 188.614 61.4731 188.53C61.6531 188.434 61.8031 188.308 61.9231 188.152C62.0431 187.996 62.1031 187.798 62.1031 187.558C62.1031 187.306 62.0431 187.102 61.9231 186.946C61.8031 186.79 61.6531 186.664 61.4731 186.568C61.2931 186.472 61.0951 186.406 60.8791 186.37C60.6631 186.334 60.4591 186.316 60.2671 186.316V184.912C60.2671 184.768 60.3211 184.66 60.4291 184.588C60.5491 184.516 60.6751 184.468 60.8071 184.444C61.1671 184.468 61.5031 184.384 61.8151 184.192C62.1271 184 62.2831 183.694 62.2831 183.274Z" fill="white"/>
<path d="M72.1121 191.158C72.1121 190.486 71.9921 189.85 71.7521 189.25C71.5121 188.638 71.1761 188.104 70.7441 187.648C70.3241 187.192 69.8201 186.832 69.2321 186.568C68.6561 186.304 68.0201 186.172 67.3241 186.172C66.6281 186.172 65.9861 186.31 65.3981 186.586C64.8221 186.85 64.3181 187.21 63.8861 187.666C63.4661 188.122 63.1361 188.656 62.8961 189.268C62.6561 189.868 62.5361 190.51 62.5361 191.194C62.5361 191.866 62.6561 192.508 62.8961 193.12C63.1361 193.72 63.4661 194.248 63.8861 194.704C64.3181 195.16 64.8281 195.526 65.4161 195.802C66.0041 196.066 66.6461 196.198 67.3421 196.198C68.0381 196.198 68.6741 196.066 69.2501 195.802C69.8381 195.526 70.3421 195.16 70.7621 194.704C71.1821 194.236 71.5121 193.702 71.7521 193.102C71.9921 192.49 72.1121 191.842 72.1121 191.158ZM69.3581 191.176C69.3581 191.488 69.3161 191.806 69.2321 192.13C69.1601 192.442 69.0401 192.724 68.8721 192.976C68.7161 193.228 68.5061 193.438 68.2421 193.606C67.9901 193.762 67.6841 193.84 67.3241 193.84C66.9761 193.84 66.6701 193.762 66.4061 193.606C66.1541 193.438 65.9441 193.228 65.7761 192.976C65.6201 192.712 65.5001 192.424 65.4161 192.112C65.3441 191.788 65.3081 191.476 65.3081 191.176C65.3081 190.876 65.3501 190.576 65.4341 190.276C65.5181 189.964 65.6381 189.682 65.7941 189.43C65.9621 189.178 66.1721 188.974 66.4241 188.818C66.6761 188.662 66.9761 188.584 67.3241 188.584C67.6721 188.584 67.9721 188.662 68.2241 188.818C68.4881 188.974 68.7041 189.178 68.8721 189.43C69.0401 189.67 69.1601 189.946 69.2321 190.258C69.3161 190.57 69.3581 190.876 69.3581 191.176Z" fill="white"/>
<path d="M87.9663 192.13C87.9663 191.554 87.8343 191.026 87.5703 190.546C87.3063 190.054 86.9343 189.67 86.4543 189.394C86.3583 189.334 86.2203 189.268 86.0403 189.196C85.8723 189.124 85.7403 189.076 85.6443 189.052C86.0523 188.788 86.3583 188.452 86.5623 188.044C86.7783 187.624 86.8863 187.162 86.8863 186.658C86.8863 186.094 86.7723 185.59 86.5443 185.146C86.3163 184.69 86.0103 184.306 85.6263 183.994C85.2543 183.682 84.8223 183.448 84.3303 183.292C83.8383 183.124 83.3283 183.04 82.8003 183.04H79.9203C79.5003 183.04 79.1463 183.178 78.8583 183.454C78.5823 183.73 78.4443 184.078 78.4443 184.498V196.018C78.7203 196.006 79.1043 196 79.5963 196C80.0883 196 80.6043 196 81.1443 196C81.6843 196 82.2003 196 82.6923 196C83.1963 196 83.5863 196 83.8623 196C84.4263 196 84.9543 195.91 85.4463 195.73C85.9503 195.538 86.3883 195.274 86.7603 194.938C87.1323 194.602 87.4263 194.2 87.6423 193.732C87.8583 193.252 87.9663 192.718 87.9663 192.13ZM81.3243 185.524H82.6923C82.8723 185.524 83.0463 185.56 83.2143 185.632C83.3943 185.692 83.5503 185.782 83.6823 185.902C83.8143 186.01 83.9223 186.142 84.0063 186.298C84.0903 186.454 84.1323 186.628 84.1323 186.82C84.1323 187.024 84.0843 187.21 83.9883 187.378C83.9043 187.534 83.7903 187.672 83.6463 187.792C83.5023 187.912 83.3403 188.002 83.1603 188.062C82.9803 188.122 82.7943 188.152 82.6023 188.152H81.3243V185.524ZM81.3063 190.51H83.5383C83.7423 190.51 83.9343 190.552 84.1143 190.636C84.3063 190.708 84.4743 190.816 84.6183 190.96C84.7623 191.092 84.8763 191.248 84.9603 191.428C85.0443 191.608 85.0863 191.806 85.0863 192.022C85.0863 192.238 85.0443 192.436 84.9603 192.616C84.8763 192.796 84.7623 192.952 84.6183 193.084C84.4743 193.216 84.3063 193.324 84.1143 193.408C83.9223 193.48 83.7243 193.516 83.5203 193.516H81.3063V190.51Z" fill="white"/>
<path d="M98.6903 196.036V187.54C98.6903 187.228 98.6063 186.958 98.4383 186.73C98.2823 186.502 98.0423 186.376 97.7183 186.352C97.5263 186.328 97.3223 186.334 97.1063 186.37C96.8903 186.394 96.6623 186.484 96.4223 186.64C96.1823 186.784 96.0263 186.94 95.9543 187.108C95.8943 187.276 95.8643 187.36 95.8643 187.36C95.8643 187.36 95.7563 187.306 95.5403 187.198C95.3243 187.078 95.0423 186.964 94.6943 186.856C94.3583 186.748 93.9683 186.67 93.5243 186.622C93.0923 186.562 92.6603 186.586 92.2283 186.694C91.7483 186.826 91.3223 187.042 90.9503 187.342C90.5783 187.63 90.2603 187.978 89.9963 188.386C89.7443 188.782 89.5463 189.226 89.4023 189.718C89.2703 190.21 89.2043 190.708 89.2043 191.212C89.2043 191.872 89.3063 192.502 89.5103 193.102C89.7263 193.69 90.0263 194.212 90.4103 194.668C90.8063 195.124 91.2803 195.49 91.8323 195.766C92.3963 196.03 93.0203 196.162 93.7043 196.162C94.2203 196.162 94.6943 196.054 95.1263 195.838C95.5583 195.622 95.9123 195.286 96.1883 194.83C96.1883 194.83 96.1823 194.884 96.1703 194.992C96.1703 195.088 96.1703 195.202 96.1703 195.334C96.1703 195.466 96.1703 195.598 96.1703 195.73C96.1823 195.862 96.1883 195.964 96.1883 196.036H98.6903ZM96.0263 191.122C96.0263 191.446 95.9903 191.77 95.9183 192.094C95.8583 192.406 95.7443 192.694 95.5763 192.958C95.4203 193.21 95.2103 193.42 94.9463 193.588C94.6943 193.744 94.3823 193.822 94.0103 193.822C93.6503 193.822 93.3443 193.744 93.0923 193.588C92.8403 193.432 92.6303 193.228 92.4623 192.976C92.3063 192.724 92.1863 192.442 92.1023 192.13C92.0303 191.818 91.9943 191.506 91.9943 191.194C91.9943 190.894 92.0303 190.588 92.1023 190.276C92.1863 189.964 92.3123 189.682 92.4803 189.43C92.6483 189.178 92.8583 188.974 93.1103 188.818C93.3743 188.662 93.6863 188.584 94.0463 188.584C94.4063 188.584 94.7123 188.662 94.9643 188.818C95.2163 188.962 95.4203 189.154 95.5763 189.394C95.7323 189.634 95.8463 189.904 95.9183 190.204C95.9903 190.504 96.0263 190.81 96.0263 191.122Z" fill="white"/>
<path d="M105.63 187.54C105.63 187.24 105.528 186.982 105.324 186.766C105.132 186.55 104.898 186.424 104.622 186.388C104.382 186.364 104.13 186.412 103.866 186.532C103.602 186.652 103.368 186.778 103.164 186.91C102.912 187.078 102.672 187.276 102.444 187.504C102.216 187.72 102.042 187.9 101.922 188.044C101.802 188.176 101.736 188.254 101.724 188.278C101.652 188.074 101.562 187.87 101.454 187.666C101.358 187.45 101.244 187.264 101.112 187.108C100.98 186.952 100.836 186.85 100.68 186.802C100.524 186.742 100.362 186.772 100.194 186.892C100.062 186.988 99.9544 187.09 99.8704 187.198C99.7864 187.294 99.7444 187.426 99.7444 187.594V196.036L102.516 196.018V191.662C102.516 191.386 102.528 191.128 102.552 190.888C102.576 190.636 102.642 190.408 102.75 190.204C102.882 189.952 103.044 189.748 103.236 189.592C103.428 189.424 103.632 189.286 103.848 189.178C104.064 189.058 104.274 188.956 104.478 188.872C104.694 188.788 104.886 188.692 105.054 188.584C105.222 188.464 105.36 188.326 105.468 188.17C105.576 188.002 105.63 187.792 105.63 187.54Z" fill="white"/>
<path d="M115.407 196.036V187.54C115.407 187.228 115.323 186.958 115.155 186.73C114.999 186.502 114.759 186.376 114.435 186.352C114.243 186.328 114.039 186.334 113.823 186.37C113.607 186.394 113.379 186.484 113.139 186.64C112.899 186.784 112.743 186.94 112.671 187.108C112.611 187.276 112.581 187.36 112.581 187.36C112.581 187.36 112.473 187.306 112.257 187.198C112.041 187.078 111.759 186.964 111.411 186.856C111.075 186.748 110.685 186.67 110.241 186.622C109.809 186.562 109.377 186.586 108.945 186.694C108.465 186.826 108.039 187.042 107.667 187.342C107.295 187.63 106.977 187.978 106.713 188.386C106.461 188.782 106.263 189.226 106.119 189.718C105.987 190.21 105.921 190.708 105.921 191.212C105.921 191.872 106.023 192.502 106.227 193.102C106.443 193.69 106.743 194.212 107.127 194.668C107.523 195.124 107.997 195.49 108.549 195.766C109.113 196.03 109.737 196.162 110.421 196.162C110.937 196.162 111.411 196.054 111.843 195.838C112.275 195.622 112.629 195.286 112.905 194.83C112.905 194.83 112.899 194.884 112.887 194.992C112.887 195.088 112.887 195.202 112.887 195.334C112.887 195.466 112.887 195.598 112.887 195.73C112.899 195.862 112.905 195.964 112.905 196.036H115.407ZM112.743 191.122C112.743 191.446 112.707 191.77 112.635 192.094C112.575 192.406 112.461 192.694 112.293 192.958C112.137 193.21 111.927 193.42 111.663 193.588C111.411 193.744 111.099 193.822 110.727 193.822C110.367 193.822 110.061 193.744 109.809 193.588C109.557 193.432 109.347 193.228 109.179 192.976C109.023 192.724 108.903 192.442 108.819 192.13C108.747 191.818 108.711 191.506 108.711 191.194C108.711 190.894 108.747 190.588 108.819 190.276C108.903 189.964 109.029 189.682 109.197 189.43C109.365 189.178 109.575 188.974 109.827 188.818C110.091 188.662 110.403 188.584 110.763 188.584C111.123 188.584 111.429 188.662 111.681 188.818C111.933 188.962 112.137 189.154 112.293 189.394C112.449 189.634 112.563 189.904 112.635 190.204C112.707 190.504 112.743 190.81 112.743 191.122Z" fill="white"/>
<path d="M125.237 194.776V189.718C125.237 189.178 125.141 188.692 124.949 188.26C124.757 187.828 124.487 187.462 124.139 187.162C123.803 186.85 123.407 186.61 122.951 186.442C122.495 186.274 122.009 186.19 121.493 186.19C120.989 186.19 120.509 186.292 120.053 186.496C119.597 186.7 119.225 187.012 118.937 187.432C118.889 187.108 118.781 186.814 118.613 186.55C118.445 186.286 118.169 186.154 117.785 186.154C117.593 186.154 117.413 186.196 117.245 186.28C117.077 186.352 116.933 186.454 116.813 186.586C116.693 186.718 116.597 186.868 116.525 187.036C116.453 187.204 116.417 187.384 116.417 187.576V196H119.189V190.15C119.189 189.694 119.345 189.31 119.657 188.998C119.969 188.674 120.353 188.512 120.809 188.512C121.265 188.512 121.655 188.674 121.979 188.998C122.303 189.322 122.465 189.712 122.465 190.168V194.812C122.465 195.196 122.597 195.52 122.861 195.784C123.137 196.048 123.467 196.18 123.851 196.18C124.043 196.18 124.223 196.144 124.391 196.072C124.559 196 124.703 195.904 124.823 195.784C124.955 195.652 125.057 195.502 125.129 195.334C125.201 195.154 125.237 194.968 125.237 194.776Z" fill="white"/>
<path d="M136.131 195.01V187.576C136.131 187.156 136.017 186.814 135.789 186.55C135.573 186.286 135.243 186.154 134.799 186.154C134.403 186.154 134.121 186.286 133.953 186.55C133.797 186.802 133.701 187.102 133.665 187.45C133.377 187.03 133.011 186.718 132.567 186.514C132.123 186.298 131.649 186.19 131.145 186.19C130.437 186.19 129.807 186.34 129.255 186.64C128.703 186.928 128.235 187.312 127.851 187.792C127.467 188.272 127.173 188.824 126.969 189.448C126.765 190.06 126.663 190.69 126.663 191.338C126.663 191.986 126.765 192.61 126.969 193.21C127.173 193.798 127.467 194.32 127.851 194.776C128.235 195.22 128.697 195.574 129.237 195.838C129.789 196.102 130.407 196.234 131.091 196.234C131.535 196.234 131.955 196.15 132.351 195.982C132.747 195.814 133.089 195.568 133.377 195.244C133.389 195.304 133.395 195.394 133.395 195.514C133.395 196.198 133.209 196.774 132.837 197.242C132.477 197.71 131.925 197.944 131.181 197.944C130.845 197.944 130.509 197.908 130.173 197.836C129.849 197.776 129.525 197.704 129.201 197.62C129.201 197.68 129.183 197.824 129.147 198.052C129.123 198.28 129.093 198.526 129.057 198.79C129.033 199.054 129.009 199.3 128.985 199.528C128.961 199.768 128.949 199.912 128.949 199.96C128.973 199.972 128.997 199.99 129.021 200.014C129.045 200.038 129.069 200.056 129.093 200.068C129.417 200.164 129.747 200.236 130.083 200.284C130.431 200.332 130.773 200.356 131.109 200.356C131.913 200.356 132.627 200.218 133.251 199.942C133.875 199.678 134.397 199.306 134.817 198.826C135.249 198.358 135.573 197.794 135.789 197.134C136.017 196.486 136.131 195.778 136.131 195.01ZM133.503 191.266C133.503 191.554 133.461 191.848 133.377 192.148C133.293 192.448 133.167 192.718 132.999 192.958C132.843 193.186 132.639 193.378 132.387 193.534C132.147 193.678 131.859 193.75 131.523 193.75C131.163 193.75 130.851 193.678 130.587 193.534C130.323 193.378 130.107 193.18 129.939 192.94C129.771 192.688 129.645 192.406 129.561 192.094C129.489 191.782 129.453 191.464 129.453 191.14C129.453 190.828 129.495 190.522 129.579 190.222C129.663 189.922 129.789 189.658 129.957 189.43C130.137 189.19 130.359 188.998 130.623 188.854C130.887 188.71 131.193 188.638 131.541 188.638C131.853 188.638 132.147 188.71 132.423 188.854C132.639 188.974 132.819 189.124 132.963 189.304C133.107 189.484 133.215 189.682 133.287 189.898C133.371 190.102 133.425 190.324 133.449 190.564C133.485 190.792 133.503 191.026 133.503 191.266Z" fill="white"/>
<path fill-rule="evenodd" clip-rule="evenodd" d="M101.083 98.7464C100.177 99.6528 99.6673 100.882 99.6673 102.164V126.331L128.667 97.3307H104.501C103.219 97.3307 101.989 97.84 101.083 98.7464Z" fill="#8E919A"/>
<path d="M70.6673 63.4974C70.6673 64.7793 71.1765 66.0087 72.083 66.9151C72.9894 67.8215 74.2188 68.3307 75.5006 68.3307H104.501C105.783 68.3307 107.012 67.8215 107.918 66.9151C108.825 66.0087 109.334 64.7793 109.334 63.4974C109.334 62.2155 108.825 60.9861 107.918 60.0797C107.012 59.1733 105.783 58.6641 104.501 58.6641H75.5006C74.2188 58.6641 72.9894 59.1733 72.083 60.0797C71.1765 60.9861 70.6673 62.2155 70.6673 63.4974Z" fill="#8E919A"/>
<path d="M70.6673 82.8307C70.6673 84.1126 71.1765 85.342 72.083 86.2484C72.9894 87.1548 74.2188 87.6641 75.5006 87.6641H85.1673C86.4492 87.6641 87.6786 87.1548 88.585 86.2484C89.4914 85.342 90.0006 84.1126 90.0006 82.8307C90.0006 81.5489 89.4914 80.3195 88.585 79.4131C87.6786 78.5066 86.4492 77.9974 85.1673 77.9974H75.5006C74.2188 77.9974 72.9894 78.5066 72.083 79.4131C71.1765 80.3195 70.6673 81.5489 70.6673 82.8307Z" fill="#8E919A"/>
<path d="M75.5006 106.997C76.7825 106.997 78.0119 106.488 78.9183 105.582C79.8248 104.675 80.334 103.446 80.334 102.164C80.334 100.882 79.8248 99.6528 78.9183 98.7464C78.0119 97.84 76.7825 97.3307 75.5006 97.3307C74.2188 97.3307 72.9894 97.84 72.083 98.7464C71.1765 99.6528 70.6673 100.882 70.6673 102.164C70.6673 103.446 71.1765 104.675 72.083 105.582C72.9894 106.488 74.2188 106.997 75.5006 106.997Z" fill="#8E919A"/>
<path d="M70.6673 34.4974C70.6673 33.2155 71.1765 31.9861 72.083 31.0797C72.9894 30.1733 74.2188 29.6641 75.5006 29.6641C76.7825 29.6641 78.0119 30.1733 78.9183 31.0797C79.8248 31.9861 80.334 33.2155 80.334 34.4974V39.3307H99.6673V34.4974C99.6673 33.2155 100.177 31.9861 101.083 31.0797C101.989 30.1733 103.219 29.6641 104.501 29.6641C105.783 29.6641 107.012 30.1733 107.918 31.0797C108.825 31.9861 109.334 33.2155 109.334 34.4974V39.3307C114.461 39.3307 119.379 41.3676 123.005 44.9933C126.63 48.619 128.667 53.5365 128.667 58.6641V87.6641H104.501C100.655 87.6641 96.9669 89.1917 94.2476 91.911C91.5283 94.6303 90.0006 98.3184 90.0006 102.164V126.331H70.6673C65.5398 126.331 60.6223 124.294 56.9966 120.668C53.3709 117.042 51.334 112.125 51.334 106.997V58.6641C51.334 53.5365 53.3709 48.619 56.9966 44.9933C60.6223 41.3676 65.5398 39.3307 70.6673 39.3307V34.4974ZM70.6673 63.4974C70.6673 64.7793 71.1765 66.0087 72.083 66.9151C72.9894 67.8215 74.2188 68.3307 75.5006 68.3307H104.501C105.783 68.3307 107.012 67.8215 107.918 66.9151C108.825 66.0087 109.334 64.7793 109.334 63.4974C109.334 62.2155 108.825 60.9861 107.918 60.0797C107.012 59.1733 105.783 58.6641 104.501 58.6641H75.5006C74.2188 58.6641 72.9894 59.1733 72.083 60.0797C71.1765 60.9861 70.6673 62.2155 70.6673 63.4974ZM70.6673 82.8307C70.6673 84.1126 71.1765 85.342 72.083 86.2484C72.9894 87.1548 74.2188 87.6641 75.5006 87.6641H85.1673C86.4492 87.6641 87.6786 87.1548 88.585 86.2484C89.4914 85.342 90.0006 84.1126 90.0006 82.8307C90.0006 81.5489 89.4914 80.3195 88.585 79.4131C87.6786 78.5066 86.4492 77.9974 85.1673 77.9974H75.5006C74.2188 77.9974 72.9894 78.5066 72.083 79.4131C71.1765 80.3195 70.6673 81.5489 70.6673 82.8307ZM75.5006 106.997C76.7825 106.997 78.0119 106.488 78.9183 105.582C79.8248 104.675 80.334 103.446 80.334 102.164C80.334 100.882 79.8248 99.6528 78.9183 98.7464C78.0119 97.84 76.7825 97.3307 75.5006 97.3307C74.2188 97.3307 72.9894 97.84 72.083 98.7464C71.1765 99.6528 70.6673 100.882 70.6673 102.164C70.6673 103.446 71.1765 104.675 72.083 105.582C72.9894 106.488 74.2188 106.997 75.5006 106.997ZM99.6673 102.164C99.6673 100.882 100.177 99.6528 101.083 98.7464C101.989 97.84 103.219 97.3307 104.501 97.3307H128.667L99.6673 126.331V102.164Z" fill="white"/>
</svg>
