<svg width="80" height="80" viewBox="0 0 80 80" fill="none" xmlns="http://www.w3.org/2000/svg">
<path d="M80 67.5C80 72.1233 79.5352 76.638 78.6497 81H0V1.15514C4.0508 0.396657 8.22908 0 12.5 0C49.7792 0 80 30.2208 80 67.5Z" fill="#6E4287"/>
<path d="M33.875 31.605C43.1958 31.605 50.75 39.0659 50.75 48.2716C50.75 57.4774 43.1958 64.9383 33.875 64.9383C30.2957 64.9383 26.9668 63.8315 24.2312 61.95C23.2754 61.2339 23.0407 59.9904 23.7104 59.0464C24.3762 58.1024 25.688 57.8745 26.6438 58.5321C28.6938 59.9448 31.1855 60.7716 33.875 60.7716C40.8623 60.7716 46.5312 55.1727 46.5312 48.2716C46.5312 41.312 40.8623 35.7716 33.875 35.7716C30.322 35.7716 27.2173 37.1688 24.9233 39.4305L26.9536 41.4357C27.949 42.4188 27.2437 44.105 25.8396 44.105H18.582C17.7086 44.105 17 43.4084 17 42.5425V35.3771C17 33.9852 18.704 33.2879 19.7007 34.2723L21.9425 36.4865C24.9958 33.4728 29.2146 31.605 33.8157 31.605H33.875ZM33.875 39.9383C34.7517 39.9383 35.457 40.6349 35.457 41.5008V47.6271L39.6824 51.8524C40.3547 52.4644 40.3547 53.4539 39.6824 54.0073C39.1221 54.6714 38.1201 54.6714 37.5005 54.0073L32.7544 49.3198C32.4578 49.0854 32.293 48.6883 32.293 48.2716V41.5008C32.293 40.6349 32.9983 39.9383 33.875 39.9383Z" fill="#EEEEEE"/>
</svg>
