<svg width="70" height="70" viewBox="0 0 70 70" fill="none" xmlns="http://www.w3.org/2000/svg">
<g filter="url(#filter0_d_2104_8376)">
<rect x="5" y="5" width="60" height="60" rx="10" fill="white" fill-opacity="0.5" shape-rendering="crispEdges"/>
<path d="M43 21C44.5304 20.9999 46.003 21.5847 47.1165 22.6346C48.23 23.6845 48.9002 25.1202 48.99 26.648L49 27V35H41L40.648 35.01C39.1808 35.0961 37.7963 35.7178 36.757 36.757C35.7178 37.7963 35.0961 39.1808 35.01 40.648L35 41V49H27C25.4696 49.0001 23.997 48.4153 22.8835 47.3654C21.77 46.3155 21.0998 44.8798 21.01 43.352L21 43V27C20.9999 25.4696 21.5847 23.997 22.6346 22.8835C23.6845 21.77 25.1202 21.0998 26.648 21.01L27 21H43ZM48.8 37.002C48.645 37.4776 48.4021 37.9199 48.084 38.306L47.828 38.586L38.586 47.828C38.138 48.276 37.594 48.608 37.002 48.802L37 41L37.01 40.7C37.0816 39.7477 37.4915 38.8523 38.1657 38.1759C38.8399 37.4995 39.7339 37.0867 40.686 37.012L41 37L48.8 37.002Z" fill="white"/>
</g>
<defs>
<filter id="filter0_d_2104_8376" x="0" y="0" width="70" height="70" filterUnits="userSpaceOnUse" color-interpolation-filters="sRGB">
<feFlood flood-opacity="0" result="BackgroundImageFix"/>
<feColorMatrix in="SourceAlpha" type="matrix" values="0 0 0 0 0 0 0 0 0 0 0 0 0 0 0 0 0 0 127 0" result="hardAlpha"/>
<feMorphology radius="2" operator="dilate" in="SourceAlpha" result="effect1_dropShadow_2104_8376"/>
<feOffset/>
<feGaussianBlur stdDeviation="1.5"/>
<feComposite in2="hardAlpha" operator="out"/>
<feColorMatrix type="matrix" values="0 0 0 0 1 0 0 0 0 1 0 0 0 0 1 0 0 0 0.25 0"/>
<feBlend mode="normal" in2="BackgroundImageFix" result="effect1_dropShadow_2104_8376"/>
<feBlend mode="normal" in="SourceGraphic" in2="effect1_dropShadow_2104_8376" result="shape"/>
</filter>
</defs>
</svg>
