<svg width="80" height="80" viewBox="0 0 80 80" fill="none" xmlns="http://www.w3.org/2000/svg">
<path d="M80 67.5C80 72.1233 79.5352 76.638 78.6497 81H0V1.15514C4.0508 0.396657 8.22908 0 12.5 0C49.7792 0 80 30.2208 80 67.5Z" fill="#2F89E3"/>
<path d="M39.0001 32.5927L50.9001 34.173L41.1001 43.852L39.0001 32.5927ZM25.0001 64.1977L13.1001 62.6174L22.9001 52.9384L25.0001 64.1977ZM16.0001 41.4816L17.6001 29.7285L27.4001 39.4075L16.0001 41.4816Z" fill="white"/>
<path d="M17.3 45.6296L13.1 46.4198C13 47.1111 13 47.7037 13 48.3951C13 52.9383 14.6 57.284 17.6 60.642L20.6 58.0741C18.3 55.4074 17 51.9506 17 48.3951C17 47.5062 17.1 46.5185 17.3 45.6296ZM32 29.6296C26.6 29.6296 21.8 31.9012 18.3 35.4568L21.1 38.2222C23.9 35.358 27.7 33.5803 32 33.5803C32.9 33.5803 33.9 33.679 34.8 33.8766L35.5 30.0247C34.4 29.7284 33.2 29.6296 32 29.6296ZM46.7 51.1605L50.9 50.3704C51 49.679 51 49.0864 51 48.3951C51 44.0494 49.5 39.8025 46.7 36.4445L43.6 38.9136C45.8 41.5803 47 44.9383 47 48.2963C47 49.284 46.9 50.2716 46.7 51.1605ZM42.9 58.5679C40.1 61.4321 36.3 63.2099 32 63.2099C31.1 63.2099 30.1 63.1111 29.2 62.9136L28.5 66.7654C29.7 66.963 30.9 67.0617 32 67.0617C37.4 67.0617 42.2 64.7901 45.7 61.2346L42.9 58.5679Z" fill="#EEEEEE"/>
<path d="M48.0001 55.3086L46.4001 67.0617L36.6001 57.3827L48.0001 55.3086Z" fill="white"/>
</svg>
