<svg width="14" height="22" viewBox="0 0 14 22" fill="none" xmlns="http://www.w3.org/2000/svg">
<path fill-rule="evenodd" clip-rule="evenodd" d="M1.43135 6.1516C0.934348 6.1516 0.531849 5.73685 0.608849 5.24685C1.0901 2.2701 3.3581 0.100098 7.29385 0.100098C11.2313 0.100098 13.8861 2.4801 13.8861 5.72635C13.8861 8.07835 12.7223 9.73035 10.7536 10.9291C8.8286 12.0823 8.2791 12.8856 8.2791 14.4466V14.4991C8.2791 14.7312 8.18691 14.9537 8.02282 15.1178C7.85872 15.2819 7.63616 15.3741 7.4041 15.3741H6.0566C5.82604 15.3741 5.6048 15.2831 5.44095 15.1209C5.27711 14.9587 5.1839 14.7384 5.1816 14.5078L5.17635 14.1578C5.1011 12.0211 6.0111 10.6561 8.0551 9.41185C9.8576 8.30585 10.4998 7.4256 10.4998 5.86285C10.4998 4.1496 9.17335 2.89135 7.12935 2.89135C5.3636 2.89135 4.13685 3.8171 3.73785 5.34485C3.62235 5.78935 3.25135 6.1516 2.79285 6.1516H1.4331H1.43135ZM6.7181 21.1001C7.8066 21.1001 8.63435 20.2706 8.63435 19.1926C8.63435 18.1111 7.8066 17.2816 6.7181 17.2816C5.6576 17.2816 4.81585 18.1111 4.81585 19.1908C4.81585 20.2706 5.6576 21.1001 6.7181 21.1001Z" fill="white"/>
</svg>
