<svg width="25" height="25" viewBox="0 0 25 25" fill="none" xmlns="http://www.w3.org/2000/svg">
<path d="M14.445 5.82195C14.445 6.07746 14.3948 6.33047 14.2971 6.56656C14.1994 6.80265 14.0562 7.01718 13.8755 7.1979C13.6949 7.37863 13.4805 7.52201 13.2445 7.61986C13.0084 7.71772 12.7555 7.76812 12.5 7.7682C12.2445 7.76829 11.9914 7.71804 11.7554 7.62034C11.5193 7.52264 11.3047 7.3794 11.124 7.19879C10.9433 7.01818 10.7999 6.80374 10.7021 6.56771C10.6042 6.33169 10.5538 6.07871 10.5537 5.8232C10.5535 5.30719 10.7584 4.81225 11.1231 4.44726C11.4879 4.08226 11.9827 3.87712 12.4987 3.87695C13.0147 3.87679 13.5097 4.08161 13.8747 4.44637C14.2397 4.81113 14.4448 5.30594 14.445 5.82195Z" fill="white"/>
<path d="M12.5002 14.4444C13.5744 14.4444 14.4452 13.5736 14.4452 12.4994C14.4452 11.4253 13.5744 10.5544 12.5002 10.5544C11.426 10.5544 10.5552 11.4253 10.5552 12.4994C10.5552 13.5736 11.426 14.4444 12.5002 14.4444Z" fill="white"/>
<path d="M12.5002 21.1232C13.5744 21.1232 14.4452 20.2523 14.4452 19.1782C14.4452 18.104 13.5744 17.2332 12.5002 17.2332C11.426 17.2332 10.5552 18.104 10.5552 19.1782C10.5552 20.2523 11.426 21.1232 12.5002 21.1232Z" fill="white"/>
</svg>
