<svg width="32" height="32" viewBox="0 0 32 32" fill="none" xmlns="http://www.w3.org/2000/svg">
<path d="M17.8799 16.0001L23.6132 10.2801C23.8643 10.029 24.0054 9.68849 24.0054 9.33342C24.0054 8.97835 23.8643 8.63782 23.6132 8.38675C23.3622 8.13568 23.0217 7.99463 22.6666 7.99463C22.3115 7.99463 21.971 8.13568 21.7199 8.38675L15.9999 14.1201L10.2799 8.38675C10.0288 8.13568 9.68832 7.99463 9.33325 7.99463C8.97818 7.99463 8.63766 8.13568 8.38659 8.38675C8.13551 8.63782 7.99446 8.97835 7.99446 9.33342C7.99446 9.68849 8.13551 10.029 8.38659 10.2801L14.1199 16.0001L8.38659 21.7201C8.26161 21.844 8.16242 21.9915 8.09473 22.154C8.02704 22.3165 7.99219 22.4907 7.99219 22.6667C7.99219 22.8428 8.02704 23.017 8.09473 23.1795C8.16242 23.342 8.26161 23.4895 8.38659 23.6134C8.51054 23.7384 8.658 23.8376 8.82048 23.9053C8.98296 23.973 9.15724 24.0078 9.33325 24.0078C9.50927 24.0078 9.68354 23.973 9.84602 23.9053C10.0085 23.8376 10.156 23.7384 10.2799 23.6134L15.9999 17.8801L21.7199 23.6134C21.8439 23.7384 21.9913 23.8376 22.1538 23.9053C22.3163 23.973 22.4906 24.0078 22.6666 24.0078C22.8426 24.0078 23.0169 23.973 23.1794 23.9053C23.3418 23.8376 23.4893 23.7384 23.6132 23.6134C23.7382 23.4895 23.8374 23.342 23.9051 23.1795C23.9728 23.017 24.0076 22.8428 24.0076 22.6667C24.0076 22.4907 23.9728 22.3165 23.9051 22.154C23.8374 21.9915 23.7382 21.844 23.6132 21.7201L17.8799 16.0001Z" fill="black"/>
</svg>
