<svg width="27" height="27" viewBox="0 0 27 27" fill="none" xmlns="http://www.w3.org/2000/svg">
<path d="M22.9503 9.45273V12.9627C21.5528 12.2488 19.9649 11.996 18.4148 12.2407C16.8647 12.4854 15.4319 13.215 14.3222 14.3247C13.2125 15.4343 12.483 16.8671 12.2383 18.4172C11.9936 19.9674 12.2464 21.5552 12.9603 22.9527H7.42529C6.53019 22.9527 5.67174 22.5972 5.03881 21.9642C4.40587 21.3313 4.05029 20.4728 4.05029 19.5777V9.45273H22.9503ZM19.5753 4.05273C20.4704 4.05273 21.3288 4.40831 21.9618 5.04125C22.5947 5.67418 22.9503 6.53263 22.9503 7.42773V8.10273H4.05029V7.42773C4.05029 6.53263 4.40587 5.67418 5.03881 5.04125C5.67174 4.40831 6.53019 4.05273 7.42529 4.05273H19.5753ZM18.7315 16.8777C18.7315 16.654 18.8204 16.4393 18.9787 16.2811C19.1369 16.1229 19.3515 16.034 19.5753 16.034C19.7991 16.034 20.0137 16.1229 20.1719 16.2811C20.3301 16.4393 20.419 16.654 20.419 16.8777C20.419 17.1015 20.3301 17.3161 20.1719 17.4744C20.0137 17.6326 19.7991 17.7215 19.5753 17.7215C19.3515 17.7215 19.1369 17.6326 18.9787 17.4744C18.8204 17.3161 18.7315 17.1015 18.7315 16.8777ZM20.2503 22.2777C20.2503 22.4568 20.1792 22.6284 20.0526 22.755C19.926 22.8816 19.7543 22.9527 19.5753 22.9527C19.3963 22.9527 19.2246 22.8816 19.098 22.755C18.9714 22.6284 18.9003 22.4568 18.9003 22.2777V19.5777C18.9003 19.3987 18.9714 19.227 19.098 19.1004C19.2246 18.9738 19.3963 18.9027 19.5753 18.9027C19.7543 18.9027 19.926 18.9738 20.0526 19.1004C20.1792 19.227 20.2503 19.3987 20.2503 19.5777V22.2777ZM13.5003 19.5777C13.5003 17.9665 14.1403 16.4213 15.2796 15.2821C16.4189 14.1428 17.9641 13.5027 19.5753 13.5027C21.1865 13.5027 22.7317 14.1428 23.871 15.2821C25.0102 16.4213 25.6503 17.9665 25.6503 19.5777C25.6503 21.1889 25.0102 22.7341 23.871 23.8734C22.7317 25.0127 21.1865 25.6527 19.5753 25.6527C17.9641 25.6527 16.4189 25.0127 15.2796 23.8734C14.1403 22.7341 13.5003 21.1889 13.5003 19.5777ZM14.8503 19.5777C14.8503 20.1982 14.9725 20.8126 15.21 21.3859C15.4474 21.9592 15.7955 22.4801 16.2342 22.9188C16.673 23.3576 17.1938 23.7056 17.7671 23.9431C18.3404 24.1805 18.9548 24.3027 19.5753 24.3027C20.1958 24.3027 20.8102 24.1805 21.3835 23.9431C21.9567 23.7056 22.4776 23.3576 22.9164 22.9188C23.3551 22.4801 23.7032 21.9592 23.9406 21.3859C24.1781 20.8126 24.3003 20.1982 24.3003 19.5777C24.3003 18.3246 23.8025 17.1228 22.9164 16.2367C22.0303 15.3505 20.8284 14.8527 19.5753 14.8527C18.3221 14.8527 17.1203 15.3505 16.2342 16.2367C15.3481 17.1228 14.8503 18.3246 14.8503 19.5777Z" fill="#404040"/>
</svg>
