<svg width="60" height="60" viewBox="0 0 60 60" fill="none" xmlns="http://www.w3.org/2000/svg">
<path d="M5 30C5 16.1929 16.1929 5 30 5C43.8071 5 55 16.1929 55 30C55 43.8071 43.8071 55 30 55C16.1929 55 5 43.8071 5 30Z" fill="#404040"/>
<path fill-rule="evenodd" clip-rule="evenodd" d="M5 30C5 43.8071 16.1929 55 30 55C43.8071 55 55 43.8071 55 30C55 16.1929 43.8071 5 30 5C16.1929 5 5 16.1929 5 30ZM30 0C13.4315 0 0 13.4315 0 30C0 46.5685 13.4315 60 30 60C46.5685 60 60 46.5685 60 30C60 13.4315 46.5685 0 30 0Z" fill="white"/>
<path d="M27.3333 31.9048L30.9048 27.1429L34.4762 32.5V30.7143H39.2381V22.381C39.2381 21.0679 38.1702 20 36.8571 20H21.381C20.0679 20 19 21.0679 19 22.381V36.6667C19 37.9798 20.0679 39.0476 21.381 39.0476H30.9048V34.2857H22.5714L26.1429 29.5238L27.3333 31.9048Z" fill="white"/>
<path d="M39.2381 33.095H36.8571V36.6665H33.2857V39.0474H36.8571V42.6189H39.2381V39.0474H42.8095V36.6665H39.2381V33.095Z" fill="white"/>
</svg>
