<svg width="92" height="27" viewBox="0 0 92 27" fill="none" xmlns="http://www.w3.org/2000/svg">
<rect width="92" height="27" rx="13.5" fill="#359AFF"/>
<path d="M36.9846 15.9898C36.9846 15.5418 36.8819 15.1311 36.6766 14.7578C36.4713 14.3751 36.1819 14.0764 35.8086 13.8618C35.7339 13.8151 35.6266 13.7638 35.4866 13.7078C35.3559 13.6518 35.2533 13.6144 35.1786 13.5958C35.4959 13.3904 35.7339 13.1291 35.8926 12.8118C36.0606 12.4851 36.1446 12.1258 36.1446 11.7338C36.1446 11.2951 36.0559 10.9031 35.8786 10.5578C35.7013 10.2031 35.4633 9.90442 35.1646 9.66176C34.8753 9.41909 34.5393 9.23709 34.1566 9.11576C33.7739 8.98509 33.3773 8.91976 32.9666 8.91976H30.7266C30.3999 8.91976 30.1246 9.02709 29.9006 9.24176C29.6859 9.45643 29.5786 9.72709 29.5786 10.0538V19.0138C29.7933 19.0044 30.0919 18.9998 30.4746 18.9998C30.8573 18.9998 31.2586 18.9998 31.6786 18.9998C32.0986 18.9998 32.4999 18.9998 32.8826 18.9998C33.2746 18.9998 33.5779 18.9998 33.7926 18.9998C34.2313 18.9998 34.6419 18.9298 35.0246 18.7898C35.4166 18.6404 35.7573 18.4351 36.0466 18.1738C36.3359 17.9124 36.5646 17.5998 36.7326 17.2358C36.9006 16.8624 36.9846 16.4471 36.9846 15.9898ZM31.8186 10.8518H32.8826C33.0226 10.8518 33.1579 10.8798 33.2886 10.9358C33.4286 10.9824 33.5499 11.0524 33.6526 11.1458C33.7553 11.2298 33.8393 11.3324 33.9046 11.4538C33.9699 11.5751 34.0026 11.7104 34.0026 11.8598C34.0026 12.0184 33.9653 12.1631 33.8906 12.2938C33.8253 12.4151 33.7366 12.5224 33.6246 12.6158C33.5126 12.7091 33.3866 12.7791 33.2466 12.8258C33.1066 12.8724 32.9619 12.8958 32.8126 12.8958H31.8186V10.8518ZM31.8046 14.7298H33.5406C33.6993 14.7298 33.8486 14.7624 33.9886 14.8278C34.1379 14.8838 34.2686 14.9678 34.3806 15.0798C34.4926 15.1824 34.5813 15.3038 34.6466 15.4438C34.7119 15.5838 34.7446 15.7378 34.7446 15.9058C34.7446 16.0738 34.7119 16.2278 34.6466 16.3678C34.5813 16.5078 34.4926 16.6291 34.3806 16.7318C34.2686 16.8344 34.1379 16.9184 33.9886 16.9838C33.8393 17.0398 33.6853 17.0678 33.5266 17.0678H31.8046V14.7298Z" fill="white"/>
<path d="M45.1994 14.9678C45.1994 14.4824 45.1014 14.0251 44.9054 13.5958C44.7094 13.1571 44.4481 12.7744 44.1214 12.4478C43.7948 12.1211 43.4121 11.8644 42.9734 11.6778C42.5348 11.4818 42.0774 11.3838 41.6014 11.3838C41.0601 11.3838 40.5561 11.4864 40.0894 11.6918C39.6321 11.8878 39.2308 12.1584 38.8854 12.5038C38.5494 12.8491 38.2834 13.2551 38.0874 13.7218C37.9008 14.1884 37.8074 14.6924 37.8074 15.2338C37.8074 15.8218 37.9101 16.3538 38.1154 16.8298C38.3208 17.3058 38.6054 17.7164 38.9694 18.0618C39.3334 18.3978 39.7581 18.6591 40.2434 18.8458C40.7381 19.0324 41.2701 19.1258 41.8394 19.1258C42.1941 19.1258 42.5301 19.0931 42.8474 19.0278C43.1741 18.9718 43.5008 18.8784 43.8274 18.7478L43.5334 17.0958C43.2814 17.1518 43.0248 17.2078 42.7634 17.2638C42.5114 17.3104 42.2594 17.3338 42.0074 17.3338C41.5314 17.3338 41.1208 17.1984 40.7754 16.9278C40.4301 16.6571 40.2061 16.2978 40.1034 15.8498H44.1914C44.5181 15.8498 44.7654 15.7938 44.9334 15.6818C45.1108 15.5604 45.1994 15.3224 45.1994 14.9678ZM40.1034 14.6318C40.1314 14.4264 40.1781 14.2304 40.2434 14.0438C40.3181 13.8478 40.4114 13.6751 40.5234 13.5258C40.6448 13.3764 40.7894 13.2598 40.9574 13.1758C41.1348 13.0824 41.3401 13.0358 41.5734 13.0358C41.7881 13.0358 41.9794 13.0824 42.1474 13.1758C42.3154 13.2691 42.4554 13.3904 42.5674 13.5398C42.6888 13.6891 42.7821 13.8618 42.8474 14.0578C42.9221 14.2444 42.9641 14.4358 42.9734 14.6318H40.1034Z" fill="white"/>
<path d="M50.4499 12.4198C50.4499 12.1864 50.3705 11.9858 50.2119 11.8178C50.0625 11.6498 49.8805 11.5518 49.6659 11.5238C49.4792 11.5051 49.2832 11.5424 49.0779 11.6358C48.8725 11.7291 48.6905 11.8271 48.5319 11.9298C48.3359 12.0604 48.1492 12.2144 47.9719 12.3918C47.7945 12.5598 47.6592 12.6998 47.5659 12.8118C47.4725 12.9144 47.4212 12.9751 47.4119 12.9938C47.3559 12.8351 47.2859 12.6764 47.2019 12.5178C47.1272 12.3498 47.0385 12.2051 46.9359 12.0838C46.8332 11.9624 46.7212 11.8831 46.5999 11.8458C46.4785 11.7991 46.3525 11.8224 46.2219 11.9158C46.1192 11.9904 46.0352 12.0698 45.9699 12.1538C45.9045 12.2284 45.8719 12.3311 45.8719 12.4618V19.0278L48.0279 19.0138V15.6258C48.0279 15.4111 48.0372 15.2104 48.0559 15.0238C48.0745 14.8278 48.1259 14.6504 48.2099 14.4918C48.3125 14.2958 48.4385 14.1371 48.5879 14.0158C48.7372 13.8851 48.8959 13.7778 49.0639 13.6938C49.2319 13.6004 49.3952 13.5211 49.5539 13.4558C49.7219 13.3904 49.8712 13.3158 50.0019 13.2318C50.1325 13.1384 50.2399 13.0311 50.3239 12.9098C50.4079 12.7791 50.4499 12.6158 50.4499 12.4198Z" fill="white"/>
<path d="M52.4008 8.77976C52.1861 8.77976 51.9995 8.85909 51.8408 9.01776C51.6915 9.16709 51.6168 9.34909 51.6168 9.56376C51.6168 9.78776 51.6961 9.97909 51.8548 10.1378C52.0135 10.2871 52.2001 10.3618 52.4148 10.3618C52.6295 10.3618 52.8115 10.2871 52.9608 10.1378C53.1195 9.97909 53.1988 9.78776 53.1988 9.56376C53.1988 9.34909 53.1195 9.16709 52.9608 9.01776C52.8021 8.85909 52.6155 8.77976 52.4008 8.77976ZM53.5348 21.5338V11.8738H51.3788V21.5478C51.3788 21.7624 51.4815 21.9304 51.6868 22.0518C51.9015 22.1731 52.1301 22.2431 52.3728 22.2618C52.5035 22.2711 52.6388 22.2571 52.7788 22.2198C52.9188 22.1918 53.0448 22.1451 53.1568 22.0798C53.2688 22.0144 53.3575 21.9351 53.4228 21.8418C53.4975 21.7484 53.5348 21.6458 53.5348 21.5338Z" fill="white"/>
<path d="M62.0461 19.0278V12.4198C62.0461 12.1771 61.9808 11.9671 61.8501 11.7898C61.7288 11.6124 61.5421 11.5144 61.2901 11.4958C61.1408 11.4771 60.9821 11.4818 60.8141 11.5098C60.6461 11.5284 60.4688 11.5984 60.2821 11.7198C60.0955 11.8318 59.9741 11.9531 59.9181 12.0838C59.8715 12.2144 59.8481 12.2798 59.8481 12.2798C59.8481 12.2798 59.7641 12.2378 59.5961 12.1538C59.4281 12.0604 59.2088 11.9718 58.9381 11.8878C58.6768 11.8038 58.3735 11.7431 58.0281 11.7058C57.6921 11.6591 57.3561 11.6778 57.0201 11.7618C56.6468 11.8644 56.3155 12.0324 56.0261 12.2658C55.7368 12.4898 55.4895 12.7604 55.2841 13.0778C55.0881 13.3858 54.9341 13.7311 54.8221 14.1138C54.7195 14.4964 54.6681 14.8838 54.6681 15.2758C54.6681 15.7891 54.7475 16.2791 54.9061 16.7458C55.0741 17.2031 55.3075 17.6091 55.6061 17.9638C55.9141 18.3184 56.2828 18.6031 56.7121 18.8178C57.1508 19.0231 57.6361 19.1258 58.1681 19.1258C58.5695 19.1258 58.9381 19.0418 59.2741 18.8738C59.6101 18.7058 59.8855 18.4444 60.1001 18.0898C60.1001 18.0898 60.0955 18.1318 60.0861 18.2158C60.0861 18.2904 60.0861 18.3791 60.0861 18.4818C60.0861 18.5844 60.0861 18.6871 60.0861 18.7898C60.0955 18.8924 60.1001 18.9718 60.1001 19.0278H62.0461ZM59.9741 15.2058C59.9741 15.4578 59.9461 15.7098 59.8901 15.9618C59.8435 16.2044 59.7548 16.4284 59.6241 16.6338C59.5028 16.8298 59.3395 16.9931 59.1341 17.1238C58.9381 17.2451 58.6955 17.3058 58.4061 17.3058C58.1261 17.3058 57.8881 17.2451 57.6921 17.1238C57.4961 17.0024 57.3328 16.8438 57.2021 16.6478C57.0808 16.4518 56.9875 16.2324 56.9221 15.9898C56.8661 15.7471 56.8381 15.5044 56.8381 15.2618C56.8381 15.0284 56.8661 14.7904 56.9221 14.5478C56.9875 14.3051 57.0855 14.0858 57.2161 13.8898C57.3468 13.6938 57.5101 13.5351 57.7061 13.4138C57.9115 13.2924 58.1541 13.2318 58.4341 13.2318C58.7141 13.2318 58.9521 13.2924 59.1481 13.4138C59.3441 13.5258 59.5028 13.6751 59.6241 13.8618C59.7455 14.0484 59.8341 14.2584 59.8901 14.4918C59.9461 14.7251 59.9741 14.9631 59.9741 15.2058Z" fill="white"/>
<path d="M65.176 18.9998V9.12976C65.176 8.84042 65.0734 8.58842 64.868 8.37376C64.6627 8.15909 64.4107 8.05176 64.112 8.05176C63.8134 8.05176 63.5567 8.15442 63.342 8.35976C63.1274 8.56509 63.02 8.82176 63.02 9.12976V19.0138L65.176 18.9998Z" fill="white"/>
<path d="M73.3391 19.0278V12.4198C73.3391 12.1771 73.2738 11.9671 73.1431 11.7898C73.0218 11.6124 72.8351 11.5144 72.5831 11.4958C72.4338 11.4771 72.2751 11.4818 72.1071 11.5098C71.9391 11.5284 71.7618 11.5984 71.5751 11.7198C71.3884 11.8318 71.2671 11.9531 71.2111 12.0838C71.1644 12.2144 71.1411 12.2798 71.1411 12.2798C71.1411 12.2798 71.0571 12.2378 70.8891 12.1538C70.7211 12.0604 70.5018 11.9718 70.2311 11.8878C69.9698 11.8038 69.6664 11.7431 69.3211 11.7058C68.9851 11.6591 68.6491 11.6778 68.3131 11.7618C67.9398 11.8644 67.6084 12.0324 67.3191 12.2658C67.0298 12.4898 66.7824 12.7604 66.5771 13.0778C66.3811 13.3858 66.2271 13.7311 66.1151 14.1138C66.0124 14.4964 65.9611 14.8838 65.9611 15.2758C65.9611 15.7891 66.0404 16.2791 66.1991 16.7458C66.3671 17.2031 66.6004 17.6091 66.8991 17.9638C67.2071 18.3184 67.5758 18.6031 68.0051 18.8178C68.4438 19.0231 68.9291 19.1258 69.4611 19.1258C69.8624 19.1258 70.2311 19.0418 70.5671 18.8738C70.9031 18.7058 71.1784 18.4444 71.3931 18.0898C71.3931 18.0898 71.3884 18.1318 71.3791 18.2158C71.3791 18.2904 71.3791 18.3791 71.3791 18.4818C71.3791 18.5844 71.3791 18.6871 71.3791 18.7898C71.3884 18.8924 71.3931 18.9718 71.3931 19.0278H73.3391ZM71.2671 15.2058C71.2671 15.4578 71.2391 15.7098 71.1831 15.9618C71.1364 16.2044 71.0478 16.4284 70.9171 16.6338C70.7958 16.8298 70.6324 16.9931 70.4271 17.1238C70.2311 17.2451 69.9884 17.3058 69.6991 17.3058C69.4191 17.3058 69.1811 17.2451 68.9851 17.1238C68.7891 17.0024 68.6258 16.8438 68.4951 16.6478C68.3738 16.4518 68.2804 16.2324 68.2151 15.9898C68.1591 15.7471 68.1311 15.5044 68.1311 15.2618C68.1311 15.0284 68.1591 14.7904 68.2151 14.5478C68.2804 14.3051 68.3784 14.0858 68.5091 13.8898C68.6398 13.6938 68.8031 13.5351 68.9991 13.4138C69.2044 13.2924 69.4471 13.2318 69.7271 13.2318C70.0071 13.2318 70.2451 13.2924 70.4411 13.4138C70.6371 13.5258 70.7958 13.6751 70.9171 13.8618C71.0384 14.0484 71.1271 14.2584 71.1831 14.4918C71.2391 14.7251 71.2671 14.9631 71.2671 15.2058Z" fill="white"/>
<path d="M80.9849 18.0478V14.1138C80.9849 13.6938 80.9102 13.3158 80.7609 12.9798C80.6115 12.6438 80.4015 12.3591 80.1309 12.1258C79.8695 11.8831 79.5615 11.6964 79.2069 11.5658C78.8522 11.4351 78.4742 11.3698 78.0729 11.3698C77.6809 11.3698 77.3075 11.4491 76.9529 11.6078C76.5982 11.7664 76.3089 12.0091 76.0849 12.3358C76.0475 12.0838 75.9635 11.8551 75.8329 11.6498C75.7022 11.4444 75.4875 11.3418 75.1889 11.3418C75.0395 11.3418 74.8995 11.3744 74.7689 11.4398C74.6382 11.4958 74.5262 11.5751 74.4329 11.6778C74.3395 11.7804 74.2649 11.8971 74.2089 12.0278C74.1529 12.1584 74.1249 12.2984 74.1249 12.4478V18.9998H76.2809V14.4498C76.2809 14.0951 76.4022 13.7964 76.6449 13.5538C76.8875 13.3018 77.1862 13.1758 77.5409 13.1758C77.8955 13.1758 78.1989 13.3018 78.4509 13.5538C78.7029 13.8058 78.8289 14.1091 78.8289 14.4638V18.0758C78.8289 18.3744 78.9315 18.6264 79.1369 18.8318C79.3515 19.0371 79.6082 19.1398 79.9069 19.1398C80.0562 19.1398 80.1962 19.1118 80.3269 19.0558C80.4575 18.9998 80.5695 18.9251 80.6629 18.8318C80.7655 18.7291 80.8449 18.6124 80.9009 18.4818C80.9569 18.3418 80.9849 18.1971 80.9849 18.0478Z" fill="white"/>
<rect x="3" y="3" width="21" height="21" rx="10.5" fill="#2F89E3"/>
<path d="M15.7 8.89983L19.27 9.37983L16.33 12.3198L15.7 8.89983ZM11.5001 18.4998L7.93009 18.0198L10.8701 15.0798L11.5001 18.4998ZM8.80008 11.5998L9.28008 8.02984L12.2201 10.9698L8.80008 11.5998Z" fill="white"/>
<path d="M9.18989 12.86L7.9299 13.1C7.8999 13.31 7.8999 13.49 7.8999 13.7C7.8999 15.0799 8.3799 16.3999 9.27989 17.4199L10.1799 16.6399C9.48989 15.8299 9.09989 14.7799 9.09989 13.7C9.09989 13.43 9.12989 13.13 9.18989 12.86ZM13.5999 8C11.9799 8 10.5399 8.68999 9.48989 9.76998L10.3299 10.61C11.1699 9.73998 12.3099 9.19999 13.5999 9.19999C13.8699 9.19999 14.1698 9.22999 14.4398 9.28999L14.6498 8.12C14.3198 8.03 13.9599 8 13.5999 8ZM18.0098 14.5399L19.2698 14.2999C19.2998 14.0899 19.2998 13.9099 19.2998 13.7C19.2998 12.38 18.8498 11.09 18.0098 10.07L17.0798 10.82C17.7398 11.63 18.0998 12.65 18.0998 13.67C18.0998 13.9699 18.0698 14.2699 18.0098 14.5399ZM16.8698 16.7899C16.0298 17.6599 14.8898 18.1999 13.5999 18.1999C13.3299 18.1999 13.0299 18.1699 12.7599 18.1099L12.5499 19.2799C12.9099 19.3399 13.2699 19.3699 13.5999 19.3699C15.2198 19.3699 16.6598 18.6799 17.7098 17.5999L16.8698 16.7899Z" fill="#EEEEEE"/>
</svg>
