<svg width="96" height="27" viewBox="0 0 96 27" fill="none" xmlns="http://www.w3.org/2000/svg">
<rect width="96" height="27" rx="13.5" fill="#7C4E96"/>
<path d="M35.9721 9.91404C35.9721 9.64337 35.8788 9.41004 35.6921 9.21404C35.5054 9.01804 35.2721 8.92004 34.9921 8.92004H28.9861L29.0001 10.866H31.2121V18.006C31.2121 18.3047 31.3194 18.566 31.5341 18.79C31.7581 19.0047 32.0194 19.112 32.3181 19.112C32.6261 19.112 32.8874 19.0047 33.1021 18.79C33.3168 18.5754 33.4241 18.314 33.4241 18.006V10.866H34.9921C35.2534 10.866 35.4821 10.7774 35.6781 10.6C35.8741 10.4134 35.9721 10.1847 35.9721 9.91404Z" fill="white"/>
<path d="M41.6613 14.968C41.6613 14.4827 41.5633 14.0254 41.3673 13.596C41.1713 13.1574 40.91 12.7747 40.5833 12.448C40.2567 12.1214 39.874 11.8647 39.4353 11.678C38.9967 11.482 38.5393 11.384 38.0633 11.384C37.522 11.384 37.018 11.4867 36.5513 11.692C36.094 11.888 35.6927 12.1587 35.3473 12.504C35.0113 12.8494 34.7453 13.2554 34.5493 13.722C34.3627 14.1887 34.2693 14.6927 34.2693 15.234C34.2693 15.822 34.372 16.354 34.5773 16.83C34.7827 17.306 35.0673 17.7167 35.4313 18.062C35.7953 18.398 36.22 18.6594 36.7053 18.846C37.2 19.0327 37.732 19.126 38.3013 19.126C38.656 19.126 38.992 19.0934 39.3093 19.028C39.636 18.972 39.9627 18.8787 40.2893 18.748L39.9953 17.096C39.7433 17.152 39.4867 17.208 39.2253 17.264C38.9733 17.3107 38.7213 17.334 38.4693 17.334C37.9933 17.334 37.5827 17.1987 37.2373 16.928C36.892 16.6574 36.668 16.298 36.5653 15.85H40.6533C40.98 15.85 41.2273 15.794 41.3953 15.682C41.5727 15.5607 41.6613 15.3227 41.6613 14.968ZM36.5653 14.632C36.5933 14.4267 36.64 14.2307 36.7053 14.044C36.78 13.848 36.8733 13.6754 36.9853 13.526C37.1067 13.3767 37.2513 13.26 37.4193 13.176C37.5967 13.0827 37.802 13.036 38.0353 13.036C38.25 13.036 38.4413 13.0827 38.6093 13.176C38.7773 13.2694 38.9173 13.3907 39.0293 13.54C39.1507 13.6894 39.244 13.862 39.3093 14.058C39.384 14.2447 39.426 14.436 39.4353 14.632H36.5653Z" fill="white"/>
<path d="M46.9118 12.42C46.9118 12.1867 46.8324 11.986 46.6738 11.818C46.5244 11.65 46.3424 11.552 46.1278 11.524C45.9411 11.5054 45.7451 11.5427 45.5398 11.636C45.3344 11.7294 45.1524 11.8274 44.9938 11.93C44.7978 12.0607 44.6111 12.2147 44.4338 12.392C44.2564 12.56 44.1211 12.7 44.0278 12.812C43.9344 12.9147 43.8831 12.9754 43.8738 12.994C43.8178 12.8354 43.7478 12.6767 43.6638 12.518C43.5891 12.35 43.5004 12.2054 43.3978 12.084C43.2951 11.9627 43.1831 11.8834 43.0618 11.846C42.9404 11.7994 42.8144 11.8227 42.6838 11.916C42.5811 11.9907 42.4971 12.07 42.4318 12.154C42.3664 12.2287 42.3338 12.3314 42.3338 12.462V19.028L44.4898 19.014V15.626C44.4898 15.4114 44.4991 15.2107 44.5178 15.024C44.5364 14.828 44.5878 14.6507 44.6718 14.492C44.7744 14.296 44.9004 14.1374 45.0498 14.016C45.1991 13.8854 45.3578 13.778 45.5258 13.694C45.6938 13.6007 45.8571 13.5214 46.0158 13.456C46.1838 13.3907 46.3331 13.316 46.4638 13.232C46.5944 13.1387 46.7018 13.0314 46.7858 12.91C46.8698 12.7794 46.9118 12.616 46.9118 12.42Z" fill="white"/>
<path d="M52.6406 12.392C52.6406 12.196 52.5986 12.042 52.5146 11.93C52.4306 11.8087 52.3233 11.7154 52.1926 11.65C52.0619 11.5754 51.9173 11.5287 51.7586 11.51C51.5999 11.482 51.4459 11.468 51.2966 11.468V10.32C51.2966 10.0214 51.1893 9.76004 50.9746 9.53604C50.7693 9.31204 50.5173 9.20004 50.2186 9.20004C49.9199 9.20004 49.6633 9.31204 49.4486 9.53604C49.2433 9.75071 49.1406 10.0074 49.1406 10.306V11.482C48.9913 11.482 48.8373 11.496 48.6786 11.524C48.5293 11.5427 48.3893 11.5847 48.2586 11.65C48.1373 11.7154 48.0346 11.8087 47.9506 11.93C47.8666 12.042 47.8246 12.1914 47.8246 12.378C47.8246 12.5647 47.8666 12.7187 47.9506 12.84C48.0346 12.952 48.1419 13.0407 48.2726 13.106C48.4033 13.1714 48.5433 13.218 48.6926 13.246C48.8513 13.274 49.0053 13.288 49.1546 13.288V19H51.2966V13.302C51.4459 13.302 51.5999 13.2927 51.7586 13.274C51.9173 13.246 52.0619 13.1994 52.1926 13.134C52.3233 13.0594 52.4306 12.966 52.5146 12.854C52.5986 12.7327 52.6406 12.5787 52.6406 12.392Z" fill="white"/>
<path d="M60.4529 15.906V12.462C60.4529 12.1634 60.3456 11.9114 60.1309 11.706C59.9256 11.4914 59.6736 11.384 59.3749 11.384C59.2256 11.384 59.0856 11.412 58.9549 11.468C58.8243 11.524 58.7076 11.6034 58.6049 11.706C58.5116 11.7994 58.4369 11.916 58.3809 12.056C58.3249 12.1867 58.2969 12.3267 58.2969 12.476V15.892C58.2969 16.312 58.1943 16.6434 57.9889 16.886C57.7836 17.1287 57.4663 17.25 57.0369 17.25C56.5983 17.25 56.2763 17.1287 56.0709 16.886C55.8656 16.634 55.7629 16.3027 55.7629 15.892V11.58H53.6069V15.92C53.6069 17.0214 53.9103 17.8334 54.5169 18.356C55.1236 18.8787 55.9636 19.14 57.0369 19.14C58.1103 19.14 58.9456 18.8787 59.5429 18.356C60.1496 17.8334 60.4529 17.0167 60.4529 15.906Z" fill="white"/>
<path d="M68.1225 18.048V14.114C68.1225 13.694 68.0479 13.316 67.8985 12.98C67.7492 12.644 67.5392 12.3594 67.2685 12.126C67.0072 11.8834 66.6992 11.6967 66.3445 11.566C65.9899 11.4354 65.6119 11.37 65.2105 11.37C64.8185 11.37 64.4452 11.4494 64.0905 11.608C63.7359 11.7667 63.4465 12.0094 63.2225 12.336C63.1852 12.084 63.1012 11.8554 62.9705 11.65C62.8399 11.4447 62.6252 11.342 62.3265 11.342C62.1772 11.342 62.0372 11.3747 61.9065 11.44C61.7759 11.496 61.6639 11.5754 61.5705 11.678C61.4772 11.7807 61.4025 11.8974 61.3465 12.028C61.2905 12.1587 61.2625 12.2987 61.2625 12.448V19H63.4185V14.45C63.4185 14.0954 63.5399 13.7967 63.7825 13.554C64.0252 13.302 64.3239 13.176 64.6785 13.176C65.0332 13.176 65.3365 13.302 65.5885 13.554C65.8405 13.806 65.9665 14.1094 65.9665 14.464V18.076C65.9665 18.3747 66.0692 18.6267 66.2745 18.832C66.4892 19.0374 66.7459 19.14 67.0445 19.14C67.1939 19.14 67.3339 19.112 67.4645 19.056C67.5952 19 67.7072 18.9254 67.8005 18.832C67.9032 18.7294 67.9825 18.6127 68.0385 18.482C68.0945 18.342 68.1225 18.1974 68.1225 18.048Z" fill="white"/>
<path d="M76.4273 18.02V8.29004H74.2713V12.07C73.7953 11.594 73.2119 11.356 72.5213 11.356C71.9893 11.356 71.5086 11.4634 71.0793 11.678C70.6499 11.8834 70.2859 12.168 69.9873 12.532C69.6886 12.8867 69.4553 13.2974 69.2873 13.764C69.1286 14.2214 69.0493 14.702 69.0493 15.206C69.0493 15.6914 69.1286 16.1674 69.2873 16.634C69.4459 17.1007 69.6699 17.5207 69.9593 17.894C70.2579 18.258 70.6173 18.552 71.0373 18.776C71.4573 19 71.9286 19.112 72.4513 19.112C72.8526 19.112 73.2306 19.028 73.5853 18.86C73.9493 18.692 74.2526 18.4447 74.4953 18.118C74.5139 18.37 74.5839 18.6034 74.7053 18.818C74.8359 19.0234 75.0553 19.126 75.3633 19.126C75.6899 19.126 75.9466 19.0234 76.1333 18.818C76.3293 18.6127 76.4273 18.3467 76.4273 18.02ZM74.3273 15.36C74.3273 15.6027 74.2946 15.836 74.2293 16.06C74.1639 16.284 74.0659 16.4847 73.9353 16.662C73.8139 16.83 73.6506 16.97 73.4453 17.082C73.2493 17.1847 73.0206 17.236 72.7593 17.236C72.4886 17.236 72.2553 17.1754 72.0593 17.054C71.8633 16.9327 71.6999 16.7787 71.5693 16.592C71.4479 16.4054 71.3546 16.1954 71.2893 15.962C71.2333 15.7194 71.2053 15.4767 71.2053 15.234C71.2053 15.0007 71.2379 14.7674 71.3033 14.534C71.3686 14.3007 71.4666 14.0907 71.5973 13.904C71.7279 13.7174 71.8913 13.568 72.0873 13.456C72.2833 13.3347 72.5166 13.274 72.7873 13.274C73.0766 13.274 73.3193 13.3394 73.5153 13.47C73.7206 13.5914 73.8793 13.75 73.9913 13.946C74.1126 14.142 74.1966 14.366 74.2433 14.618C74.2993 14.8607 74.3273 15.108 74.3273 15.36Z" fill="white"/>
<path d="M84.6487 19.028V12.42C84.6487 12.1774 84.5833 11.9674 84.4527 11.79C84.3313 11.6127 84.1447 11.5147 83.8927 11.496C83.7433 11.4774 83.5847 11.482 83.4167 11.51C83.2487 11.5287 83.0713 11.5987 82.8847 11.72C82.698 11.832 82.5767 11.9534 82.5207 12.084C82.474 12.2147 82.4507 12.28 82.4507 12.28C82.4507 12.28 82.3667 12.238 82.1987 12.154C82.0307 12.0607 81.8113 11.972 81.5407 11.888C81.2793 11.804 80.976 11.7434 80.6307 11.706C80.2947 11.6594 79.9587 11.678 79.6227 11.762C79.2493 11.8647 78.918 12.0327 78.6287 12.266C78.3393 12.49 78.092 12.7607 77.8867 13.078C77.6907 13.386 77.5367 13.7314 77.4247 14.114C77.322 14.4967 77.2707 14.884 77.2707 15.276C77.2707 15.7894 77.35 16.2794 77.5087 16.746C77.6767 17.2034 77.91 17.6094 78.2087 17.964C78.5167 18.3187 78.8853 18.6034 79.3147 18.818C79.7533 19.0234 80.2387 19.126 80.7707 19.126C81.172 19.126 81.5407 19.042 81.8767 18.874C82.2127 18.706 82.488 18.4447 82.7027 18.09C82.7027 18.09 82.698 18.132 82.6887 18.216C82.6887 18.2907 82.6887 18.3794 82.6887 18.482C82.6887 18.5847 82.6887 18.6874 82.6887 18.79C82.698 18.8927 82.7027 18.972 82.7027 19.028H84.6487ZM82.5767 15.206C82.5767 15.458 82.5487 15.71 82.4927 15.962C82.446 16.2047 82.3573 16.4287 82.2267 16.634C82.1053 16.83 81.942 16.9934 81.7367 17.124C81.5407 17.2454 81.298 17.306 81.0087 17.306C80.7287 17.306 80.4907 17.2454 80.2947 17.124C80.0987 17.0027 79.9353 16.844 79.8047 16.648C79.6833 16.452 79.59 16.2327 79.5247 15.99C79.4687 15.7474 79.4407 15.5047 79.4407 15.262C79.4407 15.0287 79.4687 14.7907 79.5247 14.548C79.59 14.3054 79.688 14.086 79.8187 13.89C79.9493 13.694 80.1127 13.5354 80.3087 13.414C80.514 13.2927 80.7567 13.232 81.0367 13.232C81.3167 13.232 81.5547 13.2927 81.7507 13.414C81.9467 13.526 82.1053 13.6754 82.2267 13.862C82.348 14.0487 82.4367 14.2587 82.4927 14.492C82.5487 14.7254 82.5767 14.9634 82.5767 15.206Z" fill="white"/>
<rect x="3" y="3" width="21" height="21" rx="10.5" fill="#6E4287"/>
<path d="M13.5 8.5C16.3998 8.5 18.75 10.8502 18.75 13.75C18.75 16.6498 16.3998 19 13.5 19C12.3864 19 11.3508 18.6514 10.4997 18.0587C10.2023 17.8331 10.1293 17.4414 10.3377 17.144C10.5448 16.8467 10.9529 16.7749 11.2503 16.982C11.8881 17.4271 12.6633 17.6875 13.5 17.6875C15.6738 17.6875 17.4375 15.9238 17.4375 13.75C17.4375 11.5577 15.6738 9.8125 13.5 9.8125C12.3946 9.8125 11.4287 10.2526 10.715 10.965L11.3467 11.5967C11.6563 11.9063 11.4369 12.4375 11.0001 12.4375H8.74219C8.47046 12.4375 8.25 12.2181 8.25 11.9453V9.68822C8.25 9.24977 8.78013 9.03013 9.09021 9.34021L9.78768 10.0377C10.7376 9.08837 12.0501 8.5 13.4815 8.5H13.5ZM13.5 11.125C13.7728 11.125 13.9922 11.3444 13.9922 11.6172V13.547L15.3067 14.8779C15.5159 15.0707 15.5159 15.3824 15.3067 15.5567C15.1324 15.7659 14.8207 15.7659 14.6279 15.5567L13.1514 14.0802C13.0591 14.0063 13.0078 13.8812 13.0078 13.75V11.6172C13.0078 11.3444 13.2272 11.125 13.5 11.125Z" fill="#EEEEEE"/>
</svg>
