<svg width="1060" height="250" viewBox="0 0 1060 250" fill="none" xmlns="http://www.w3.org/2000/svg">
<rect y="61" width="1060" height="189" rx="10" fill="url(#paint0_linear_3028_6812)"/>
<path d="M919.242 207.743C972.431 207.743 1015.55 206.475 1015.55 204.91C1015.55 203.345 972.431 202.076 919.242 202.076C866.052 202.076 822.934 203.345 822.934 204.91C822.934 206.475 866.052 207.743 919.242 207.743Z" fill="#F5F8FF"/>
<path d="M932.402 203.764H867.012C861.708 203.764 858.138 199.464 859.037 194.161L885.373 38.8453C886.272 33.5412 891.301 29.2415 896.605 29.2415H961.994C967.298 29.2415 970.869 33.5412 969.969 38.8453L943.634 194.161C942.735 199.464 937.706 203.764 932.402 203.764Z" fill="#5CA4E6"/>
<path d="M924.234 203.764H858.845C853.541 203.764 849.97 199.464 850.87 194.161L877.205 38.8453C878.104 33.5412 883.133 29.2415 888.437 29.2415H953.827C959.131 29.2415 962.701 33.5412 961.802 38.8453L935.466 194.161C934.567 199.464 929.538 203.764 924.234 203.764Z" fill="#D1E8F7"/>
<path d="M924.611 198.572H860.23C857.476 198.572 855.622 196.339 856.089 193.585L882.23 39.4207C882.697 36.6666 885.308 34.4341 888.062 34.4341H952.442C955.196 34.4341 957.05 36.6666 956.583 39.4207L930.443 193.585C929.976 196.339 927.365 198.572 924.611 198.572Z" fill="white"/>
<path d="M930.704 86.3768H869.146L875.561 50.9326C875.982 48.7715 878.074 47.0195 880.235 47.0195H938.359C940.52 47.0195 941.931 48.7715 941.511 50.9326L935.378 82.464C934.958 84.6248 932.865 86.3768 930.704 86.3768Z" fill="url(#paint1_linear_3028_6812)"/>
<path d="M925.742 81.8163H833.585C831.424 81.8163 830.013 80.0643 830.433 77.9032L836.566 46.3718C836.986 44.2107 839.079 42.4587 841.24 42.4587H933.397C935.558 42.4587 936.969 44.2107 936.549 46.3718L930.416 77.9032C929.996 80.0643 927.903 81.8163 925.742 81.8163Z" fill="#FEBB94"/>
<path d="M919.863 194.552L862.705 194.824C860.544 194.824 859.133 193.072 859.553 190.911L865.686 159.38C866.106 157.218 868.198 155.466 870.36 155.466L927.517 155.195C929.679 155.195 931.09 156.947 930.669 159.108L924.537 190.64C924.117 192.8 922.024 194.552 919.863 194.552Z" fill="#FEBB94"/>
<path d="M868.991 185.004C870.617 172.283 882.704 161.971 895.987 161.971C909.271 161.971 918.72 172.283 917.094 185.004" stroke="#FF967C" stroke-width="4.48315" stroke-miterlimit="10" stroke-linecap="round"/>
<path d="M868.991 185.004C870.617 172.283 882.704 161.971 895.987 161.971C902.562 161.971 908.197 164.497 912.015 168.591" stroke="white" stroke-width="4.48315" stroke-miterlimit="10" stroke-linecap="round"/>
<path d="M913.028 150.737H872.101C869.917 150.737 868.44 148.966 868.803 146.782L877.447 94.7906C877.81 92.6061 879.875 90.8354 882.06 90.8354H922.986C925.171 90.8354 926.647 92.6061 926.284 94.7906L917.64 146.782C917.277 148.966 915.212 150.737 913.028 150.737Z" fill="url(#paint2_linear_3028_6812)"/>
<path d="M884.704 118.328H879.124C878.817 118.339 878.522 118.453 878.289 118.653C878.056 118.853 877.898 119.127 877.841 119.428L874.81 137.658C874.781 137.793 874.783 137.933 874.816 138.067C874.849 138.201 874.912 138.326 875 138.432C875.089 138.538 875.2 138.623 875.326 138.679C875.452 138.735 875.59 138.762 875.727 138.758H881.307C881.615 138.747 881.909 138.633 882.142 138.433C882.375 138.233 882.533 137.96 882.59 137.658L885.621 119.428C885.65 119.294 885.648 119.154 885.616 119.02C885.583 118.885 885.52 118.76 885.431 118.654C885.343 118.548 885.231 118.464 885.105 118.407C884.979 118.351 884.842 118.324 884.704 118.328Z" fill="white"/>
<path d="M894.885 124.566H889.305C888.998 124.576 888.703 124.691 888.47 124.891C888.237 125.091 888.079 125.364 888.022 125.666L886.028 137.658C885.999 137.793 886.001 137.933 886.033 138.067C886.066 138.201 886.129 138.326 886.218 138.432C886.306 138.538 886.418 138.623 886.544 138.679C886.67 138.736 886.807 138.763 886.945 138.758H892.525C892.832 138.748 893.127 138.633 893.36 138.433C893.593 138.233 893.751 137.96 893.808 137.658L895.802 125.666C895.831 125.531 895.829 125.391 895.797 125.257C895.763 125.123 895.7 124.998 895.612 124.892C895.524 124.786 895.412 124.701 895.286 124.645C895.16 124.588 895.023 124.561 894.885 124.566Z" fill="white"/>
<path d="M908.362 107.017H902.782C902.475 107.027 902.181 107.141 901.948 107.341C901.714 107.541 901.556 107.815 901.499 108.116L896.588 137.658C896.559 137.793 896.56 137.933 896.594 138.067C896.626 138.201 896.689 138.325 896.778 138.432C896.866 138.538 896.978 138.622 897.104 138.679C897.23 138.735 897.367 138.762 897.505 138.758H903.085C903.392 138.747 903.686 138.633 903.92 138.433C904.153 138.233 904.311 137.959 904.368 137.658L909.279 108.116C909.309 107.982 909.307 107.842 909.274 107.708C909.241 107.573 909.178 107.449 909.09 107.343C909.001 107.236 908.89 107.152 908.763 107.095C908.638 107.039 908.5 107.012 908.362 107.017Z" fill="white"/>
<path d="M917.965 114.675H912.385C912.078 114.685 911.783 114.799 911.55 114.999C911.317 115.199 911.159 115.473 911.102 115.774L907.464 137.658C907.434 137.793 907.436 137.933 907.469 138.067C907.502 138.201 907.565 138.326 907.653 138.432C907.742 138.538 907.853 138.623 907.979 138.679C908.105 138.736 908.243 138.762 908.381 138.758H913.961C914.268 138.748 914.562 138.633 914.795 138.433C915.028 138.233 915.187 137.96 915.244 137.658L918.882 115.774C918.911 115.64 918.909 115.5 918.876 115.365C918.844 115.231 918.78 115.107 918.692 115C918.603 114.894 918.492 114.81 918.366 114.753C918.24 114.697 918.103 114.67 917.965 114.675Z" fill="white"/>
<path d="M881.531 97.2312H896.639" stroke="white" stroke-width="2.71364" stroke-miterlimit="10" stroke-linecap="round"/>
<path d="M880.679 102.361H888.233" stroke="white" stroke-width="2.71364" stroke-miterlimit="10" stroke-linecap="round"/>
<path opacity="0.6" d="M876.439 142.473H879.361" stroke="white" stroke-width="1.62818" stroke-miterlimit="10" stroke-linecap="round"/>
<path opacity="0.6" d="M887.657 142.473H890.579" stroke="white" stroke-width="1.62818" stroke-miterlimit="10" stroke-linecap="round"/>
<path opacity="0.6" d="M898.217 142.473H901.139" stroke="white" stroke-width="1.62818" stroke-miterlimit="10" stroke-linecap="round"/>
<path opacity="0.6" d="M909.092 142.473H912.014" stroke="white" stroke-width="1.62818" stroke-miterlimit="10" stroke-linecap="round"/>
<path d="M966.712 150.737H925.785C923.601 150.737 922.124 148.966 922.488 146.782L931.131 94.7906C931.494 92.6061 933.559 90.8354 935.744 90.8354H976.67C978.855 90.8354 980.331 92.6061 979.968 94.7906L971.325 146.782C970.961 148.966 968.896 150.737 966.712 150.737Z" fill="url(#paint3_linear_3028_6812)"/>
<path d="M937.328 126.167H931.748C931.441 126.177 931.146 126.292 930.913 126.492C930.68 126.692 930.522 126.965 930.465 127.267L928.494 137.658C928.465 137.793 928.467 137.933 928.5 138.067C928.533 138.201 928.596 138.326 928.684 138.432C928.773 138.539 928.884 138.623 929.01 138.68C929.136 138.736 929.273 138.763 929.412 138.758H934.992C935.298 138.748 935.593 138.633 935.826 138.433C936.059 138.233 936.217 137.96 936.274 137.658L938.245 127.267C938.274 127.132 938.272 126.992 938.24 126.858C938.207 126.724 938.143 126.599 938.055 126.493C937.967 126.387 937.855 126.302 937.729 126.245C937.603 126.189 937.466 126.162 937.328 126.167Z" fill="white"/>
<path d="M950.676 110.075H945.096C944.79 110.085 944.495 110.2 944.262 110.4C944.029 110.6 943.871 110.873 943.814 111.175L939.713 137.658C939.683 137.793 939.685 137.933 939.718 138.067C939.751 138.201 939.814 138.326 939.902 138.432C939.991 138.538 940.102 138.623 940.228 138.679C940.354 138.736 940.492 138.763 940.63 138.758H946.21C946.517 138.748 946.811 138.633 947.044 138.433C947.277 138.233 947.436 137.96 947.493 137.658L951.594 111.175C951.623 111.04 951.621 110.9 951.588 110.766C951.555 110.632 951.492 110.507 951.404 110.401C951.316 110.295 951.204 110.21 951.078 110.154C950.952 110.097 950.815 110.07 950.676 110.075Z" fill="white"/>
<path d="M960.2 117.636H954.62C954.313 117.647 954.019 117.761 953.785 117.961C953.552 118.161 953.394 118.434 953.337 118.736L950.272 137.658C950.243 137.793 950.245 137.933 950.278 138.067C950.31 138.201 950.374 138.326 950.462 138.432C950.551 138.538 950.662 138.623 950.788 138.679C950.914 138.736 951.051 138.762 951.189 138.758H956.769C957.076 138.748 957.371 138.633 957.604 138.433C957.837 138.233 957.995 137.96 958.052 137.658L961.117 118.736C961.147 118.601 961.145 118.461 961.112 118.327C961.079 118.193 961.016 118.068 960.928 117.962C960.839 117.856 960.728 117.771 960.601 117.715C960.475 117.659 960.338 117.632 960.2 117.636Z" fill="white"/>
<path d="M971.649 114.675H966.069C965.762 114.685 965.467 114.799 965.234 114.999C965.001 115.199 964.843 115.473 964.786 115.774L961.148 137.658C961.118 137.793 961.12 137.933 961.153 138.067C961.186 138.201 961.249 138.326 961.338 138.432C961.426 138.538 961.538 138.623 961.663 138.679C961.79 138.736 961.927 138.762 962.065 138.758H967.645C967.952 138.748 968.246 138.633 968.479 138.433C968.712 138.233 968.871 137.96 968.928 137.658L972.566 115.774C972.595 115.64 972.593 115.5 972.561 115.365C972.527 115.231 972.465 115.107 972.376 115C972.288 114.894 972.176 114.81 972.05 114.753C971.924 114.697 971.787 114.67 971.649 114.675Z" fill="white"/>
<path d="M935.215 97.2312H950.323" stroke="white" stroke-width="2.71364" stroke-miterlimit="10" stroke-linecap="round"/>
<path d="M934.363 102.361H941.917" stroke="white" stroke-width="2.71364" stroke-miterlimit="10" stroke-linecap="round"/>
<path opacity="0.6" d="M930.123 142.473H933.045" stroke="white" stroke-width="1.62818" stroke-miterlimit="10" stroke-linecap="round"/>
<path opacity="0.6" d="M941.341 142.473H944.263" stroke="white" stroke-width="1.62818" stroke-miterlimit="10" stroke-linecap="round"/>
<path opacity="0.6" d="M951.901 142.473H954.823" stroke="white" stroke-width="1.62818" stroke-miterlimit="10" stroke-linecap="round"/>
<path opacity="0.6" d="M962.776 142.473H965.698" stroke="white" stroke-width="1.62818" stroke-miterlimit="10" stroke-linecap="round"/>
<path d="M792.992 209.167L804.613 233.478L803.172 234.167C802.686 234.4 802.127 234.43 801.619 234.25C801.11 234.071 800.694 233.696 800.462 233.21L790.593 212.566C790.361 212.08 790.331 211.521 790.51 211.013C790.69 210.504 791.064 210.088 791.551 209.855L792.992 209.167Z" fill="#71C8EA"/>
<path d="M805.644 203.677L797.624 206.992L802.124 213.355L809.234 211.186L805.644 203.677Z" fill="#FFCCB3"/>
<path d="M800.522 207.246C800.522 207.246 803.653 212.083 804.125 214.785C804.598 217.487 806.215 231.157 805.78 232.389C805.467 233.275 804.331 233.655 803.61 233.736C803.451 233.752 803.292 233.72 803.153 233.642C803.015 233.564 802.903 233.445 802.835 233.301L792.286 211.232C792.11 210.864 792.085 210.442 792.217 210.055C792.349 209.669 792.627 209.35 792.992 209.167C794.452 208.433 796.684 207.335 797.624 206.992C799.077 206.464 800.036 206.467 800.522 207.246Z" fill="#5661AE"/>
<path d="M857.298 218.817L846.399 238.936C846.142 239.41 845.708 239.762 845.191 239.916C844.674 240.069 844.118 240.012 843.644 239.755L842.239 238.994L855.074 215.3L856.479 216.061C856.953 216.318 857.305 216.752 857.459 217.269C857.613 217.786 857.555 218.343 857.298 218.817Z" fill="#71C8EA"/>
<path d="M842.715 209.178L850.558 212.895L845.743 219.022L838.751 216.496L842.715 209.178Z" fill="#FFCCB3"/>
<path d="M847.652 213.002C847.652 213.002 844.28 217.673 843.671 220.349C843.063 223.024 840.757 236.594 841.129 237.847C841.397 238.747 842.513 239.184 843.229 239.301C843.386 239.326 843.547 239.301 843.689 239.23C843.832 239.159 843.949 239.046 844.024 238.906L855.675 217.399C855.87 217.04 855.916 216.619 855.804 216.226C855.691 215.834 855.429 215.501 855.074 215.3C853.654 214.494 851.479 213.284 850.558 212.894C849.134 212.293 848.176 212.248 847.652 213.002Z" fill="#5661AE"/>
<path d="M866.343 180.518C866.343 180.518 869.345 195.428 867.015 198.349L807.645 213.552L802.582 204.068L837.252 188.336L844.195 178.819L866.343 180.518Z" fill="#D1E8F7"/>
<path d="M851.319 191.157L838.22 195.538L832.107 198.101L840.056 205.253L832.95 206.858L813.566 191.157H851.319Z" fill="#5CA4E6"/>
<path d="M806.302 202.825L806.705 204.225L815.91 211.41L824.556 209.3C824.556 209.3 807.876 201.362 806.302 202.825Z" fill="#5CA4E6"/>
<path d="M822.965 179.648C822.965 179.648 806.178 178.737 797.856 179.469C792.498 179.94 790.567 193.651 794.843 196.145L840.732 219.642L846.14 209.87L816.537 189.832L837.715 186.853L822.965 179.648Z" fill="#D1E8F7"/>
<path d="M799.268 197.314C804.226 197.314 808.245 193.294 808.245 188.336C808.245 183.379 804.226 179.359 799.268 179.359C794.31 179.359 790.291 183.379 790.291 188.336C790.291 193.294 794.31 197.314 799.268 197.314Z" fill="#D1E8F7"/>
<path d="M865.524 198.473C870.481 198.473 874.501 194.454 874.501 189.496C874.501 184.538 870.481 180.519 865.524 180.519C860.566 180.519 856.546 184.538 856.546 189.496C856.546 194.454 860.566 198.473 865.524 198.473Z" fill="#D1E8F7"/>
<path d="M840.932 147.134C839.987 142.465 842.211 142.586 842.951 141.843C842.951 141.843 845.728 139.554 847.844 141.688C850.083 143.946 862.921 161.484 862.921 161.484L854.888 168.872L853.379 167.07L849.467 162.405L845.284 157.42L844.764 156.853L839.121 150.461C839.121 150.461 841.467 149.592 840.932 147.134Z" fill="#5661AE"/>
<path d="M845.387 151.823C848.62 150.74 850.363 147.242 849.28 144.009C848.198 140.776 844.699 139.033 841.466 140.116C838.233 141.199 836.49 144.697 837.573 147.93C838.656 151.163 842.155 152.906 845.387 151.823Z" fill="#5661AE"/>
<path d="M844.838 156.827C844.676 155.851 844.352 153.9 844.004 152.121L842.15 143.512C842.15 143.512 847.128 150.869 849.421 155.993C851.119 159.833 853.089 163.747 853.415 167.057L849.504 162.393L845.321 157.407L844.838 156.827Z" fill="#465393"/>
<path d="M870.944 141.739C872.853 138.258 871.936 137.667 872.748 135.686C873.548 133.753 872.127 128.961 873.487 129.615C874.847 130.268 875.268 132.005 875.268 132.005C876.198 130.359 877.054 127.332 879.28 126.986C881.507 126.64 881.704 127.34 882.965 128.376C886.323 131.169 882.042 135.367 881.327 136.965C880.868 137.967 877.49 141.022 877.116 141.689L875.416 144.156L870.944 141.739Z" fill="#FFCCB3"/>
<path d="M877.503 132.219L880.216 127.211L877.503 132.219Z" fill="#E56441"/>
<path d="M877.503 132.219L880.216 127.211" stroke="#E56441" stroke-width="0.256889" stroke-linecap="round"/>
<path d="M879.28 133.03L882.237 128.365L879.28 133.03Z" fill="#E56441"/>
<path d="M879.28 133.03L882.237 128.365" stroke="#E56441" stroke-width="0.256889" stroke-linecap="round"/>
<path d="M881.392 133.927L883.082 131.103L881.392 133.927Z" fill="#E56441"/>
<path d="M881.392 133.927L883.082 131.103" stroke="#E56441" stroke-width="0.256889" stroke-linecap="round"/>
<path d="M876.833 136.629C876.819 134.895 875.778 132.796 875.778 132.796L876.833 136.629Z" fill="#E56441"/>
<path d="M876.833 136.629C876.819 134.895 875.778 132.796 875.778 132.796" stroke="#E56441" stroke-width="0.256889" stroke-linecap="round"/>
<path d="M854.82 161.344L871.155 139.592C871.258 139.464 871.406 139.379 871.569 139.354C871.732 139.328 871.899 139.364 872.036 139.454L876.314 142.283C876.517 142.421 876.662 142.629 876.72 142.867C876.778 143.106 876.746 143.358 876.629 143.574L863.493 167.798L854.82 161.344Z" fill="#5661AE"/>
<path d="M858.789 170.532C861.81 170.532 864.259 168.083 864.259 165.062C864.259 162.041 861.81 159.592 858.789 159.592C855.768 159.592 853.319 162.041 853.319 165.062C853.319 168.083 855.768 170.532 858.789 170.532Z" fill="#5661AE"/>
<path d="M834.533 137.035C834.533 137.035 843.699 139.461 845.273 140.09C846.846 140.72 846.951 143.237 847.056 145.021C847.161 146.804 846.808 186.854 846.808 186.854L826.522 186.074L811.352 177.194C811.352 177.194 812.011 145.415 812.221 143.947C812.431 142.478 810.782 141.214 812.569 140.474L824.056 137.44L834.533 137.035Z" fill="#5661AE"/>
<path d="M819.268 151.302L819.431 180.893L810.71 171.172L814.929 150.381L819.268 151.302Z" fill="#465393"/>
<path d="M822.56 137.892C822.56 137.892 821.262 140.501 822.56 142.302C823.857 144.102 829.052 145.851 832.601 145.799C836.15 145.748 838.031 142.364 836.422 137.627L830.544 135.975L824.056 137.439L822.56 137.892Z" fill="#465393"/>
<path d="M837.252 115.4C837.252 115.4 839.808 120.915 837.082 122.055C834.356 123.194 834.674 115.668 837.252 115.4Z" fill="#93523E"/>
<path d="M834.369 133.047L835.108 141.385C835.108 141.385 835.817 142.502 833.057 143.089C831.281 143.467 826.499 141.583 825.571 141.017C825.177 140.808 824.867 140.468 824.697 140.055C824.527 139.642 824.505 139.183 824.637 138.756C824.919 137.736 826.088 129.236 826.088 129.236L834.369 133.047Z" fill="#FFCCB3"/>
<path d="M834.512 134.654L830.107 132.478L835.018 140.357L834.512 134.654Z" fill="#FF967C"/>
<path d="M835.784 116.996C835.784 116.996 838.37 123.479 839.307 128.027C840.253 132.615 838.744 133.761 836.752 134.436C835.181 134.968 832.673 135.393 830.966 134.858C827.855 133.884 824.811 131.073 824.082 130.495C822.955 129.601 821.842 125.545 823.494 123.251C825.147 120.956 831.657 113.745 835.784 116.996Z" fill="#FFCCB3"/>
<path d="M832.456 125.944C832.8 125.809 832.912 125.274 832.705 124.749C832.499 124.224 832.053 123.909 831.709 124.044C831.365 124.179 831.254 124.714 831.46 125.239C831.667 125.764 832.113 126.079 832.456 125.944Z" fill="#080B09"/>
<path d="M837.182 124.05C837.525 123.915 837.637 123.38 837.43 122.856C837.224 122.331 836.778 122.015 836.434 122.15C836.09 122.286 835.979 122.821 836.185 123.345C836.392 123.87 836.838 124.186 837.182 124.05Z" fill="#080B09"/>
<path d="M835.448 124.946C835.448 124.946 835.029 126.217 835.911 126.093C836.75 125.946 837.319 126.36 836.586 127.212" fill="#E56441"/>
<path d="M835.448 124.946C835.448 124.946 835.029 126.217 835.911 126.093C836.75 125.946 837.319 126.36 836.586 127.212" stroke="#E56441" stroke-width="0.256889" stroke-linecap="round"/>
<path d="M836.627 128.334L836.632 128.334L836.636 128.332C836.648 128.328 836.661 128.328 836.673 128.331C836.686 128.334 836.697 128.34 836.706 128.349C836.716 128.358 836.722 128.369 836.726 128.381C836.729 128.394 836.73 128.407 836.726 128.419L836.724 128.43L836.722 128.44C836.668 128.997 836.53 129.327 836.362 129.513C836.2 129.692 835.996 129.752 835.765 129.734C835.528 129.716 835.268 129.616 835.016 129.479C834.767 129.344 834.536 129.178 834.357 129.035C834.345 129.023 834.336 129.009 834.331 128.993C834.325 128.977 834.325 128.959 834.329 128.942C834.333 128.925 834.342 128.909 834.354 128.897C834.367 128.884 834.382 128.876 834.399 128.872L834.401 128.871C835.083 128.699 836.112 128.456 836.627 128.334Z" fill="#E56441" stroke="#E56441" stroke-width="0.271364"/>
<path d="M829.463 123.722L829.527 123.813C829.61 123.953 829.745 124.055 829.903 124.097C830.06 124.138 830.228 124.115 830.369 124.033L832.753 122.564C832.871 122.498 832.96 122.39 833.003 122.261C833.045 122.132 833.037 121.992 832.981 121.868C832.95 121.791 832.903 121.721 832.844 121.663C832.784 121.606 832.712 121.561 832.634 121.533C832.556 121.505 832.473 121.493 832.39 121.5C832.306 121.506 832.226 121.53 832.153 121.57L829.704 122.949C829.636 122.983 829.576 123.03 829.527 123.087C829.478 123.145 829.441 123.212 829.419 123.284C829.397 123.357 829.389 123.433 829.396 123.508C829.404 123.583 829.426 123.656 829.463 123.722Z" fill="#080B09"/>
<path d="M837.7 119.955L834.902 120.215C834.819 120.223 834.739 120.25 834.667 120.291C834.595 120.333 834.533 120.39 834.485 120.458C834.437 120.525 834.403 120.602 834.387 120.684C834.371 120.766 834.372 120.85 834.39 120.931C834.414 121.064 834.488 121.184 834.596 121.266C834.704 121.348 834.839 121.386 834.974 121.374L837.771 121.226C837.933 121.213 838.084 121.136 838.19 121.013C838.296 120.889 838.349 120.729 838.337 120.566L838.339 120.455C838.331 120.379 838.308 120.307 838.271 120.24C838.235 120.174 838.185 120.116 838.126 120.069C838.066 120.023 837.997 119.989 837.924 119.969C837.851 119.95 837.775 119.945 837.7 119.955Z" fill="#080B09"/>
<path d="M832.576 118.289C832.576 118.289 831.179 120.947 828.645 121.735C826.111 122.523 827.496 126.523 827.496 126.523C827.496 126.523 825.758 124.794 823.761 125.767C821.764 126.74 823.28 130.559 826.039 130.607L825.289 134.904C825.289 134.904 823.891 133.164 822.421 132.233C820.951 131.301 815.671 127.686 818.004 122.925C818.004 122.925 816.179 116.24 821.184 112.774C826.189 109.308 830.521 110.616 830.521 110.616C830.521 110.616 831.714 108.723 834.48 109.11C837.246 109.497 837.883 114.484 836.968 116.287C836.052 118.091 834.559 118.858 832.576 118.289Z" fill="#93523E"/>
<path d="M811.724 144.935C815.243 141.725 816.283 143.695 817.3 143.949C817.3 143.949 820.691 145.154 819.947 148.066C819.161 151.148 810.71 171.172 810.71 171.172L800.245 168.077L801.015 165.856L803.007 160.104L805.135 153.953L805.355 153.216L807.939 145.09C807.939 145.09 809.89 146.657 811.724 144.935Z" fill="#5661AE"/>
<path d="M818.694 150.491C820.912 147.901 820.609 144.004 818.019 141.787C815.43 139.569 811.533 139.872 809.315 142.461C807.098 145.051 807.4 148.948 809.99 151.166C812.58 153.383 816.477 153.081 818.694 150.491Z" fill="#5661AE"/>
<path d="M809.674 166.254L829.104 185.293C829.217 185.412 829.281 185.57 829.285 185.735C829.289 185.9 829.232 186.06 829.124 186.185L825.761 190.055C825.597 190.239 825.372 190.355 825.128 190.382C824.884 190.408 824.638 190.343 824.44 190.199L802.142 174.008L809.674 166.254Z" fill="#5661AE"/>
<path d="M805.469 175.172C808.49 175.172 810.939 172.724 810.939 169.703C810.939 166.681 808.49 164.233 805.469 164.233C802.448 164.233 799.999 166.681 799.999 169.703C799.999 172.724 802.448 175.172 805.469 175.172Z" fill="#5661AE"/>
<path d="M837.078 162.587L826.534 191.8H805.333C805.333 190.908 805.687 190.053 806.318 189.422C806.949 188.791 807.804 188.437 808.696 188.437H824.035L833.14 162.587H837.078Z" fill="white"/>
<path d="M837.079 162.587H865.524L854.523 191.8H826.534L837.079 162.587Z" fill="url(#paint4_linear_3028_6812)"/>
<path d="M876.798 67.3162C876.798 67.3162 881.538 66.3178 883.041 68.6228C884.544 70.9278 886.048 75.2579 889.455 74.6965C892.863 74.135 895.468 62.8099 898.876 62.9103C902.283 63.0105 900.78 70.4268 904.488 70.527C908.196 70.6271 907.294 66.418 910.301 66.418C913.308 66.418 912.305 75.4378 916.214 75.538C920.123 75.6384 919.722 63.9125 925.635 64.1127" stroke="white" stroke-width="1.35682" stroke-miterlimit="10" stroke-linecap="round"/>
<path d="M862.962 65.7585C865.376 59.8294 863.052 53.2803 857.771 51.1306C852.491 48.9809 846.254 52.0445 843.84 57.9736C841.426 63.9026 843.75 70.4517 849.031 72.6014C854.311 74.7512 860.549 71.6875 862.962 65.7585Z" stroke="#FF967C" stroke-width="4.48315" stroke-miterlimit="10" stroke-linecap="round"/>
<path d="M858.318 71.4956C855.532 73.3333 852.118 73.8581 849.031 72.6014C843.75 70.4517 841.426 63.9026 843.84 57.9736C846.254 52.0445 852.491 48.9809 857.771 51.1306" stroke="white" stroke-width="4.48315" stroke-miterlimit="10" stroke-linecap="round"/>
<path d="M880.36 50.4436H901.216" stroke="white" stroke-width="2.71364" stroke-miterlimit="10" stroke-linecap="round"/>
<path opacity="0.6" d="M879.372 56.196H887.857" stroke="white" stroke-width="2.71364" stroke-miterlimit="10" stroke-linecap="round"/>
<path d="M1038.26 193.432C1038.2 193.438 1038.17 193.472 1038.2 193.499C1038.18 193.532 1038.18 193.532 1038.18 193.592C1038.06 194.006 1037.97 194.43 1037.92 194.859L1043.06 198.995L1043.63 198.354C1043.63 198.354 1041.73 196.005 1041.02 195.322C1040.71 195.021 1040.44 194.746 1040.17 194.472C1039.93 194.224 1039.71 193.943 1039.51 193.722C1039.22 193.327 1038.38 193.479 1038.38 193.419C1038.34 193.392 1038.26 193.432 1038.26 193.432Z" fill="#233B62"/>
<path d="M999.352 157.5L1004.32 162.315L1032.1 189.142L1032.61 189.604L1032.83 189.945L1032.86 189.972L1036.79 195.934L1037.23 196.616L1037.38 196.843L1040.04 200.905L1037.85 201.996L1037.22 202.308L1036.32 202.741L1034.91 203.473L1034.88 203.506L1033.38 204.277L1033.31 204.164L1029.89 197.628C1029.23 196.366 1028.3 195.263 1027.16 194.395L996.956 171.271L991.214 166.875L999.352 157.5Z" fill="#FFCCB3"/>
<path d="M1036.41 190.193C1035.08 189.575 1033.59 189.022 1032.13 189.108C1033.01 189.88 1033.41 191.252 1033.99 192.253C1035.19 194.312 1038.26 198.139 1036.69 201.392C1035.81 203.219 1033.34 204.19 1033.31 204.163C1032.89 206.04 1030.85 213.68 1034.93 209.252C1037.2 206.778 1039.46 204.136 1040.6 201.514C1041.06 200.439 1040.08 199.366 1039.59 198.459C1038.98 197.085 1038.05 195.266 1038.17 193.745L1038.19 193.712C1038.26 193.607 1043.54 198.332 1043.63 198.354C1043.81 198.06 1044.24 197.467 1044.24 197.467C1044.24 197.467 1036.67 190.288 1036.41 190.193Z" fill="#1C85E8"/>
<path d="M979.572 215.185C979.525 215.148 979.482 215.153 979.487 215.195C979.445 215.201 979.445 215.201 979.407 215.248C979.028 215.455 978.667 215.696 978.33 215.967L979.116 222.522L979.971 222.462C979.971 222.462 980.257 219.455 980.224 218.468C980.216 218.038 980.213 217.651 980.209 217.263C980.211 216.918 980.255 216.568 980.262 216.266C980.333 215.783 979.63 215.308 979.667 215.26C979.662 215.218 979.572 215.185 979.572 215.185Z" fill="#233B62"/>
<path d="M976.89 162.295L977.073 169.21L978.171 207.813L978.21 208.498L978.128 208.895L978.133 208.938L976.777 215.951L976.614 216.747L976.56 217.012L975.624 221.777L973.292 221.023L972.62 220.802L971.677 220.484L970.156 220.021L970.114 220.025L968.503 219.529L968.53 219.397L970.656 212.334C971.064 210.968 971.171 209.529 970.969 208.117L965.547 170.464L964.516 163.305L976.89 162.295Z" fill="#FFCCB3"/>
<path d="M980.519 211.581C979.999 210.208 979.318 208.768 978.213 207.808C978.303 208.975 977.63 210.237 977.346 211.359C976.762 213.669 976.28 218.551 972.885 219.779C970.977 220.469 968.535 219.439 968.53 219.396C966.923 220.45 960.118 224.481 966.129 224.166C969.486 223.99 972.948 223.68 975.593 222.6C976.678 222.156 976.724 220.701 977.013 219.715C977.532 218.3 978.143 216.354 979.29 215.348L979.333 215.343C979.454 215.315 979.922 222.383 979.971 222.462C980.306 222.379 981.023 222.25 981.023 222.25C981.023 222.25 980.634 211.826 980.519 211.581Z" fill="#1C85E8"/>
<path d="M969.405 110.412L959.585 151.881L959.567 154.825L967.552 203.93L980.267 202.553L976.578 155.656L986.694 131.187L984.649 111.121L969.405 110.412Z" fill="#1F2D49"/>
<path d="M968.03 161.954C972.773 161.954 976.617 158.11 976.617 153.367C976.617 148.625 972.773 144.78 968.03 144.78C963.288 144.78 959.443 148.625 959.443 153.367C959.443 158.11 963.288 161.954 968.03 161.954Z" fill="#1F2D49"/>
<path d="M979.802 147.86L977.38 127.371L976.579 155.656L979.802 147.86Z" fill="#0D1B33"/>
<path d="M995.914 110.282C995.914 110.282 1000.49 117.974 1000.55 124.416C1000.64 134.084 997.156 151.42 997.156 151.42L1027.6 182.191L1020.35 193.059C1020.35 193.059 994.375 171.504 983.383 161.266L980.921 156.281L977.379 127.371L982.793 110.282H995.914Z" fill="#1F2D49"/>
<path d="M969.406 110.412L996.071 110.686L998.663 116.048L968.955 112.315L969.406 110.412Z" fill="#0D1B33"/>
<path d="M989.432 163.758C994.174 163.758 998.019 159.914 998.019 155.171C998.019 150.429 994.174 146.584 989.432 146.584C984.689 146.584 980.845 150.429 980.845 155.171C980.845 159.914 984.689 163.758 989.432 163.758Z" fill="#1F2D49"/>
<path d="M966.292 53.4255C966.292 53.4255 966.65 57.4115 965.599 61.2432C964.547 65.0749 956.583 73.1886 963.645 79.8001C970.708 86.4114 979.347 68.681 979.347 68.681L976.643 60.4918L967.29 50.7612L966.292 53.4255Z" fill="#1F2D49"/>
<path d="M987.839 54.356C987.839 54.356 989.958 57.0484 994.787 59.2492C999.525 61.409 1004.63 64.959 1003.58 72.6972C1002.52 80.4354 988.517 74.4252 984.401 69.9925C980.286 65.56 980.853 57.646 980.853 57.646L987.839 54.356Z" fill="#1F2D49"/>
<path d="M977.005 68.8555C977.005 68.8555 971.63 70.9824 970.809 71.6388C969.988 72.2955 969.209 77.6542 967.814 80.1982C966.419 82.7425 964.377 87.4385 967.359 91.752C970.34 96.0654 970.023 99.4905 970.023 99.4905L969.388 110.311L995.08 110.784C995.308 110.792 995.534 110.75 995.743 110.664C995.951 110.578 996.139 110.448 996.296 110.283C996.451 110.119 996.567 109.923 996.643 109.709C996.717 109.495 996.744 109.268 996.725 109.043C996.44 105.888 995.135 101.457 995.032 96.4339C994.893 89.6259 994.79 66.878 994.79 66.878L983.597 66.5266C981.342 66.9155 977.005 68.8555 977.005 68.8555Z" fill="#FEBB94"/>
<path d="M990.384 76.1772C990.384 76.1772 986.64 79.5913 986.42 82.1242C986.2 84.6571 985.69 91.7193 980.878 92.4238C974.98 93.2873 973.436 94.128 976.171 94.7887C978.904 95.4495 985.11 94.379 985.11 97.2115C985.11 99.2274 987.521 100.735 988.732 99.6342C989.944 98.533 999.593 81.7937 990.384 76.1772Z" fill="#FF967C"/>
<path d="M945.227 79.0384L943.197 76.4401C942.772 75.832 942.207 75.3348 941.55 74.991C940.551 74.4909 939.019 73.5579 938.487 72.6255C937.605 71.1433 934.13 67.1399 937.144 64.0282C938.261 62.8798 937.982 63.1514 940.212 63.1859C942.443 63.22 942.786 65.5351 943.901 67.0504C943.901 67.0504 944.151 65.3025 945.383 64.5039C946.616 63.7052 945.798 68.583 946.746 70.4315C947.694 72.2801 946.928 72.9788 949.174 76.2265L945.227 79.0384Z" fill="#FFCCB3"/>
<path d="M939.873 63.4529L941.686 67.5659L939.873 63.4529Z" fill="#E56441"/>
<path d="M939.873 63.4529L941.686 67.5659" stroke="#E56441" stroke-width="0.256889" stroke-linecap="round"/>
<path d="M937.508 64.1843L940.02 68.5641L937.508 64.1843Z" fill="#E56441"/>
<path d="M937.508 64.1843L940.02 68.5641" stroke="#E56441" stroke-width="0.256889" stroke-linecap="round"/>
<path d="M936.025 67.0637L938.005 69.6783L936.025 67.0637Z" fill="#E56441"/>
<path d="M936.025 67.0637L938.005 69.6783" stroke="#E56441" stroke-width="0.256889" stroke-linecap="round"/>
<path d="M943.434 67.9829C943.434 67.9829 942.667 70.1804 942.8 71.912L943.434 67.9829Z" fill="#E56441"/>
<path d="M943.434 67.9829C943.434 67.9829 942.667 70.1804 942.8 71.912" stroke="#E56441" stroke-width="0.256889" stroke-linecap="round"/>
<path d="M972.115 70.9319C970.031 71.6543 967.126 73.1193 966.34 74.754L959.394 90.5778L947.826 73.0005L943.445 77.6145L954.249 99.9589C956.223 104.872 961.238 106.719 964.87 101.423L970.674 92.3069L972.115 70.9319Z" fill="#FEBB94"/>
<path d="M969.153 84.5531C969.153 84.5531 968.527 83.4728 968.527 89.112L964.87 101.422L970.674 92.3065C975.33 86.0467 971.652 84.3748 969.153 84.5531Z" fill="#FF967C"/>
<path d="M981.888 77.0872L962.7 84.7299C962.104 84.9673 961.813 85.6433 962.051 86.2392L971.654 110.349C971.892 110.946 972.567 111.236 973.163 110.999L992.351 103.356C992.947 103.119 993.238 102.443 993 101.847L983.397 77.7366C983.159 77.1404 982.484 76.8498 981.888 77.0872Z" fill="#1C85E8"/>
<path d="M965.628 86.9971L973.54 83.8455" stroke="white" stroke-width="1.08546" stroke-miterlimit="10" stroke-linecap="round"/>
<path d="M966.823 89.8304L970.429 88.3938" stroke="white" stroke-width="1.08546" stroke-miterlimit="10" stroke-linecap="round"/>
<path d="M976.325 63.1875L976.627 71.6456C976.627 71.6456 976.214 73.4977 978.115 73.2922C980.015 73.0868 982.574 71.59 984.013 69.9461C985.451 68.3021 985.353 68.1702 984.737 67.0913C984.12 66.0126 981.226 57.79 981.226 57.79L976.325 63.1875Z" fill="#FFCCB3"/>
<path d="M976.369 63.8975L979.874 61.6655C979.874 61.6655 978.321 68.4814 976.628 71.6463L976.369 63.8975Z" fill="#FCBA9F"/>
<path d="M966.918 50.5303C966.918 50.5303 966.862 58.9477 970.494 63.1839C972.862 65.9464 975.354 65.5801 979.51 61.032C983.32 56.862 983.854 54.6886 983.854 54.6886L981.223 46.4305C981.223 46.4305 967.346 42.8697 966.918 50.5303Z" fill="#FFCCB3"/>
<path d="M970.532 48.578C970.532 48.578 972.053 52.2721 974.878 53.3044C977.703 54.3366 978.442 56.2563 978.442 56.2563C978.442 56.2563 978.984 53.0979 981.204 53.2126C983.425 53.3274 982.973 57.2473 981.595 58.5487C981.595 58.5487 983.253 61.6236 984.659 63.8976L990.815 57.7876C990.815 57.7876 987.643 54.1206 986.946 51.1701C986.249 48.2196 983.991 40.3207 975.386 40.8439C965.283 41.458 965.863 49.6681 966.292 54.2281C966.292 54.2281 969.461 53.0132 970.532 48.578Z" fill="#1F2D49"/>
<path d="M971.626 60.5806L974.082 59.3757C974.084 59.3896 974.086 59.4045 974.088 59.42C974.105 59.5489 974.112 59.7261 974.077 59.9206C974.008 60.3014 973.774 60.7635 973.076 61.0636C972.628 61.2088 972.246 61.0655 971.965 60.875C971.825 60.7792 971.713 60.6734 971.636 60.5912C971.632 60.5876 971.629 60.5841 971.626 60.5806Z" fill="#E56441" stroke="#E56441" stroke-width="0.271364"/>
<path d="M968.95 57.1628C969.261 57.086 969.421 56.6532 969.308 56.1956C969.195 55.7381 968.852 55.4293 968.541 55.5061C968.231 55.5826 968.071 56.0157 968.184 56.4732C968.297 56.9305 968.64 57.2393 968.95 57.1628Z" fill="#080B09"/>
<path d="M973.552 56.0963C973.863 56.0198 974.023 55.5867 973.91 55.1292C973.797 54.6719 973.454 54.3631 973.143 54.4396C972.833 54.5164 972.673 54.9492 972.786 55.4068C972.899 55.8643 973.242 56.1731 973.552 56.0963Z" fill="#080B09"/>
<path d="M967.164 54.6963L969.507 54.1588C969.546 54.1463 969.579 54.1199 969.6 54.0849C969.621 54.0497 969.629 54.0081 969.622 53.9677C969.596 53.8991 969.556 53.8361 969.505 53.7829C969.454 53.73 969.393 53.6877 969.325 53.6589C969.257 53.6301 969.184 53.6155 969.111 53.6155C969.037 53.6157 968.964 53.6309 968.897 53.66L967.06 54.438C966.907 54.4757 966.973 54.7435 967.164 54.6963Z" fill="#080B09"/>
<path d="M975.029 52.5993L971.978 53.5553C971.958 53.4601 971.958 53.3615 971.978 53.2663C971.998 53.171 972.037 53.081 972.094 53.0017C972.151 52.9227 972.224 52.8565 972.308 52.8074C972.392 52.7583 972.486 52.7274 972.583 52.7165L975.02 52.3987C975.096 52.38 975.144 52.5711 975.029 52.5993Z" fill="#080B09"/>
<path d="M970.593 55.6335L970.262 58.1032L971.134 58.5244" fill="#E56441"/>
<path d="M970.593 55.6335L970.262 58.1032L971.134 58.5244" stroke="#E56441" stroke-width="0.256889" stroke-linecap="round"/>
<path d="M972.915 98.9355L965.35 101.106L964.425 105.768L966.146 110.927C966.146 110.927 967.356 110.113 967.104 108.214C966.851 106.315 973.244 106.369 974.416 103.982" fill="#FFCCB3"/>
<path d="M990.196 73.2421C990.196 73.2421 990.146 66.8341 995.279 66.8333C998.722 66.8327 1000.37 68.447 1000.81 73.4846C1001.12 77.0067 1001.34 96.3313 1001.34 96.3313C1001.34 96.3313 1002.2 105.151 994.723 105.316L973.121 104.669L972.633 98.6333L991.464 96.7563L990.196 73.2421Z" fill="#FEBB94"/>
<path d="M974.575 72.4405C974.575 72.4405 976.523 71.8861 976.207 69.9727C975.899 68.0897 975.887 66.455 976.505 66.6827C976.505 66.6827 977.05 67.6175 980.44 66.5785C983.808 65.5782 983.597 64.4228 983.597 64.4228C983.597 64.4228 984.074 64.0005 984.43 65.0844C984.785 66.1682 985.688 69.1695 987.595 68.9535L988.111 74.5476L977.966 77.8868C977.944 77.9256 973.255 73.3838 974.575 72.4405Z" fill="#FEBB94"/>
<path d="M891.834 184.075H898.216" stroke="white" stroke-width="1.35682" stroke-miterlimit="10" stroke-linecap="round"/>
<path opacity="0.5" d="M893.133 186.845H896.325" stroke="white" stroke-width="1.35682" stroke-miterlimit="10" stroke-linecap="round"/>
<path d="M887.583 178.545L892.48 175.13L895.93 177.427L900.522 174.102" stroke="white" stroke-width="1.76499" stroke-linecap="round" stroke-linejoin="round"/>
<path d="M896.992 172.653H901.876V177.486" stroke="white" stroke-width="1.76499" stroke-linecap="round" stroke-linejoin="round"/>
<path d="M954.822 22.588H935.893C935.662 22.597 935.432 22.5516 935.221 22.4556C935.01 22.3598 934.824 22.2157 934.679 22.0355C934.534 21.8551 934.433 21.6434 934.384 21.4168C934.335 21.1905 934.34 20.956 934.398 20.7316L937.307 5.77409C937.419 5.26295 937.698 4.80342 938.099 4.4675C938.5 4.13161 939.001 3.93829 939.524 3.91785H958.453C958.685 3.90892 958.915 3.95424 959.126 4.05017C959.337 4.1461 959.522 4.28997 959.667 4.47032C959.812 4.65067 959.913 4.8625 959.962 5.08887C960.011 5.31524 960.006 5.54989 959.948 5.77409L957.039 20.7316C956.927 21.2429 956.649 21.7023 956.248 22.0382C955.846 22.3742 955.345 22.5674 954.822 22.588Z" fill="#1C85E8"/>
<path d="M941.838 7.96338L954.442 7.96582C954.532 7.96189 954.622 7.97893 954.705 8.01562C954.788 8.05233 954.861 8.10766 954.919 8.17719C954.976 8.24693 955.017 8.32915 955.038 8.41707C955.059 8.50526 955.059 8.59671 955.038 8.68491L954.865 9.62844C954.837 9.76548 954.776 9.8941 954.69 10.004C954.603 10.1142 954.492 10.2026 954.365 10.2623L947.46 13.5857C947.353 13.6422 947.234 13.6715 947.113 13.6707C946.992 13.6701 946.873 13.6395 946.767 13.5817L941.086 10.1576C940.983 10.0927 940.902 9.99722 940.855 9.88433C940.808 9.77118 940.797 9.64662 940.824 9.52722L940.979 8.68219C941.021 8.48355 941.128 8.30473 941.284 8.17447C941.44 8.04408 941.635 7.96978 941.838 7.96338Z" fill="white"/>
<path d="M941.212 11.3986L946.647 14.8075C946.721 14.849 946.804 14.871 946.889 14.871C946.973 14.871 947.057 14.849 947.13 14.8075L953.811 11.4011C954.17 11.2179 954.532 11.4502 954.465 11.8206L953.472 17.2509C953.396 17.6077 953.203 17.929 952.923 18.1632C952.643 18.3974 952.293 18.5309 951.928 18.5423L940.484 18.5401C940.321 18.5472 940.159 18.5165 940.011 18.4506C939.862 18.3846 939.731 18.2853 939.627 18.1602C939.523 18.0348 939.45 17.8875 939.413 17.7293C939.376 17.5711 939.375 17.4064 939.413 17.2482L940.405 11.8179C940.421 11.7316 940.456 11.6499 940.508 11.5791C940.56 11.5083 940.628 11.4505 940.706 11.41C940.784 11.3696 940.87 11.3474 940.958 11.3455C941.046 11.3433 941.133 11.3615 941.212 11.3986Z" fill="white"/>
<path d="M959.107 7.83525C961.271 7.83525 963.025 6.08126 963.025 3.91762C963.025 1.75399 961.271 0 959.107 0C956.943 0 955.189 1.75399 955.189 3.91762C955.189 6.08126 956.943 7.83525 959.107 7.83525Z" fill="#FF967C"/>
<path d="M959.381 90.5713L962.63 95.3975L960.897 87.1521L959.381 90.5713Z" fill="#FF967C"/>
<path d="M1048.72 71H1024.41C1023.08 71 1022 72.0778 1022 73.4071V95.5929C1022 96.9222 1023.08 98 1024.41 98H1048.72C1050.05 98 1051.13 96.9222 1051.13 95.5929V73.4071C1051.13 72.0778 1050.05 71 1048.72 71Z" fill="#1C85E8"/>
<path d="M1027.5 88.6017L1031.73 84.3688C1032.01 84.092 1032.38 83.9367 1032.77 83.9367C1033.16 83.9367 1033.54 84.092 1033.82 84.3688L1037.13 87.6794C1037.4 87.956 1037.78 88.1115 1038.17 88.1115C1038.56 88.1115 1038.94 87.956 1039.21 87.6794L1044.62 82.2686" stroke="white" stroke-width="1.70154" stroke-miterlimit="10" stroke-linecap="round"/>
<path d="M1042.11 81.2939H1045.12C1045.26 81.2939 1045.39 81.348 1045.48 81.4442C1045.58 81.5405 1045.63 81.6707 1045.63 81.8068V84.5294" stroke="white" stroke-width="1.70154" stroke-miterlimit="10" stroke-linecap="round"/>
<path d="M801.249 85.962L729.548 96.8229C729.17 96.8815 728.783 96.8608 728.413 96.7621C728.043 96.6633 727.697 96.4888 727.398 96.2494C727.098 96.0101 726.852 95.7112 726.675 95.3717C726.497 95.0322 726.392 94.6595 726.366 94.2772L722.078 29.7038C722.049 29.2837 722.11 28.8622 722.258 28.4678C722.405 28.0734 722.636 27.7153 722.934 27.4176C723.231 27.1199 723.59 26.8897 723.984 26.7424C724.379 26.5951 724.8 26.5343 725.22 26.5639L797.047 31.1472C797.707 31.187 798.33 31.461 798.806 31.9199C799.281 32.3788 799.577 32.9924 799.64 33.6501L803.756 82.8222C803.801 83.5632 803.57 84.2947 803.107 84.8749C802.644 85.4551 801.981 85.8425 801.249 85.962V85.962Z" fill="#8894AC"/>
<path d="M803.201 85.8765L731.159 96.7823C730.781 96.8399 730.395 96.8184 730.025 96.7192C729.655 96.6199 729.31 96.445 729.012 96.2055C728.713 95.966 728.468 95.6672 728.291 95.3279C728.113 94.9887 728.009 94.6163 727.983 94.2345L723.651 29.3651C723.621 28.9396 723.684 28.5127 723.833 28.1133C723.983 27.7138 724.216 27.3511 724.518 27.0495C724.819 26.7479 725.182 26.5144 725.582 26.3649C725.981 26.2153 726.408 26.153 726.833 26.1823L798.956 30.7656C799.621 30.8085 800.249 31.0893 800.724 31.5567C801.2 32.0241 801.491 32.6469 801.545 33.3113L805.703 82.6958C805.786 83.448 805.57 84.2025 805.102 84.7972C804.634 85.3919 803.951 85.7794 803.201 85.8765Z" fill="#C9DBFF"/>
<path d="M756.233 63.6462L735.955 64.7486C735.647 64.761 735.347 64.6526 735.118 64.4467C734.889 64.2407 734.75 63.9535 734.73 63.6462L733.542 46.4974C733.534 46.3365 733.558 46.1755 733.613 46.0241C733.668 45.8727 733.754 45.7339 733.863 45.6159C733.973 45.498 734.105 45.4032 734.253 45.3372C734.4 45.2712 734.558 45.2353 734.719 45.2317L755 45.3603C755.302 45.3551 755.594 45.4669 755.816 45.6724C756.037 45.8779 756.171 46.1611 756.188 46.4627L757.38 62.3723C757.391 62.5318 757.369 62.6917 757.317 62.8427C757.265 62.9937 757.182 63.1327 757.076 63.2514C756.969 63.3702 756.839 63.4663 756.694 63.5341C756.55 63.6019 756.393 63.64 756.233 63.6462V63.6462Z" fill="#6DAFA7"/>
<path d="M778.041 57.0274L761.07 57.6215C760.762 57.6338 760.461 57.5252 760.232 57.3188C760.003 57.1124 759.864 56.8246 759.845 56.517L759.122 46.632C759.113 46.4697 759.137 46.3072 759.193 46.1544C759.248 46.0017 759.334 45.8617 759.445 45.7429C759.556 45.6241 759.69 45.529 759.838 45.4632C759.987 45.3974 760.148 45.3623 760.31 45.3601L777.281 45.4867C777.58 45.4942 777.865 45.6103 778.084 45.8133C778.303 46.0163 778.44 46.2921 778.469 46.5891L779.186 55.7474C779.201 55.9079 779.183 56.0698 779.132 56.2229C779.082 56.376 779 56.517 778.892 56.6371C778.785 56.7573 778.654 56.854 778.507 56.9211C778.361 56.9883 778.202 57.0244 778.041 57.0274V57.0274Z" fill="#FFE779"/>
<path d="M797.26 56.3905L782.969 56.8989C782.661 56.9118 782.361 56.8036 782.132 56.5975C781.903 56.3914 781.764 56.1039 781.744 55.7965L781.023 46.8444C781.014 46.682 781.038 46.5194 781.094 46.3665C781.149 46.2136 781.235 46.0735 781.346 45.9547C781.457 45.8358 781.591 45.7407 781.74 45.675C781.888 45.6093 782.049 45.5745 782.212 45.5725L796.502 45.6562C796.801 45.6637 797.086 45.7802 797.305 45.9836C797.524 46.187 797.661 46.4633 797.69 46.7607L798.368 55.1166C798.384 55.274 798.367 55.433 798.319 55.5837C798.271 55.7344 798.193 55.8737 798.089 55.993C797.985 56.1124 797.858 56.2092 797.715 56.2775C797.573 56.3459 797.418 56.3844 797.26 56.3905V56.3905Z" fill="#F4C2C9"/>
<path d="M757.507 80.2763L737.226 82.4913C737.067 82.5106 736.905 82.4968 736.75 82.4508C736.596 82.4049 736.453 82.3278 736.33 82.2242C736.206 82.1207 736.106 81.9929 736.034 81.8489C735.962 81.7049 735.92 81.5476 735.912 81.3869L735.148 70.3055C735.135 69.9928 735.241 69.6867 735.446 69.4502C735.651 69.2137 735.939 69.0646 736.251 69.0336L756.574 67.676C756.73 67.6646 756.887 67.6841 757.035 67.7334C757.183 67.7827 757.321 67.8608 757.439 67.9632C757.557 68.0656 757.654 68.1903 757.723 68.3302C757.793 68.4701 757.835 68.6224 757.846 68.7784L758.605 79.0044C758.606 79.3131 758.495 79.6117 758.293 79.8454C758.092 80.079 757.812 80.232 757.507 80.2763V80.2763Z" stroke="white" stroke-width="0.763529" stroke-linecap="round" stroke-linejoin="round"/>
<path d="M779.949 79.8517L763.021 81.8463C762.861 81.8655 762.7 81.8518 762.545 81.806C762.391 81.7602 762.248 81.6832 762.125 81.5799C762.002 81.4766 761.901 81.3491 761.829 81.2053C761.757 81.0615 761.715 80.9044 761.706 80.7439L760.349 62.458C760.326 62.1429 760.43 61.8318 760.636 61.593C760.843 61.3541 761.136 61.2071 761.451 61.1841L778.422 60.3777C778.73 60.3653 779.031 60.474 779.26 60.6803C779.489 60.8867 779.628 61.1745 779.647 61.4821L781.005 78.5799C781.023 78.8863 780.925 79.1882 780.729 79.4244C780.532 79.6606 780.254 79.8134 779.949 79.8517V79.8517Z" fill="#F4C2C9"/>
<path d="M776.428 63.5603L764.252 64.281C764.183 64.2806 764.115 64.2953 764.052 64.324C763.99 64.3528 763.934 64.395 763.89 64.4475C763.845 64.5 763.813 64.5617 763.795 64.6282C763.776 64.6946 763.773 64.7643 763.785 64.8322L764.338 72.3858C764.34 72.4537 764.357 72.5202 764.387 72.5813C764.417 72.6423 764.459 72.6965 764.511 72.7403C764.563 72.7841 764.623 72.8166 764.688 72.8357C764.753 72.8548 764.822 72.8601 764.889 72.8513L777.065 71.7917C777.133 71.7888 777.199 71.772 777.26 71.7421C777.321 71.7123 777.375 71.6702 777.419 71.6184C777.463 71.5666 777.496 71.5063 777.515 71.4413C777.535 71.3763 777.54 71.3079 777.532 71.2405L776.979 64.0278C776.952 63.8998 776.883 63.7844 776.783 63.6998C776.684 63.6151 776.558 63.5661 776.428 63.5603V63.5603Z" fill="#6DAFA7"/>
<path d="M798.956 75.6524L784.666 77.2224C784.506 77.2419 784.344 77.2284 784.189 77.1825C784.035 77.1367 783.892 77.0596 783.768 76.956C783.645 76.8524 783.544 76.7245 783.472 76.5803C783.401 76.4362 783.359 76.2788 783.351 76.1179L782.206 61.3965C782.183 61.0816 782.287 60.7708 782.493 60.5322C782.7 60.2937 782.993 60.1471 783.308 60.1246L797.599 59.4448C797.907 59.4324 798.207 59.5411 798.436 59.7475C798.665 59.9539 798.804 60.2417 798.824 60.5493L799.969 74.3785C799.987 74.5287 799.974 74.6809 799.933 74.8264C799.891 74.9719 799.822 75.1077 799.728 75.2261C799.633 75.3445 799.517 75.4431 799.385 75.5163C799.252 75.5894 799.107 75.6357 798.956 75.6524V75.6524Z" fill="#FFE779"/>
<path d="M747.155 73.2761L747.41 76.416" stroke="white" stroke-width="0.763529" stroke-linecap="round" stroke-linejoin="round"/>
<path d="M745.797 74.9724L748.767 74.7192" stroke="white" stroke-width="0.763529" stroke-linecap="round" stroke-linejoin="round"/>
<path d="M767.476 76.7546C767.392 75.9053 766.755 75.2275 765.992 75.3132C765.228 75.399 764.634 76.1605 764.72 77.0526C764.805 77.9448 765.483 78.5797 766.247 78.4939C766.976 78.3674 767.519 77.6038 767.476 76.7546Z" fill="#282828"/>
<path d="M769.938 76.4997L777.871 75.6953" stroke="#282828" stroke-width="0.763529" stroke-linecap="round" stroke-linejoin="round"/>
<path d="M787.595 64.1175C787.509 63.3111 786.958 62.717 786.28 62.717C785.6 62.7599 785.135 63.4397 785.176 64.2461C785.262 65.0505 785.813 65.6875 786.493 65.6446C787.205 65.5976 787.671 64.9178 787.595 64.1175Z" fill="#6DAFA7"/>
<path d="M789.751 63.9849L796.582 63.5603" stroke="#282828" stroke-width="0.763529" stroke-linecap="round" stroke-linejoin="round"/>
<path d="M787.969 68.6521C787.883 67.8355 787.332 67.2516 786.654 67.2945C785.976 67.3373 785.509 68.058 785.549 68.8644C785.635 69.6708 786.229 70.3057 786.866 70.222C787.544 70.1363 788.054 69.4585 787.969 68.6521Z" fill="#6DAFA7"/>
<path d="M790.09 68.4826L796.964 67.9314" stroke="#282828" stroke-width="0.763529" stroke-linecap="round" stroke-linejoin="round"/>
<path d="M788.35 73.1904C788.265 72.386 787.713 71.792 787.036 71.8328C786.358 71.8736 785.89 72.5984 785.931 73.4027C786.017 74.2091 786.611 74.8032 787.248 74.7603C787.926 74.6766 788.393 73.9968 788.35 73.1904Z" fill="#6DAFA7"/>
<path d="M790.472 72.9799L797.303 72.3" stroke="#282828" stroke-width="0.763529" stroke-linecap="round" stroke-linejoin="round"/>
<path d="M740.622 52.1052L737.863 52.1481C737.737 52.1417 737.617 52.0915 737.524 52.0062C737.431 51.9208 737.37 51.8057 737.353 51.6806L737.149 48.7959C737.146 48.7284 737.157 48.661 737.182 48.598C737.206 48.535 737.244 48.4778 737.291 48.43C737.339 48.3822 737.396 48.3449 737.459 48.3204C737.522 48.2958 737.59 48.2847 737.657 48.2876H740.415C740.541 48.2943 740.66 48.3444 740.753 48.4293C740.845 48.5142 740.906 48.6286 740.924 48.753L741.128 51.5969C741.112 51.7257 741.053 51.8456 740.962 51.9376C740.87 52.0296 740.75 52.0886 740.622 52.1052V52.1052Z" fill="#FFE779"/>
<path d="M743.59 48.2877L753.136 48.2449" stroke="#282828" stroke-width="0.763529" stroke-linecap="round" stroke-linejoin="round"/>
<path d="M743.762 50.7479L753.306 50.6621" stroke="#282828" stroke-width="0.763529" stroke-linecap="round" stroke-linejoin="round"/>
<path d="M786.399 51.4257L784.235 51.4686C784.166 51.459 784.102 51.4301 784.05 51.3853C783.997 51.3404 783.959 51.2815 783.939 51.2154L783.734 48.4573C783.733 48.418 783.74 48.3789 783.755 48.3424C783.769 48.3059 783.791 48.2727 783.819 48.2448C783.846 48.2169 783.879 48.195 783.916 48.1803C783.952 48.1655 783.991 48.1584 784.031 48.1592H786.195C786.263 48.1695 786.328 48.1989 786.38 48.244C786.433 48.2891 786.472 48.3482 786.493 48.4144L786.697 51.1297C786.691 51.2068 786.658 51.2793 786.603 51.3338C786.549 51.3882 786.476 51.4209 786.399 51.4257Z" fill="#282828"/>
<path d="M788.436 48.1184H795.52" stroke="#282828" stroke-width="0.763529" stroke-linecap="round" stroke-linejoin="round"/>
<path d="M788.646 50.2802L795.69 50.1965" stroke="#282828" stroke-width="0.763529" stroke-linecap="round" stroke-linejoin="round"/>
<path d="M784.151 53.8021L795.945 53.5061" stroke="#282828" stroke-width="0.763529" stroke-linecap="round" stroke-linejoin="round"/>
<path d="M741.087 58.6811L738.329 58.7668C738.201 58.7668 738.078 58.7187 737.984 58.6321C737.89 58.5455 737.831 58.4268 737.821 58.2993L737.617 55.4146C737.613 55.3503 737.622 55.2858 737.643 55.2251C737.665 55.1644 737.699 55.1086 737.742 55.0612C737.786 55.0137 737.839 54.9755 737.897 54.9489C737.956 54.9223 738.02 54.9078 738.084 54.9063L740.842 54.8206C740.968 54.8274 741.088 54.8778 741.18 54.9631C741.273 55.0484 741.333 55.1633 741.351 55.2881L741.555 58.1299C741.563 58.2643 741.519 58.3966 741.432 58.4993C741.344 58.602 741.221 58.6671 741.087 58.6811Z" fill="#FFE779"/>
<path d="M744.058 54.7778L753.604 54.5247" stroke="#282828" stroke-width="0.763529" stroke-linecap="round" stroke-linejoin="round"/>
<path d="M744.227 57.2809L753.773 56.9849" stroke="#282828" stroke-width="0.763529" stroke-linecap="round" stroke-linejoin="round"/>
<path d="M748.045 38.1478L733.754 37.7231C733.527 37.7172 733.31 37.6269 733.145 37.47C732.981 37.3131 732.881 37.1006 732.864 36.8739L732.695 34.6282C732.684 34.501 732.7 34.3729 732.743 34.2525C732.785 34.1321 732.853 34.0221 732.941 33.9298C733.029 33.8375 733.136 33.765 733.254 33.7172C733.373 33.6693 733.5 33.6472 733.628 33.6523L747.918 34.2464C748.145 34.2533 748.361 34.3436 748.525 34.5C748.688 34.6563 748.789 34.8678 748.806 35.0936L748.98 37.1699C748.987 37.2965 748.968 37.4232 748.924 37.5422C748.88 37.6611 748.812 37.7698 748.724 37.8615C748.637 37.9532 748.531 38.0259 748.414 38.0751C748.297 38.1243 748.172 38.1491 748.045 38.1478V38.1478Z" fill="#6DAFA7"/>
<path d="M762.513 48.202L776.005 48.1592" stroke="#282828" stroke-width="0.763529" stroke-linecap="round" stroke-linejoin="round"/>
<path d="M762.682 50.5784L776.175 50.4089" stroke="#282828" stroke-width="0.763529" stroke-linecap="round" stroke-linejoin="round"/>
<path d="M762.938 54.3123L770.191 54.1428" stroke="#282828" stroke-width="0.763529" stroke-linecap="round" stroke-linejoin="round"/>
<path d="M796.835 37.9353C796.794 37.2983 796.327 36.7471 795.775 36.7104C795.265 36.6696 794.842 37.2208 794.926 37.8557C794.969 38.5355 795.437 39.0806 795.988 39.0806C796.496 39.1235 796.878 38.5723 796.835 37.9353Z" fill="#63737A"/>
<path d="M793.06 37.8086C793.018 37.1287 792.509 36.5836 791.999 36.5836C791.448 36.5408 791.066 37.092 791.109 37.7718C791.152 38.4516 791.66 38.9967 792.211 38.9967C792.72 38.9947 793.107 38.4435 793.06 37.8086Z" fill="#63737A"/>
<path d="M789.157 37.6372C789.114 36.9594 788.606 36.4123 788.054 36.3653C787.503 36.3184 787.079 36.8737 787.119 37.5535C787.16 38.2333 787.671 38.7784 788.224 38.8254C788.82 38.8682 789.2 38.317 789.157 37.6372Z" fill="#63737A"/>
<path d="M814.062 43.4982L795.224 43.1593C794.856 43.16 794.501 43.0197 794.233 42.7673C793.965 42.5149 793.803 42.1694 793.781 41.8017L792.087 21.0415C792.077 20.878 792.102 20.7144 792.16 20.5613C792.218 20.4083 792.308 20.2693 792.424 20.1535C792.539 20.0377 792.678 19.9478 792.831 19.8898C792.984 19.8317 793.148 19.8067 793.311 19.8165L812.234 21.8111C812.579 21.8439 812.901 21.9987 813.142 22.2475C813.383 22.4964 813.527 22.823 813.549 23.1687L815.205 42.2182C815.223 42.3792 815.207 42.5423 815.158 42.6968C815.109 42.8512 815.028 42.9936 814.92 43.1145C814.812 43.2353 814.68 43.332 814.532 43.3982C814.384 43.4643 814.224 43.4984 814.062 43.4982V43.4982Z" fill="#B9896D"/>
<path d="M815.078 43.1533L796.241 42.8144C795.873 42.8151 795.518 42.6748 795.25 42.4223C794.982 42.1699 794.821 41.8244 794.799 41.4568L793.107 20.7109C793.097 20.5475 793.122 20.3838 793.18 20.2308C793.238 20.0777 793.328 19.9387 793.444 19.8229C793.56 19.7072 793.699 19.6173 793.852 19.5592C794.005 19.5011 794.169 19.4761 794.332 19.486L813.255 21.4805C813.6 21.513 813.922 21.6676 814.163 21.9165C814.404 22.1654 814.548 22.4923 814.57 22.8382L816.223 41.8876C816.236 42.0469 816.216 42.2071 816.164 42.3584C816.113 42.5097 816.031 42.6488 815.923 42.7673C815.816 42.8858 815.686 42.9812 815.54 43.0476C815.395 43.114 815.238 43.1499 815.078 43.1533V43.1533Z" fill="#FEBB94"/>
<path d="M801.333 23.3403L811.303 24.2733" stroke="#63737A" stroke-width="0.763529" stroke-linecap="round" stroke-linejoin="round"/>
<path d="M801.502 25.3779L811.473 26.2252" stroke="#63737A" stroke-width="0.763529" stroke-linecap="round" stroke-linejoin="round"/>
<path d="M801.884 30.0447L811.897 30.7225" stroke="#63737A" stroke-width="0.763529" stroke-linecap="round" stroke-linejoin="round"/>
<path d="M802.053 32.0374L812.024 32.6314" stroke="#63737A" stroke-width="0.763529" stroke-linecap="round" stroke-linejoin="round"/>
<path d="M802.478 36.7471L812.448 37.1717" stroke="#63737A" stroke-width="0.763529" stroke-linecap="round" stroke-linejoin="round"/>
<path d="M802.647 38.7417L812.618 39.0806" stroke="#63737A" stroke-width="0.763529" stroke-linecap="round" stroke-linejoin="round"/>
<path d="M797.896 24.4859L798.405 25.1228L799.128 24.147" stroke="#6DAFA7" stroke-width="0.763529" stroke-linecap="round" stroke-linejoin="round"/>
<path d="M798.448 31.2736L798.956 31.8677L799.72 30.8918" stroke="#6DAFA7" stroke-width="0.763529" stroke-linecap="round" stroke-linejoin="round"/>
<path d="M798.999 37.9354L799.55 38.5295L800.273 37.5107" stroke="#6DAFA7" stroke-width="0.763529" stroke-linecap="round" stroke-linejoin="round"/>
<path d="M754.495 152.225C754.495 152.225 754.576 144.668 752.587 140.294C752.587 140.294 731.113 144.19 727.136 146.497C727.136 146.497 730.714 150.077 731.829 154.451C733.023 158.745 754.338 159.62 754.495 152.225Z" fill="white"/>
<path d="M755.133 157.712C755.133 157.712 756.476 143.952 757.121 141.088C757.121 141.088 739.703 142.52 733.181 146.259L734.931 160.814L755.133 157.712Z" fill="#F4C2C9"/>
<path d="M774.459 168.369C774.459 168.369 774.38 158.196 777.163 153.338C777.163 153.338 760.779 153.655 757.121 155.803C753.463 157.95 753.944 168.29 753.944 168.29C753.944 168.29 773.743 169.484 774.459 168.369Z" fill="white"/>
<path d="M777.163 163.916H759.109V213.626H777.163V163.916Z" fill="#6DAFA7"/>
<path d="M768.177 206.786C770.109 206.786 771.676 205.219 771.676 203.287C771.676 201.354 770.109 199.788 768.177 199.788C766.244 199.788 764.678 201.354 764.678 203.287C764.678 205.219 766.244 206.786 768.177 206.786Z" stroke="#22272E" stroke-width="1.43187" stroke-linecap="round" stroke-linejoin="round"/>
<path d="M741.054 213.705V152.225L730.238 154.849V207.264L741.054 213.705Z" fill="#6DAFA7"/>
<path d="M759.108 152.225H741.054V213.705H759.108V152.225Z" fill="#FFE779"/>
<path d="M750.043 206.786C751.975 206.786 753.542 205.219 753.542 203.287C753.542 201.354 751.975 199.788 750.043 199.788C748.11 199.788 746.543 201.354 746.543 203.287C746.543 205.219 748.11 206.786 750.043 206.786Z" stroke="#22272E" stroke-width="1.43187" stroke-linecap="round" stroke-linejoin="round"/>
<path d="M745.668 189.845H754.495" stroke="#22272E" stroke-width="1.43187" stroke-linecap="round" stroke-linejoin="round"/>
<path d="M745.668 193.344H754.495" stroke="#22272E" stroke-width="1.43187" stroke-linecap="round" stroke-linejoin="round"/>
<path d="M620.665 121.729L597.526 122.797C595.676 122.868 594.393 121.374 594.608 119.45L598.452 81.0037C598.665 79.0103 600.303 77.2277 602.155 77.0168L625.723 73.9556C627.786 73.6704 629.211 75.1652 628.997 77.2303L624.654 117.884C624.51 119.875 622.659 121.587 620.665 121.729Z" fill="#22272E"/>
<path d="M618.957 120.946L595.817 122.014C593.966 122.086 592.685 120.59 592.898 118.668L596.743 80.2211C596.957 78.2276 598.595 76.445 600.445 76.2341L624.01 73.1716C626.075 72.8877 627.5 74.3825 627.286 76.4476L622.944 117.101C622.73 119.166 620.95 120.875 618.957 120.946Z" fill="#22272E"/>
<path d="M620.024 86.1301L602.011 88.0533C601.877 88.0683 601.742 88.053 601.614 88.0086C601.487 87.9642 601.371 87.8918 601.276 87.7967C601.18 87.7016 601.107 87.5862 601.062 87.4592C601.017 87.3321 601.001 87.1965 601.015 87.0624L601.442 82.6484C601.513 82.2213 601.798 81.8671 602.224 81.8671L620.308 79.7317C620.443 79.7166 620.579 79.732 620.707 79.7768C620.835 79.8215 620.951 79.8946 621.047 79.9904C621.143 80.0862 621.216 80.2023 621.261 80.3302C621.305 80.4581 621.321 80.5945 621.306 80.7291L620.807 85.3567C620.803 85.562 620.718 85.7576 620.572 85.902C620.426 86.0463 620.23 86.1282 620.024 86.1301V86.1301Z" fill="#F4C2C9"/>
<path d="M603.293 98.376L600.949 98.5895C600.815 98.6049 600.678 98.5897 600.551 98.5451C600.423 98.5005 600.307 98.4276 600.211 98.3318C600.115 98.2361 600.042 98.1199 599.998 97.9921C599.953 97.8642 599.938 97.728 599.953 97.5934L600.237 95.0296C600.309 94.6026 600.594 94.2484 601.018 94.2484L603.362 94.0348C603.497 94.0195 603.633 94.0347 603.761 94.0793C603.889 94.1239 604.005 94.1968 604.101 94.2925C604.197 94.3883 604.27 94.5044 604.314 94.6322C604.359 94.76 604.374 94.8963 604.359 95.0309L604.074 97.5947C604.077 98.0205 603.721 98.3044 603.293 98.376Z" fill="#B0D7C0"/>
<path d="M618.885 97.023L616.328 97.2366C616.193 97.2519 616.057 97.2367 615.929 97.1921C615.801 97.1475 615.685 97.0746 615.589 96.9789C615.493 96.8832 615.42 96.7671 615.375 96.6392C615.331 96.5114 615.315 96.3751 615.33 96.2405L615.616 93.5348C615.687 93.1077 615.972 92.7535 616.397 92.7535L618.959 92.4697C619.094 92.4543 619.23 92.4695 619.358 92.5141C619.486 92.5588 619.602 92.6316 619.698 92.7274C619.794 92.8231 619.867 92.9392 619.912 93.067C619.956 93.1949 619.972 93.3311 619.957 93.4658L619.672 96.1715C619.66 96.3826 619.575 96.583 619.431 96.7384C619.288 96.8938 619.095 96.9944 618.885 97.023V97.023Z" fill="#B0D7C0"/>
<path d="M610.99 97.6637L608.569 97.8772C608.434 97.8926 608.298 97.8774 608.17 97.8328C608.042 97.7881 607.926 97.7153 607.83 97.6195C607.734 97.5238 607.661 97.4077 607.617 97.2799C607.572 97.152 607.556 97.0158 607.572 96.8812L607.857 94.247C607.928 93.82 608.212 93.4658 608.638 93.4658L611.059 93.2522C611.193 93.2371 611.329 93.2525 611.457 93.2973C611.585 93.342 611.701 93.4151 611.797 93.5109C611.893 93.6068 611.966 93.7229 612.01 93.8508C612.055 93.9787 612.07 94.1151 612.055 94.2496L611.771 96.8812C611.769 97.0879 611.686 97.2858 611.54 97.4322C611.394 97.5785 611.196 97.6617 610.99 97.6637Z" fill="#B0D7C0"/>
<path d="M602.368 107.134L600.024 107.276C599.455 107.347 599.028 106.849 599.028 106.28L599.312 103.716C599.342 103.507 599.444 103.314 599.6 103.172C599.756 103.029 599.957 102.946 600.168 102.935L602.511 102.721C602.646 102.706 602.782 102.721 602.91 102.766C603.038 102.81 603.154 102.883 603.25 102.979C603.346 103.075 603.419 103.191 603.464 103.318C603.509 103.446 603.524 103.583 603.509 103.717L603.224 106.281C603.151 106.777 602.795 107.134 602.368 107.134Z" fill="#B0D7C0"/>
<path d="M617.961 106.073L615.397 106.286C614.828 106.356 614.401 105.859 614.401 105.289L614.685 102.655C614.756 102.228 615.112 101.873 615.539 101.873L618.103 101.646C618.237 101.63 618.374 101.646 618.501 101.691C618.629 101.735 618.745 101.808 618.841 101.904C618.937 102 619.01 102.116 619.054 102.244C619.099 102.372 619.114 102.508 619.099 102.643L618.815 105.349C618.743 105.639 618.388 105.995 617.961 106.073Z" fill="#B0D7C0"/>
<path d="M610.057 106.635L607.637 106.777C607.068 106.849 606.639 106.35 606.639 105.781L606.924 103.147C606.996 102.72 607.351 102.366 607.778 102.366L610.199 102.152C610.334 102.137 610.47 102.152 610.598 102.197C610.726 102.242 610.842 102.315 610.938 102.41C611.034 102.506 611.107 102.623 611.152 102.751C611.197 102.879 611.212 103.015 611.196 103.15L610.911 105.784C610.872 105.996 610.77 106.191 610.617 106.343C610.465 106.495 610.269 106.597 610.057 106.635V106.635Z" fill="#B0D7C0"/>
<path d="M601.442 115.89L599.164 116.033C598.595 116.033 598.168 115.606 598.238 115.036L598.523 112.474C598.595 112.046 598.95 111.692 599.377 111.692L601.656 111.55C602.225 111.479 602.652 111.977 602.582 112.546L602.297 115.11C602.297 115.535 601.875 115.89 601.442 115.89Z" fill="#B0D7C0"/>
<path d="M616.963 115.036L614.401 115.179C613.831 115.179 613.404 114.752 613.475 114.182L613.759 111.548C613.831 111.121 614.187 110.766 614.614 110.766L617.177 110.625C617.747 110.553 618.174 111.052 618.103 111.622L617.818 114.326C617.773 114.522 617.666 114.698 617.511 114.826C617.357 114.955 617.164 115.028 616.963 115.036V115.036Z" fill="#FFE779"/>
<path d="M609.131 115.463L606.711 115.607C606.142 115.607 605.715 115.18 605.785 114.609L606.07 112.047C606.142 111.62 606.497 111.265 606.924 111.265L609.345 111.124C609.915 111.052 610.342 111.551 610.271 112.12L609.985 114.755C609.941 114.951 609.833 115.126 609.679 115.254C609.524 115.382 609.332 115.456 609.131 115.463V115.463Z" fill="#FFE779"/>
<path d="M656.274 74.7239L653.514 77.7446C653.082 78.1754 653.082 78.9527 653.514 79.4704C653.711 79.6745 653.968 79.8098 654.248 79.8563C654.528 79.9028 654.815 79.858 655.067 79.7286L658.345 77.7446L656.274 74.7239Z" fill="#22272E"/>
<path d="M681.468 82.0579L682.244 86.1128C682.331 86.7175 681.986 87.4078 681.387 87.5816C681.101 87.6735 680.79 87.6534 680.517 87.5253C680.245 87.3973 680.031 87.1707 679.919 86.8913L678.193 83.4397L681.468 82.0579Z" fill="#22272E"/>
<path d="M672.236 85.5952C682.623 85.5952 691.044 77.1743 691.044 66.7866C691.044 56.3989 682.623 47.978 672.236 47.978C661.848 47.978 653.427 56.3989 653.427 66.7866C653.427 77.1743 661.848 85.5952 672.236 85.5952Z" fill="#6DAFA7"/>
<path d="M680.763 75.3459C685.48 70.6291 685.48 62.9817 680.763 58.265C676.047 53.5482 668.399 53.5482 663.683 58.265C658.966 62.9817 658.966 70.6291 663.683 75.3459C668.399 80.0626 676.047 80.0626 680.763 75.3459Z" fill="#FFE779"/>
<path d="M675.602 71.101L672.236 66.7866L674.049 60.7476" stroke="#63737A" stroke-width="1.5532" stroke-linecap="round" stroke-linejoin="round"/>
<path d="M660.243 48.5888C660.113 48.633 659.975 48.6501 659.838 48.6389C659.701 48.6278 659.568 48.5886 659.447 48.5239C659.326 48.4592 659.219 48.3703 659.133 48.2628C659.048 48.1552 658.985 48.0312 658.95 47.8985C658.757 46.659 658.996 45.391 659.627 44.307C660.258 43.223 661.243 42.3887 662.416 41.9441C663.588 41.4994 664.879 41.4714 666.07 41.8647C667.261 42.2579 668.28 43.0486 668.958 44.1042C669.303 44.6219 669.044 45.2253 668.44 45.4848L660.243 48.5888Z" fill="#6DAFA7"/>
<path d="M692.08 57.9007C692.167 58.0085 692.275 58.0969 692.399 58.1602C692.522 58.2236 692.657 58.2605 692.795 58.2685C692.934 58.2766 693.072 58.2557 693.202 58.2071C693.331 58.1585 693.45 58.0833 693.549 57.9863C695.274 56.088 695.447 53.2411 693.807 51.0844C692.167 48.9278 689.409 48.3232 687.162 49.4456C686.644 49.7038 686.472 50.3941 686.817 50.825L692.08 57.9007Z" fill="#6DAFA7"/>
<path d="M680.778 46.5974L675.86 45.2167C675.089 44.9585 674.566 44.1825 674.825 43.3257C675.084 42.5485 675.86 42.0308 676.723 42.2903L681.641 43.6709C682.417 43.9291 682.934 44.7064 682.676 45.568C682.417 46.3391 681.554 46.8569 680.778 46.5974Z" fill="#6DAFA7"/>
<path d="M676.761 44.4705L675.413 49.1108L678.975 50.1458L680.323 45.5055L676.761 44.4705Z" fill="#6DAFA7"/>
<path d="M575.263 63.7682C563.695 74.9793 549.321 77.1938 544.113 69.4775C539.505 62.6609 543.862 50.5433 553.278 41.7793C562.543 33.1647 574.762 29.609 581.375 34.1668C588.835 39.2699 586.632 52.7468 575.263 63.7682Z" fill="#F8AB5D"/>
<path d="M573.61 62.0619C562.042 73.2799 547.668 75.4875 542.46 67.7713C537.852 60.9602 542.21 48.8412 551.625 40.0758C560.89 31.4626 573.109 27.9069 579.722 32.4633C587.232 37.6218 584.979 51.0945 573.61 62.0619Z" fill="#FFE779"/>
<path d="M568.752 57.2036C561.792 63.8652 553.078 65.5178 549.572 61.0597C546.366 56.9531 548.921 49.1912 555.031 43.4818C561.09 37.8223 568.953 35.6687 573.01 38.8742C577.367 42.2804 575.615 50.5933 568.752 57.2036Z" fill="#6DAFA7"/>
<path d="M564.295 52.7467C561.541 55.3501 558.035 56.1017 556.533 54.4491C555.08 52.8463 556.032 49.591 558.636 47.137C561.239 44.683 564.596 43.8816 566.199 45.3377C567.851 46.7868 567.05 50.1418 564.295 52.7467Z" fill="#F4C2C9"/>
<path d="M546.517 35.919C546.264 36.1533 545.967 36.3353 545.644 36.4546C545.321 36.5739 544.977 36.6282 544.632 36.6143C544.288 36.6004 543.95 36.5187 543.637 36.3737C543.324 36.2287 543.043 36.0234 542.81 35.7695L533.895 24.4007C533.674 24.1143 533.567 23.756 533.595 23.3952C533.623 23.0343 533.783 22.6967 534.046 22.4477V22.4477C534.314 22.2058 534.662 22.0718 535.023 22.0718C535.383 22.0718 535.731 22.2058 535.999 22.4477L546.616 32.2111C546.865 32.4547 547.061 32.747 547.192 33.0697C547.322 33.3925 547.385 33.7387 547.375 34.0868C547.366 34.4348 547.285 34.7772 547.137 35.0925C546.989 35.4078 546.778 35.6891 546.517 35.919V35.919Z" fill="#22272E"/>
<path d="M535.949 26.5547L533.095 26.9519C532.294 27.0529 531.988 28.0592 532.594 28.5547C534.349 30.1012 536.499 31.1279 538.805 31.5194L540.257 31.7699C540.295 31.7769 540.334 31.7727 540.369 31.7578C540.404 31.7428 540.435 31.7178 540.456 31.6859C540.477 31.6539 540.489 31.6164 540.489 31.5779C540.489 31.5395 540.478 31.5018 540.457 31.4696L536.851 26.9049C536.74 26.7782 536.6 26.6803 536.443 26.6193C536.286 26.5583 536.117 26.5362 535.949 26.5547V26.5547Z" fill="#6DAFA7"/>
<path d="M538.053 24.6514L538.702 21.8472C538.74 21.6718 538.828 21.5111 538.955 21.3844C539.082 21.2578 539.243 21.1706 539.419 21.1334C539.594 21.0963 539.777 21.1107 539.944 21.175C540.112 21.2392 540.257 21.3506 540.363 21.4957V21.4957C541.77 23.3578 542.618 25.5811 542.81 27.9067L542.911 29.3586C542.91 29.3933 542.9 29.4271 542.881 29.4563C542.863 29.4856 542.837 29.5092 542.806 29.5247C542.775 29.5402 542.74 29.547 542.705 29.5443C542.671 29.5416 542.638 29.5296 542.609 29.5095L538.353 25.6022C538.053 25.3019 537.952 24.9517 538.053 24.6514Z" fill="#6DAFA7"/>
<path d="M546.116 35.4695L548.971 38.5242" stroke="#22272E" stroke-width="0.901038" stroke-linecap="round" stroke-linejoin="round"/>
<path d="M706.64 146.367C706.435 145.894 706.095 145.491 705.662 145.211C705.228 144.931 704.722 144.785 704.206 144.793C703.69 144.8 703.188 144.961 702.763 145.254C702.339 145.547 702.01 145.959 701.82 146.439C701.63 146.918 701.586 147.444 701.694 147.948C701.802 148.453 702.058 148.914 702.428 149.273C702.798 149.632 703.267 149.874 703.774 149.967C704.282 150.06 704.806 150 705.279 149.795C705.596 149.662 705.883 149.468 706.123 149.222C706.364 148.977 706.553 148.686 706.679 148.367C706.806 148.048 706.868 147.707 706.861 147.363C706.854 147.02 706.779 146.681 706.64 146.367Z" fill="#6DAFA7"/>
<path d="M706.96 115.402C707.92 117.25 708.491 119.273 708.641 121.349C708.79 123.425 708.514 125.51 707.829 127.475C706.406 131.524 706.564 135.961 708.272 139.898L709.336 142.362C709.61 143.016 709.616 143.752 709.355 144.411C709.093 145.071 708.584 145.601 707.936 145.89L700.756 148.993C700.102 149.266 699.366 149.273 698.707 149.012C698.048 148.75 697.517 148.241 697.228 147.594L696.164 145.13C694.46 141.187 691.339 138.025 687.447 136.364C683.925 134.828 681.121 132.005 679.609 128.473C676.142 120.449 680.172 111.021 688.515 108.085C695.522 105.559 703.487 108.716 706.96 115.402Z" fill="#FFE779"/>
<path d="M696.093 145.16L708.201 139.929" stroke="#22272E" stroke-width="1.38055" stroke-linecap="round" stroke-linejoin="round"/>
<path d="M697.127 147.554L709.235 142.323" stroke="#22272E" stroke-width="1.38055" stroke-linecap="round" stroke-linejoin="round"/>
<path d="M700.88 143.092L692.545 123.803C691.785 122.042 689.358 121.838 688.305 123.461C687.513 124.722 688.102 126.472 689.58 127.002L690.759 127.412" stroke="#22272E" stroke-width="1.38055" stroke-linecap="round" stroke-linejoin="round"/>
<path d="M703.414 141.998L695.079 122.708C694.318 120.947 695.833 119.04 697.736 119.386C699.197 119.674 700.068 121.302 699.442 122.741L698.932 123.881" stroke="#22272E" stroke-width="1.38055" stroke-linecap="round" stroke-linejoin="round"/>
<defs>
<linearGradient id="paint0_linear_3028_6812" x1="0" y1="61" x2="1057.77" y2="261.767" gradientUnits="userSpaceOnUse">
<stop stop-color="#ADF5E8"/>
<stop offset="1" stop-color="#42D3F3"/>
</linearGradient>
<linearGradient id="paint1_linear_3028_6812" x1="903.562" y1="46.9259" x2="908.518" y2="131.061" gradientUnits="userSpaceOnUse">
<stop stop-color="white"/>
<stop offset="1" stop-color="#94B9FF"/>
</linearGradient>
<linearGradient id="paint2_linear_3028_6812" x1="890.876" y1="71.7759" x2="911.617" y2="217.16" gradientUnits="userSpaceOnUse">
<stop stop-color="white"/>
<stop offset="1" stop-color="#94B9FF"/>
</linearGradient>
<linearGradient id="paint3_linear_3028_6812" x1="944.561" y1="71.7759" x2="965.301" y2="217.16" gradientUnits="userSpaceOnUse">
<stop stop-color="white"/>
<stop offset="1" stop-color="#94B9FF"/>
</linearGradient>
<linearGradient id="paint4_linear_3028_6812" x1="845.059" y1="162.518" x2="850.116" y2="224.773" gradientUnits="userSpaceOnUse">
<stop stop-color="white"/>
<stop offset="1" stop-color="#94B9FF"/>
</linearGradient>
</defs>
</svg>
