<svg width="1703" height="980" viewBox="0 0 1703 980" fill="none" xmlns="http://www.w3.org/2000/svg">
<g filter="url(#filter0_d_2104_6284)">
<path d="M441 34.03C263.607 50.4023 0 138.71 0 138.71V980.5H1703V0C1703 0 1397.86 119.252 1186.5 138.71C893.746 165.662 733.748 7.01108 441 34.03Z" fill="#ECFBFF"/>
</g>
<path d="M35 980.569C35 919.069 84.7 835.169 167.5 795.569C271 746.069 243.587 597.539 322.5 530.569C415 452.069 545 569.569 487 690.069C455.448 755.62 469.5 778.069 487 795.569C504.5 813.069 593 813.069 644.5 701.069C696 589.069 769.5 681.569 769.5 681.569C769.5 681.569 898.638 826.666 968 776.069C1017.89 739.673 973.53 674.313 1008 623.069C1059.52 546.482 1202.5 580.069 1219.5 517.569C1236.5 455.069 1275 300.069 1357 362.569C1439 425.069 1405.5 658.069 1486 658.069C1566.5 658.069 1475.72 457.101 1566.5 425.069C1619.26 406.453 1677.67 432.569 1708.5 444.069" stroke="#D7E9FF" stroke-width="25"/>
<defs>
<filter id="filter0_d_2104_6284" x="-10" y="-12" width="1723" height="1000.5" filterUnits="userSpaceOnUse" color-interpolation-filters="sRGB">
<feFlood flood-opacity="0" result="BackgroundImageFix"/>
<feColorMatrix in="SourceAlpha" type="matrix" values="0 0 0 0 0 0 0 0 0 0 0 0 0 0 0 0 0 0 127 0" result="hardAlpha"/>
<feOffset dy="-2"/>
<feGaussianBlur stdDeviation="5"/>
<feComposite in2="hardAlpha" operator="out"/>
<feColorMatrix type="matrix" values="0 0 0 0 0 0 0 0 0 0 0 0 0 0 0 0 0 0 0.1 0"/>
<feBlend mode="normal" in2="BackgroundImageFix" result="effect1_dropShadow_2104_6284"/>
<feBlend mode="normal" in="SourceGraphic" in2="effect1_dropShadow_2104_6284" result="shape"/>
</filter>
</defs>
</svg>
