<svg width="801" height="646" viewBox="0 0 801 646" fill="none" xmlns="http://www.w3.org/2000/svg">
<g filter="url(#filter0_d_2104_6010)">
<path d="M638.442 281.098C497.223 199.634 269.013 199.634 128.705 281.098C-11.604 362.561 -10.7894 494.835 130.494 576.362C271.777 657.89 499.922 657.906 640.231 576.362C780.54 494.819 779.725 362.641 638.442 281.098Z" fill="#F0F0F0"/>
</g>
<g filter="url(#filter1_d_2104_6010)">
<path d="M676.3 427.8L156.3 412.9C144.608 412.575 133.436 407.999 124.876 400.028C116.316 392.057 110.956 381.239 109.8 369.6L84.6998 121.6C84.0315 114.962 84.7493 108.257 86.8077 101.91C88.866 95.564 92.2201 89.7142 96.6573 84.7317C101.095 79.7492 106.518 75.7426 112.585 72.9657C118.651 70.1889 125.229 68.7023 131.9 68.6001L710.7 60.6001C717.583 60.5071 724.406 61.889 730.71 64.6531C737.014 67.4171 742.653 71.4992 747.248 76.6246C751.843 81.7501 755.287 87.8001 757.349 94.3677C759.41 100.935 760.041 107.868 759.2 114.7L725.5 385.6C723.998 397.485 718.13 408.387 709.037 416.187C699.944 423.986 688.275 428.125 676.3 427.8Z" fill="#A6D8E4"/>
</g>
<path d="M520.6 439.6L522.4 480.1C522.4 484.078 520.819 487.894 518.006 490.707C515.193 493.52 511.378 495.1 507.4 495.1H91.7998C87.8216 495.1 84.0063 493.52 81.1932 490.707C78.3802 487.894 76.7998 484.078 76.7998 480.1V244.4C76.7998 240.422 78.3802 236.606 81.1932 233.793C84.0063 230.98 87.8216 229.4 91.7998 229.4H507.3C511.278 229.4 515.093 230.98 517.906 233.793C520.719 236.606 522.3 240.422 522.3 244.4V403.8" stroke="#77B7CB" stroke-width="1.8" stroke-linecap="round" stroke-linejoin="round"/>
<path d="M613.7 404.8V172.7C613.7 168.722 615.28 164.906 618.093 162.093C620.906 159.28 624.721 157.7 628.7 157.7H752.7C756.678 157.7 760.493 159.28 763.306 162.093C766.119 164.906 767.7 168.722 767.7 172.7V517C767.7 520.978 766.119 524.794 763.306 527.607C760.493 530.42 756.678 532 752.7 532H628.7C624.721 532 620.906 530.42 618.093 527.607C615.28 524.794 613.7 520.978 613.7 517V442.1" stroke="#77B7CB" stroke-width="1.8" stroke-linecap="round" stroke-linejoin="round"/>
<path d="M169.9 159.1H80V150.2H169.9C170.137 150.199 170.371 150.244 170.59 150.334C170.809 150.424 171.008 150.557 171.176 150.724C171.343 150.892 171.476 151.091 171.566 151.31C171.656 151.529 171.701 151.763 171.7 152V157.2C171.72 157.446 171.687 157.694 171.605 157.926C171.523 158.159 171.393 158.372 171.223 158.551C171.054 158.73 170.848 158.872 170.62 158.966C170.392 159.061 170.147 159.106 169.9 159.1V159.1Z" stroke="#77B7CB" stroke-width="1.8" stroke-linecap="round" stroke-linejoin="round"/>
<path d="M156.2 229.4H135.9C134.842 229.403 133.82 229.018 133.028 228.317C132.235 227.617 131.727 226.65 131.6 225.6L130 211.2C129.934 210.596 129.996 209.984 130.182 209.406C130.368 208.827 130.673 208.294 131.079 207.841C131.485 207.388 131.981 207.026 132.536 206.777C133.091 206.529 133.692 206.401 134.3 206.4H157.8C158.407 206.402 159.007 206.532 159.562 206.781C160.116 207.029 160.611 207.392 161.017 207.844C161.422 208.297 161.728 208.829 161.914 209.407C162.101 209.985 162.164 210.596 162.1 211.2L160.5 225.6C160.387 226.656 159.884 227.632 159.088 228.335C158.292 229.039 157.262 229.418 156.2 229.4V229.4Z" stroke="#77B7CB" stroke-width="1.8" stroke-linecap="round" stroke-linejoin="round"/>
<path d="M143.7 206.5C143.7 206.5 135.7 205.7 134.1 194.9C134.1 194.9 141.3 197 143.6 202.1C143.6 202.1 144.6 190.7 150 189.6C150 189.6 152.4 198.1 148.6 202.3C148.6 202.3 151.5 197.5 158.9 197.6C158.2 199.706 156.997 201.609 155.393 203.143C153.789 204.677 151.835 205.795 149.7 206.4" fill="#77B7CB"/>
<path d="M702.3 157.7H682C680.942 157.703 679.92 157.318 679.128 156.617C678.335 155.917 677.827 154.95 677.7 153.9L676.1 139.5C676.034 138.896 676.096 138.284 676.282 137.706C676.468 137.127 676.773 136.594 677.179 136.141C677.585 135.688 678.081 135.326 678.636 135.078C679.191 134.829 679.792 134.701 680.4 134.7H703.9C704.507 134.702 705.107 134.832 705.662 135.081C706.216 135.329 706.712 135.692 707.117 136.144C707.522 136.597 707.828 137.129 708.015 137.707C708.201 138.285 708.264 138.896 708.2 139.5L706.6 153.9C706.472 154.95 705.964 155.917 705.172 156.617C704.379 157.318 703.357 157.703 702.3 157.7V157.7Z" stroke="#77B7CB" stroke-width="1.8" stroke-linecap="round" stroke-linejoin="round"/>
<path d="M689.7 134.8C689.7 134.8 681.7 134 680.1 123.2C680.1 123.2 687.3 125.3 689.6 130.4C689.6 130.4 690.6 119 696 117.9C696 117.9 698.4 126.4 694.6 130.6C694.6 130.6 697.5 125.8 704.9 125.9C704.201 128.006 702.997 129.909 701.393 131.443C699.79 132.977 697.835 134.095 695.7 134.7" fill="#77B7CB"/>
<path d="M504.2 279.1H414C412.888 279.092 411.825 278.647 411.039 277.861C410.253 277.075 409.808 276.012 409.8 274.9V247.5C409.808 246.389 410.253 245.325 411.039 244.539C411.825 243.753 412.888 243.308 414 243.3H504.2C505.311 243.308 506.375 243.753 507.161 244.539C507.947 245.325 508.392 246.389 508.4 247.5V274.9C508.392 276.012 507.947 277.075 507.161 277.861C506.375 278.647 505.311 279.092 504.2 279.1V279.1Z" stroke="#77B7CB" stroke-width="1.8" stroke-linecap="round" stroke-linejoin="round"/>
<path d="M469.4 253H448.6C448.205 252.99 447.83 252.829 447.55 252.549C447.271 252.27 447.11 251.895 447.1 251.5C447.11 251.105 447.271 250.73 447.55 250.451C447.83 250.171 448.205 250.01 448.6 250H469.4C469.795 250.01 470.17 250.171 470.449 250.451C470.728 250.73 470.89 251.105 470.9 251.5C470.904 251.698 470.868 251.895 470.794 252.079C470.72 252.263 470.61 252.43 470.47 252.57C470.33 252.71 470.163 252.82 469.979 252.894C469.795 252.968 469.598 253.004 469.4 253Z" fill="#77B7CB"/>
<path d="M504.2 325H414C412.888 324.992 411.825 324.547 411.039 323.761C410.253 322.975 409.808 321.912 409.8 320.8V293.4C409.808 292.289 410.253 291.225 411.039 290.439C411.825 289.653 412.888 289.208 414 289.2H504.2C505.311 289.208 506.375 289.653 507.161 290.439C507.947 291.225 508.392 292.289 508.4 293.4V320.8C508.392 321.912 507.947 322.975 507.161 323.761C506.375 324.547 505.311 324.992 504.2 325V325Z" stroke="#77B7CB" stroke-width="1.8" stroke-linecap="round" stroke-linejoin="round"/>
<path d="M469.4 298.8H448.6C448.205 298.79 447.83 298.629 447.55 298.35C447.271 298.07 447.11 297.695 447.1 297.3C447.11 296.905 447.271 296.53 447.55 296.251C447.83 295.971 448.205 295.81 448.6 295.8H469.4C469.795 295.81 470.17 295.971 470.449 296.251C470.728 296.53 470.89 296.905 470.9 297.3C470.904 297.498 470.868 297.695 470.794 297.879C470.72 298.063 470.61 298.23 470.47 298.37C470.33 298.51 470.163 298.62 469.979 298.694C469.795 298.768 469.598 298.804 469.4 298.8Z" fill="#77B7CB"/>
<path d="M389.2 279.1H299C297.888 279.092 296.825 278.647 296.039 277.861C295.253 277.075 294.808 276.012 294.8 274.9V247.5C294.808 246.389 295.253 245.325 296.039 244.539C296.825 243.753 297.888 243.308 299 243.3H389.2C390.311 243.308 391.375 243.753 392.161 244.539C392.947 245.325 393.392 246.389 393.4 247.5V274.9C393.392 276.012 392.947 277.075 392.161 277.861C391.375 278.647 390.311 279.092 389.2 279.1V279.1Z" stroke="#77B7CB" stroke-width="1.8" stroke-linecap="round" stroke-linejoin="round"/>
<path d="M354.5 253H333.7C333.305 252.99 332.929 252.829 332.65 252.549C332.371 252.27 332.21 251.895 332.2 251.5C332.21 251.105 332.371 250.73 332.65 250.451C332.929 250.171 333.305 250.01 333.7 250H354.5C354.894 250.01 355.27 250.171 355.549 250.451C355.828 250.73 355.99 251.105 356 251.5C355.99 251.895 355.828 252.27 355.549 252.549C355.27 252.829 354.894 252.99 354.5 253Z" fill="#77B7CB"/>
<path d="M389.2 325H299C297.888 324.992 296.825 324.547 296.039 323.761C295.253 322.975 294.808 321.912 294.8 320.8V293.4C294.808 292.289 295.253 291.225 296.039 290.439C296.825 289.653 297.888 289.208 299 289.2H389.2C390.311 289.208 391.375 289.653 392.161 290.439C392.947 291.225 393.392 292.289 393.4 293.4V320.8C393.392 321.912 392.947 322.975 392.161 323.761C391.375 324.547 390.311 324.992 389.2 325V325Z" stroke="#77B7CB" stroke-width="1.8" stroke-linecap="round" stroke-linejoin="round"/>
<path d="M354.5 298.8H333.7C333.305 298.79 332.929 298.629 332.65 298.35C332.371 298.07 332.21 297.695 332.2 297.3C332.21 296.905 332.371 296.53 332.65 296.251C332.929 295.971 333.305 295.81 333.7 295.8H354.5C354.894 295.81 355.27 295.971 355.549 296.251C355.828 296.53 355.99 296.905 356 297.3C355.99 297.695 355.828 298.07 355.549 298.35C355.27 298.629 354.894 298.79 354.5 298.8Z" fill="#77B7CB"/>
<path d="M504.2 369.8H414C412.888 369.792 411.825 369.347 411.039 368.561C410.253 367.775 409.808 366.711 409.8 365.6V338.2C409.808 337.089 410.253 336.025 411.039 335.239C411.825 334.453 412.888 334.008 414 334H504.2C505.311 334.008 506.375 334.453 507.161 335.239C507.947 336.025 508.392 337.089 508.4 338.2V365.6C508.392 366.711 507.947 367.775 507.161 368.561C506.375 369.347 505.311 369.792 504.2 369.8V369.8Z" stroke="#77B7CB" stroke-width="1.8" stroke-linecap="round" stroke-linejoin="round"/>
<path d="M469.4 343.7H448.6C448.205 343.69 447.83 343.529 447.55 343.25C447.271 342.97 447.11 342.595 447.1 342.2C447.11 341.805 447.271 341.43 447.55 341.151C447.83 340.871 448.205 340.71 448.6 340.7H469.4C469.795 340.71 470.17 340.871 470.449 341.151C470.728 341.43 470.89 341.805 470.9 342.2C470.904 342.398 470.868 342.595 470.794 342.779C470.72 342.963 470.61 343.13 470.47 343.27C470.33 343.41 470.163 343.52 469.979 343.594C469.795 343.668 469.598 343.704 469.4 343.7Z" fill="#77B7CB"/>
<path d="M389.2 369.8H299C297.888 369.792 296.825 369.347 296.039 368.561C295.253 367.775 294.808 366.711 294.8 365.6V338.2C294.808 337.089 295.253 336.025 296.039 335.239C296.825 334.453 297.888 334.008 299 334H389.2C390.311 334.008 391.375 334.453 392.161 335.239C392.947 336.025 393.392 337.089 393.4 338.2V365.6C393.392 366.711 392.947 367.775 392.161 368.561C391.375 369.347 390.311 369.792 389.2 369.8V369.8Z" stroke="#77B7CB" stroke-width="1.8" stroke-linecap="round" stroke-linejoin="round"/>
<path d="M354.5 343.7H333.7C333.305 343.69 332.929 343.529 332.65 343.25C332.371 342.97 332.21 342.595 332.2 342.2C332.21 341.805 332.371 341.43 332.65 341.151C332.929 340.871 333.305 340.71 333.7 340.7H354.5C354.894 340.71 355.27 340.871 355.549 341.151C355.828 341.43 355.99 341.805 356 342.2C355.99 342.595 355.828 342.97 355.549 343.25C355.27 343.529 354.894 343.69 354.5 343.7Z" fill="#77B7CB"/>
<path d="M794.9 262.5H635C633.784 262.487 632.621 261.998 631.762 261.138C630.902 260.279 630.413 259.116 630.4 257.9V178.2C630.413 176.984 630.902 175.822 631.762 174.962C632.621 174.102 633.784 173.613 635 173.6H794.9C796.116 173.613 797.278 174.102 798.138 174.962C798.998 175.822 799.487 176.984 799.5 178.2V257.9C799.509 258.507 799.397 259.109 799.169 259.672C798.941 260.234 798.603 260.745 798.174 261.174C797.745 261.603 797.234 261.941 796.671 262.169C796.109 262.397 795.507 262.51 794.9 262.5V262.5Z" stroke="#77B7CB" stroke-width="1.8" stroke-linecap="round" stroke-linejoin="round"/>
<path d="M794.9 361.5H635C633.784 361.487 632.621 360.998 631.762 360.138C630.902 359.279 630.413 358.116 630.4 356.9V277.2C630.413 275.984 630.902 274.822 631.762 273.962C632.621 273.102 633.784 272.613 635 272.6H794.9C796.116 272.613 797.278 273.102 798.138 273.962C798.998 274.822 799.487 275.984 799.5 277.2V356.9C799.501 357.505 799.383 358.103 799.152 358.662C798.922 359.221 798.583 359.728 798.156 360.156C797.728 360.583 797.22 360.922 796.662 361.153C796.103 361.383 795.504 361.501 794.9 361.5V361.5Z" stroke="#77B7CB" stroke-width="1.8" stroke-linecap="round" stroke-linejoin="round"/>
<path d="M671 212.2H661.1V262.5H671V212.2Z" stroke="#77B7CB" stroke-width="1.8" stroke-linecap="round" stroke-linejoin="round"/>
<path d="M681.2 226H670.9V262.6H681.2V226Z" stroke="#77B7CB" stroke-width="1.8" stroke-linecap="round" stroke-linejoin="round"/>
<path d="M133.7 99.9H123.8V150.2H133.7V99.9Z" stroke="#77B7CB" stroke-width="1.8" stroke-linecap="round" stroke-linejoin="round"/>
<path d="M143.9 113.6H133.6V150.2H143.9V113.6Z" stroke="#77B7CB" stroke-width="1.8" stroke-linecap="round" stroke-linejoin="round"/>
<path d="M113.5 120.8H103.6V150.2H113.5V120.8Z" stroke="#77B7CB" stroke-width="1.8" stroke-linecap="round" stroke-linejoin="round"/>
<path d="M123.8 91.3H113.5V150.1H123.8V91.3Z" stroke="#77B7CB" stroke-width="1.8" stroke-linecap="round" stroke-linejoin="round"/>
<path d="M664.8 317.8L665.9 302.9C665.921 302.667 665.893 302.432 665.816 302.21C665.74 301.989 665.617 301.786 665.456 301.616C665.295 301.446 665.1 301.312 664.884 301.223C664.667 301.134 664.434 301.092 664.2 301.1H655.7C655.468 301.101 655.239 301.149 655.027 301.241C654.815 301.333 654.623 301.468 654.464 301.636C654.305 301.804 654.182 302.003 654.102 302.22C654.022 302.438 653.988 302.669 654 302.9L655.1 317.8C655.1 317.8 646.1 323.6 646.2 328.4C646.3 332.1 648.5 349.8 649.5 357.6C649.627 358.65 650.135 359.617 650.928 360.317C651.72 361.018 652.742 361.403 653.8 361.4H666.2C667.257 361.403 668.279 361.018 669.072 360.317C669.864 359.617 670.372 358.65 670.5 357.6C671.5 349.8 673.7 332.1 673.8 328.4C673.8 323.6 664.8 317.8 664.8 317.8Z" fill="#77B7CB"/>
<path d="M713 218.9L714.1 204C714.121 203.767 714.093 203.532 714.016 203.31C713.94 203.089 713.817 202.886 713.656 202.716C713.495 202.546 713.3 202.412 713.083 202.323C712.867 202.234 712.634 202.192 712.4 202.2H703.8C703.568 202.201 703.339 202.249 703.127 202.341C702.915 202.433 702.723 202.568 702.564 202.736C702.405 202.904 702.282 203.103 702.202 203.32C702.122 203.538 702.087 203.769 702.1 204L703.2 218.9C703.2 218.9 694.2 224.7 694.3 229.5C694.4 233.2 696.6 250.9 697.6 258.7C697.727 259.75 698.235 260.717 699.028 261.417C699.82 262.118 700.842 262.503 701.9 262.5H714.3C715.357 262.503 716.379 262.118 717.172 261.417C717.964 260.717 718.472 259.75 718.6 258.7C719.6 250.9 721.8 233.2 721.9 229.5C722 224.7 713 218.9 713 218.9Z" fill="#77B7CB"/>
<path d="M90.3999 399.1L793.4 406.8" stroke="#77B7CB" stroke-width="1.8" stroke-linecap="round" stroke-linejoin="round"/>
<path d="M460.5 43.2C456.6 51.5 447.6 57 441.3 55.3C435.8 53.8 434.8 47.3 438.3 40.8C441.7 34.6 448.5 29.6 454.4 29.5C460.9 29.3 464.1 35.3 460.5 43.2Z" fill="#F8AB5D"/>
<path d="M458.6 41.5C454.7 49.8 445.7 55.3 439.4 53.6C433.9 52.1 432.9 45.6 436.4 39.1C439.8 32.9 446.6 27.9 452.5 27.8C459 27.6 462.2 33.6 458.6 41.5Z" fill="#FFE779"/>
<path d="M455.4 41.1C452.5 47.3 445.7 51.5 440.9 50.4C436.6 49.4 435.6 44.4 438.3 39.3C440.9 34.4 446.4 30.5 450.9 30.5C456 30.6 458.2 35.2 455.4 41.1Z" fill="#F8AB5D"/>
<path d="M442.4 46.4L442.8 45.7C442.9 45.4 442.9 45.2 442.7 45.1C442.258 45.0151 441.864 44.7648 441.6 44.4C441.5 44.3 441.5 44 441.7 43.7L441.8 43.6C442 43.3 442.4 43.2 442.5 43.4C442.846 43.7681 443.302 44.0138 443.8 44.1C444.312 44.1732 444.835 44.0758 445.287 43.8228C445.738 43.5698 446.094 43.1753 446.3 42.7C446.414 42.5185 446.489 42.3153 446.52 42.1033C446.552 41.8914 446.539 41.6752 446.482 41.4684C446.426 41.2617 446.327 41.0689 446.193 40.9022C446.058 40.7355 445.89 40.5986 445.7 40.5C445.435 40.3715 445.2 40.1874 445.013 39.9602C444.825 39.733 444.689 39.468 444.613 39.1832C444.537 38.8985 444.523 38.6008 444.573 38.3103C444.622 38.0198 444.734 37.7434 444.9 37.5C445.181 36.9055 445.599 36.3867 446.121 35.9866C446.643 35.5866 447.253 35.3169 447.9 35.2C448.1 35.2 448.3 35 448.5 34.7L448.9 34C448.951 33.8549 449.046 33.7291 449.171 33.6397C449.296 33.5502 449.446 33.5015 449.6 33.5C449.8 33.5 449.9 33.7 449.8 34L449.5 34.6C449.4 34.9 449.4 35.1 449.7 35.1C450.03 35.151 450.341 35.2891 450.6 35.5C450.8 35.6 450.7 35.9 450.5 36.2L450.4 36.3C450.2 36.6 449.8 36.7 449.7 36.5C449.357 36.2335 448.934 36.0924 448.5 36.1C448.045 36.0708 447.592 36.1792 447.2 36.411C446.807 36.6429 446.494 36.9875 446.3 37.4C445.9 38.2 446.2 38.7 447.1 39.4C447.376 39.5581 447.616 39.7728 447.804 40.0301C447.992 40.2875 448.123 40.5816 448.189 40.8932C448.255 41.2048 448.255 41.5268 448.188 41.8382C448.121 42.1496 447.988 42.4433 447.8 42.7C447.484 43.3655 447.009 43.9423 446.415 44.3787C445.822 44.815 445.129 45.0972 444.4 45.2C444.263 45.2191 444.135 45.276 444.029 45.3644C443.923 45.4528 443.843 45.569 443.8 45.7L443.4 46.5C443.337 46.6369 443.239 46.7549 443.116 46.8426C442.993 46.9302 442.85 46.9845 442.7 47C442.3 47 442.2 46.7 442.4 46.4Z" fill="#FFE779"/>
<path d="M642.8 221.9L604 219.5C603.361 219.458 602.738 219.29 602.165 219.005C601.592 218.72 601.081 218.325 600.663 217.841C600.244 217.357 599.926 216.795 599.726 216.187C599.526 215.579 599.449 214.938 599.5 214.3L605.4 134.7C605.512 133.368 606.099 132.12 607.053 131.185C608.007 130.249 609.266 129.686 610.6 129.6L650.3 127.2C650.988 127.164 651.675 127.275 652.317 127.525C652.959 127.775 653.54 128.159 654.022 128.65C654.504 129.142 654.876 129.731 655.114 130.377C655.352 131.023 655.449 131.713 655.4 132.4L648.8 216.8C648.646 218.258 647.937 219.6 646.82 220.55C645.703 221.499 644.263 221.982 642.8 221.9Z" fill="#22272E"/>
<path d="M640.1 221.9L601.3 219.5C600.661 219.458 600.038 219.29 599.465 219.005C598.892 218.72 598.381 218.325 597.963 217.841C597.544 217.357 597.226 216.795 597.026 216.187C596.826 215.579 596.75 214.938 596.8 214.3L602.7 134.7C602.812 133.368 603.399 132.12 604.353 131.185C605.307 130.249 606.566 129.686 607.9 129.6L647.6 127.2C648.288 127.164 648.975 127.275 649.617 127.525C650.259 127.775 650.84 128.159 651.322 128.65C651.804 129.142 652.176 129.731 652.414 130.377C652.652 131.023 652.749 131.713 652.7 132.4L646.1 216.8C645.946 218.258 645.237 219.6 644.12 220.55C643.003 221.499 641.563 221.982 640.1 221.9Z" fill="#22272E"/>
<path d="M628.2 136.5L620.8 136.9C620.666 136.909 620.532 136.889 620.407 136.842C620.282 136.795 620.168 136.721 620.073 136.627C619.978 136.532 619.905 136.418 619.858 136.293C619.811 136.168 619.791 136.034 619.8 135.9C619.803 135.609 619.919 135.331 620.125 135.125C620.331 134.919 620.609 134.803 620.9 134.8L628.3 134.4C628.434 134.391 628.567 134.411 628.693 134.458C628.818 134.505 628.932 134.579 629.027 134.673C629.121 134.768 629.195 134.882 629.242 135.007C629.289 135.132 629.309 135.266 629.3 135.4C629.297 135.691 629.181 135.969 628.975 136.175C628.769 136.381 628.491 136.497 628.2 136.5Z" fill="#63737A"/>
<path d="M632.5 136.3H632.3C632.166 136.309 632.032 136.289 631.907 136.242C631.782 136.195 631.668 136.121 631.573 136.027C631.478 135.932 631.405 135.818 631.358 135.693C631.311 135.568 631.291 135.434 631.3 135.3C631.338 134.995 631.476 134.711 631.694 134.494C631.911 134.276 632.195 134.138 632.5 134.1H632.7C632.834 134.091 632.967 134.111 633.093 134.158C633.218 134.205 633.332 134.279 633.427 134.373C633.521 134.468 633.595 134.582 633.642 134.707C633.689 134.832 633.709 134.966 633.7 135.1C633.662 135.405 633.524 135.689 633.306 135.906C633.089 136.124 632.805 136.262 632.5 136.3Z" fill="#63737A"/>
<path d="M620.9 149.8L611 150.1C610.758 150.103 610.519 150.055 610.298 149.958C610.076 149.861 609.879 149.717 609.717 149.537C609.556 149.357 609.436 149.144 609.364 148.914C609.292 148.683 609.27 148.44 609.3 148.2C609.353 147.687 609.58 147.209 609.944 146.844C610.309 146.48 610.787 146.253 611.3 146.2L621.2 145.8C621.442 145.797 621.681 145.845 621.902 145.942C622.124 146.039 622.321 146.183 622.483 146.363C622.644 146.543 622.764 146.756 622.836 146.986C622.908 147.217 622.93 147.46 622.9 147.7C622.887 148.236 622.674 148.747 622.305 149.136C621.935 149.524 621.435 149.76 620.9 149.8Z" fill="#63737A"/>
<path d="M618.3 184.2L608.5 184.1C608.264 184.087 608.032 184.028 607.818 183.926C607.605 183.823 607.414 183.679 607.256 183.503C607.098 183.326 606.976 183.12 606.898 182.897C606.82 182.673 606.787 182.437 606.8 182.2C606.856 181.698 607.087 181.232 607.453 180.885C607.819 180.537 608.296 180.33 608.8 180.3L618.6 180.4C618.839 180.405 619.075 180.458 619.293 180.558C619.51 180.658 619.705 180.801 619.864 180.98C620.024 181.158 620.145 181.367 620.22 181.594C620.295 181.822 620.322 182.062 620.3 182.3C620.263 182.809 620.037 183.285 619.667 183.637C619.298 183.988 618.81 184.189 618.3 184.2Z" fill="#63737A"/>
<path d="M616.2 212L606.4 211.5C606.156 211.484 605.917 211.419 605.699 211.309C605.48 211.199 605.286 211.046 605.127 210.859C604.969 210.673 604.849 210.456 604.776 210.223C604.702 209.99 604.677 209.744 604.7 209.5C604.721 209.012 604.931 208.551 605.285 208.215C605.64 207.879 606.111 207.694 606.6 207.7L616.4 208.1C616.647 208.108 616.89 208.167 617.113 208.274C617.336 208.382 617.533 208.534 617.694 208.723C617.854 208.911 617.973 209.131 618.043 209.368C618.113 209.606 618.132 209.855 618.1 210.1C618.1 210.604 617.9 211.087 617.543 211.444C617.187 211.8 616.704 212 616.2 212Z" fill="#63737A"/>
<path d="M639 171.9L609.8 172C609.507 172.001 609.216 171.941 608.947 171.823C608.679 171.706 608.437 171.533 608.24 171.316C608.042 171.099 607.891 170.844 607.799 170.565C607.706 170.287 607.672 169.992 607.7 169.7L608.6 157C608.637 156.491 608.863 156.015 609.233 155.663C609.602 155.312 610.09 155.111 610.6 155.1L639.9 154.3C640.193 154.299 640.484 154.359 640.753 154.477C641.021 154.595 641.262 154.767 641.46 154.984C641.658 155.201 641.808 155.457 641.901 155.735C641.994 156.013 642.028 156.308 642 156.6L641 169.9C641 170.431 640.789 170.939 640.414 171.314C640.039 171.689 639.53 171.9 639 171.9Z" fill="#B0D7C0"/>
<path d="M617.6 201.3L607.6 200.9C607.314 200.891 607.033 200.822 606.775 200.7C606.517 200.577 606.286 200.402 606.099 200.186C605.911 199.97 605.77 199.718 605.684 199.445C605.598 199.172 605.57 198.884 605.6 198.6L606.2 191C606.213 190.737 606.277 190.48 606.39 190.242C606.502 190.004 606.661 189.791 606.856 189.614C607.051 189.438 607.279 189.302 607.527 189.213C607.774 189.125 608.037 189.087 608.3 189.1L618.4 189.3C618.982 189.331 619.528 189.59 619.921 190.02C620.314 190.45 620.522 191.018 620.5 191.6L619.9 199.4C619.809 199.94 619.526 200.43 619.104 200.778C618.681 201.127 618.148 201.312 617.6 201.3Z" fill="#FFE779"/>
<path d="M636.6 201.9L625.9 201.5C625.614 201.491 625.333 201.422 625.075 201.3C624.817 201.177 624.586 201.002 624.399 200.786C624.211 200.57 624.07 200.318 623.984 200.045C623.898 199.772 623.87 199.485 623.9 199.2L624.5 191.3C624.513 191.037 624.577 190.78 624.69 190.542C624.802 190.304 624.961 190.091 625.156 189.914C625.351 189.738 625.579 189.602 625.827 189.513C626.074 189.425 626.337 189.387 626.6 189.4L637.4 189.6C637.982 189.631 638.528 189.89 638.921 190.32C639.314 190.75 639.522 191.318 639.5 191.9L638.9 200C638.813 200.542 638.531 201.034 638.108 201.384C637.685 201.733 637.149 201.917 636.6 201.9Z" fill="#F4C2C9"/>
<path d="M397.2 98.8L364.7 100.3C364.102 100.324 363.506 100.214 362.956 99.9775C362.406 99.7408 361.917 99.3838 361.523 98.9328C361.13 98.4818 360.843 97.9482 360.683 97.3714C360.523 96.7946 360.495 96.1893 360.6 95.6L366 41.6C366.146 40.2304 366.731 38.9447 367.669 37.9354C368.606 36.926 369.845 36.247 371.2 36L404.3 31.7C407.2 31.3 409.2 33.4 408.9 36.3L402.8 93.4C402.626 94.8055 401.976 96.1087 400.956 97.0917C399.937 98.0747 398.611 98.6778 397.2 98.8Z" fill="#22272E"/>
<path d="M394.8 97.6999L362.3 99.1999C361.702 99.2242 361.106 99.114 360.556 98.8773C360.007 98.6407 359.517 98.2837 359.123 97.8327C358.73 97.3816 358.443 96.8481 358.283 96.2713C358.123 95.6945 358.095 95.0891 358.2 94.4999L363.6 40.4999C363.746 39.1302 364.332 37.8446 365.269 36.8352C366.206 35.8259 367.445 35.1469 368.8 34.8999L401.9 30.5999C404.8 30.1999 406.8 32.2999 406.5 35.1999L400.4 92.2999C400.245 93.7126 399.6 95.0263 398.577 96.0128C397.554 96.9993 396.217 97.5962 394.8 97.6999Z" fill="#22272E"/>
<path d="M396.3 48.7999L371 51.4999C370.811 51.5205 370.62 51.4984 370.441 51.4353C370.262 51.3723 370.099 51.2698 369.964 51.1354C369.83 51.0011 369.728 50.8383 369.665 50.6591C369.601 50.4799 369.579 50.2888 369.6 50.0999L370.2 43.8999C370.219 43.6144 370.341 43.3454 370.543 43.143C370.745 42.9406 371.014 42.8187 371.3 42.7999L396.7 39.7999C396.889 39.7794 397.08 39.8014 397.259 39.8645C397.438 39.9276 397.601 40.0301 397.735 40.1645C397.87 40.2988 397.972 40.4616 398.035 40.6408C398.098 40.82 398.121 41.0111 398.1 41.1999L397.4 47.6999C397.397 47.9909 397.281 48.2691 397.075 48.4749C396.869 48.6806 396.591 48.7973 396.3 48.7999Z" fill="#F4C2C9"/>
<path d="M372.8 66L369.5 66.3C369.311 66.3206 369.12 66.2985 368.941 66.2354C368.762 66.1724 368.599 66.0699 368.464 65.9355C368.33 65.8012 368.228 65.6384 368.165 65.4592C368.101 65.28 368.079 65.0889 368.1 64.9L368.5 61.3C368.519 61.0145 368.641 60.7455 368.843 60.5431C369.045 60.3408 369.314 60.2188 369.6 60.2L372.9 59.9C373.089 59.8795 373.28 59.9016 373.459 59.9646C373.638 60.0277 373.801 60.1302 373.935 60.2646C374.07 60.3989 374.172 60.5617 374.235 60.7409C374.298 60.9201 374.321 61.1112 374.3 61.3L373.9 64.9C373.881 65.1856 373.759 65.4546 373.557 65.657C373.355 65.8593 373.086 65.9813 372.8 66Z" fill="#B0D7C0"/>
<path d="M394.7 64.1001L391.1 64.4001C390.911 64.4206 390.72 64.3986 390.541 64.3355C390.361 64.2724 390.199 64.1699 390.064 64.0356C389.93 63.9012 389.828 63.7385 389.764 63.5592C389.701 63.38 389.679 63.189 389.7 63.0001L390.1 59.2001C390.119 58.9145 390.241 58.6455 390.443 58.4432C390.645 58.2408 390.914 58.1189 391.2 58.1001L394.8 57.7001C394.989 57.6795 395.18 57.7016 395.359 57.7647C395.538 57.8278 395.701 57.9303 395.835 58.0646C395.97 58.1989 396.072 58.3617 396.135 58.5409C396.198 58.7201 396.22 58.9112 396.2 59.1001L395.8 62.9001C395.784 63.1967 395.666 63.4786 395.465 63.6975C395.264 63.9164 394.994 64.0587 394.7 64.1001Z" fill="#B0D7C0"/>
<path d="M383.6 64.9999L380.2 65.2999C380.011 65.3205 379.82 65.2984 379.641 65.2353C379.462 65.1723 379.299 65.0698 379.164 64.9354C379.03 64.8011 378.928 64.6383 378.865 64.4591C378.801 64.2799 378.779 64.0888 378.8 63.8999L379.2 60.1999C379.219 59.9144 379.341 59.6454 379.543 59.443C379.745 59.2406 380.014 59.1187 380.3 59.0999L383.7 58.7999C383.889 58.7794 384.08 58.8014 384.259 58.8645C384.438 58.9276 384.601 59.0301 384.735 59.1645C384.87 59.2988 384.972 59.4616 385.035 59.6408C385.098 59.82 385.121 60.0111 385.1 60.1999L384.7 63.8999C384.697 64.1909 384.581 64.4691 384.375 64.6749C384.169 64.8806 383.891 64.9973 383.6 64.9999Z" fill="#B0D7C0"/>
<path d="M371.5 78.3L368.2 78.5C368.013 78.5134 367.825 78.4863 367.649 78.4207C367.473 78.3551 367.313 78.2524 367.18 78.1196C367.048 77.9869 366.945 77.8271 366.879 77.6512C366.814 77.4752 366.787 77.2873 366.8 77.1L367.2 73.5C367.241 73.2059 367.384 72.9353 367.603 72.7347C367.821 72.534 368.103 72.4156 368.4 72.4L371.7 72.1C371.889 72.0794 372.08 72.1015 372.259 72.1646C372.438 72.2277 372.601 72.3302 372.735 72.4645C372.87 72.5988 372.972 72.7616 373.035 72.9408C373.098 73.12 373.121 73.3111 373.1 73.5L372.7 77.1C372.679 77.4113 372.546 77.7045 372.325 77.9251C372.104 78.1457 371.811 78.2789 371.5 78.3Z" fill="#B0D7C0"/>
<path d="M393.4 76.8L389.8 77.1C389.613 77.1134 389.425 77.0863 389.249 77.0207C389.073 76.9551 388.913 76.8524 388.78 76.7196C388.648 76.5869 388.545 76.4271 388.479 76.2512C388.414 76.0753 388.387 75.8873 388.4 75.7L388.8 72C388.841 71.7059 388.984 71.4353 389.203 71.2347C389.422 71.034 389.703 70.9156 390 70.9L393.6 70.6C393.789 70.5794 393.98 70.6015 394.159 70.6646C394.338 70.7277 394.501 70.8302 394.636 70.9645C394.77 71.0988 394.872 71.2616 394.935 71.4408C394.999 71.62 395.021 71.8111 395 72L394.6 75.8C394.505 76.0569 394.344 76.2844 394.133 76.4598C393.923 76.6352 393.67 76.7525 393.4 76.8Z" fill="#B0D7C0"/>
<path d="M382.3 77.5999L378.9 77.7999C378.713 77.8133 378.525 77.7863 378.349 77.7207C378.173 77.655 378.013 77.5523 377.88 77.4196C377.748 77.2868 377.645 77.127 377.579 76.9511C377.514 76.7752 377.487 76.5872 377.5 76.3999L377.9 72.6999C377.941 72.4058 378.084 72.1353 378.303 71.9346C378.521 71.7339 378.803 71.6156 379.1 71.5999L382.5 71.2999C382.689 71.2794 382.88 71.3014 383.059 71.3645C383.238 71.4276 383.401 71.5301 383.535 71.6645C383.67 71.7988 383.772 71.9616 383.835 72.1408C383.898 72.32 383.92 72.5111 383.9 72.6999L383.5 76.3999C383.446 76.6983 383.302 76.973 383.087 77.1875C382.873 77.4019 382.598 77.5458 382.3 77.5999Z" fill="#B0D7C0"/>
<path d="M370.2 90.6L367 90.8C366.818 90.8104 366.636 90.7805 366.466 90.7123C366.297 90.6442 366.145 90.5395 366.021 90.4058C365.897 90.2721 365.803 90.1126 365.748 89.9388C365.693 89.7649 365.676 89.5809 365.7 89.4L366.1 85.8C366.141 85.5059 366.284 85.2354 366.503 85.0347C366.722 84.834 367.003 84.7157 367.3 84.7L370.5 84.5C370.685 84.4798 370.871 84.5029 371.045 84.5677C371.219 84.6325 371.376 84.7371 371.502 84.8732C371.628 85.0092 371.721 85.1729 371.773 85.3513C371.825 85.5296 371.834 85.7175 371.8 85.9L371.4 89.5C371.375 89.8007 371.237 90.0808 371.015 90.2846C370.793 90.4885 370.502 90.6011 370.2 90.6Z" fill="#B0D7C0"/>
<path d="M392 89.4L388.4 89.6C388.218 89.6104 388.036 89.5804 387.866 89.5123C387.697 89.4441 387.545 89.3395 387.421 89.2058C387.297 89.0721 387.203 88.9126 387.148 88.7387C387.093 88.5649 387.076 88.3809 387.1 88.2L387.5 84.5C387.541 84.2059 387.684 83.9353 387.903 83.7347C388.122 83.534 388.403 83.4157 388.7 83.4L392.3 83.2C392.485 83.1797 392.671 83.2029 392.845 83.2677C393.019 83.3325 393.176 83.4371 393.302 83.5731C393.428 83.7092 393.521 83.8729 393.573 84.0512C393.625 84.2295 393.634 84.4175 393.6 84.6L393.2 88.4C393.137 88.675 392.985 88.9217 392.769 89.1023C392.552 89.2829 392.282 89.3875 392 89.4Z" fill="#FFE779"/>
<path d="M381 89.9999L377.6 90.1999C377.418 90.2103 377.236 90.1804 377.066 90.1123C376.897 90.0441 376.745 89.9394 376.621 89.8057C376.496 89.672 376.403 89.5125 376.348 89.3387C376.292 89.1648 376.276 88.9809 376.3 88.8L376.7 85.1999C376.741 84.9058 376.884 84.6353 377.103 84.4346C377.321 84.2339 377.603 84.1156 377.9 84.1L381.3 83.8999C381.484 83.8797 381.671 83.9029 381.845 83.9676C382.019 84.0324 382.176 84.137 382.302 84.2731C382.428 84.4091 382.521 84.5729 382.573 84.7512C382.625 84.9295 382.634 85.1174 382.6 85.3L382.2 88.9999C382.137 89.2749 381.985 89.5216 381.769 89.7022C381.552 89.8828 381.282 89.9874 381 89.9999Z" fill="#FFE779"/>
<path d="M428.7 98.1999L585.3 81.9999C585.978 81.9317 586.662 82.0134 587.305 82.2391C587.948 82.4649 588.534 82.8291 589.02 83.3061C589.507 83.7831 589.883 84.3612 590.121 84.9995C590.359 85.6378 590.455 86.3207 590.4 86.9999L577 239.4C576.847 241.204 576.001 242.878 574.64 244.071C573.279 245.264 571.508 245.884 569.7 245.8L417.6 237.6C416.369 237.528 415.216 236.972 414.392 236.055C413.568 235.137 413.14 233.932 413.2 232.7L422.4 104.8C422.517 103.138 423.21 101.569 424.36 100.364C425.511 99.1594 427.045 98.3938 428.7 98.1999Z" fill="#7D8B93"/>
<path d="M423 96.5L581.4 80.1C582.088 80.0257 582.784 80.1066 583.436 80.3367C584.089 80.5667 584.681 80.9401 585.171 81.4293C585.66 81.9186 586.033 82.5112 586.263 83.1638C586.493 83.8163 586.574 84.5121 586.5 85.2L573 239.3C572.864 241.129 572.009 242.829 570.622 244.029C569.235 245.228 567.429 245.829 565.6 245.7L411.7 237.4C411.08 237.37 410.472 237.215 409.912 236.946C409.352 236.676 408.853 236.297 408.442 235.831C408.032 235.364 407.719 234.821 407.523 234.231C407.327 233.642 407.251 233.019 407.3 232.4L416.6 103C416.775 101.353 417.504 99.8135 418.666 98.6331C419.828 97.4527 421.356 96.7008 423 96.5Z" fill="#455A64"/>
<path d="M439.4 129.7L432.2 130.1L431.3 143.5L438.4 143.3L439.4 129.7Z" fill="#6DAFA7"/>
<path d="M431.3 143.5L430.8 150.1L437.9 149.9L438.4 143.3L431.3 143.5Z" fill="#B0D7C0"/>
<path d="M454.9 111.5L447.7 112L446.5 129.3L453.6 129L454.9 111.5Z" fill="#6DAFA7"/>
<path d="M446.5 129.3L445 149.7L452.1 149.5L453.6 129L446.5 129.3Z" fill="#B0D7C0"/>
<path d="M461.5 117.8L460.7 128.6L467.8 128.2L468.6 117.3L461.5 117.8Z" fill="#6DAFA7"/>
<path d="M460.7 128.6L459.2 149.4L466.3 149.2L467.8 128.2L460.7 128.6Z" fill="#B0D7C0"/>
<path d="M482 127.4L474.9 127.8L474.4 135.4L481.5 135L482 127.4Z" fill="#6DAFA7"/>
<path d="M474.4 135.4L473.4 149L480.5 148.8L481.5 135L474.4 135.4Z" fill="#B0D7C0"/>
<path d="M497.1 115.3L496.2 126.7L495.7 134.2L488.6 134.6L489.1 127L490 115.8L497.1 115.3Z" fill="#6DAFA7"/>
<path d="M488.6 134.6L487.5 148.6L494.6 148.5L495.7 134.2L488.6 134.6Z" fill="#B0D7C0"/>
<path d="M554.2 107.1L541.5 127.2L530.4 112.1C534.7 108.49 540.007 106.29 545.6 105.8C548.528 105.589 551.466 106.033 554.2 107.1Z" fill="#22272E"/>
<path d="M564.1 125.6L541.5 127.2L554.2 107.1C561.2 109.9 565.3 116.9 564.1 125.6Z" fill="#F4C2C9"/>
<path d="M564.1 125.6C564.1 125.9 564 126.2 564 126.5C561.9 138.4 550.8 148.3 539.1 149.2L541.5 127.2L564.1 125.6Z" fill="#B0D7C0"/>
<path d="M541.5 127.2L539.1 149.2C538.47 149.283 537.835 149.317 537.2 149.3C525.3 149.3 518 139.6 520.5 127.9C521.945 121.704 525.432 116.174 530.4 112.2L541.5 127.2Z" fill="white"/>
<path d="M560.9 166.3L555.7 217L425 214.6L425.2 210.7L453.5 191.2C454.132 190.752 454.892 190.519 455.667 190.537C456.441 190.555 457.189 190.823 457.8 191.3L468.4 199.1C468.793 199.392 469.24 199.602 469.715 199.72C470.19 199.838 470.683 199.86 471.167 199.785C471.651 199.711 472.115 199.541 472.532 199.286C472.95 199.031 473.313 198.696 473.6 198.3L484.1 184.3C484.451 183.831 484.908 183.451 485.434 183.193C485.96 182.935 486.54 182.806 487.126 182.815C487.711 182.825 488.287 182.974 488.804 183.249C489.321 183.525 489.765 183.919 490.1 184.4L499.4 197.3C499.689 197.708 500.058 198.054 500.484 198.316C500.91 198.579 501.385 198.753 501.88 198.827C502.375 198.902 502.879 198.876 503.364 198.751C503.849 198.626 504.303 198.405 504.7 198.1C505.33 197.623 506.094 197.357 506.884 197.339C507.674 197.321 508.449 197.552 509.1 198L515.7 202.7C516.111 202.99 516.576 203.194 517.068 203.3C517.559 203.407 518.067 203.413 518.561 203.32C519.056 203.227 519.526 203.036 519.945 202.757C520.364 202.479 520.723 202.119 521 201.7L535.8 178.9C536.077 178.481 536.436 178.121 536.855 177.843C537.274 177.565 537.744 177.373 538.239 177.28C538.733 177.187 539.241 177.194 539.732 177.3C540.224 177.407 540.689 177.611 541.1 177.9L545.4 181C545.793 181.293 546.239 181.505 546.714 181.623C547.19 181.741 547.684 181.764 548.168 181.69C548.652 181.615 549.116 181.445 549.534 181.189C549.951 180.934 550.314 180.597 550.6 180.2L560.9 166.3Z" fill="#6DAFA7"/>
<path d="M465.8 182.4H460.1C459.969 182.397 459.838 182.422 459.717 182.473C459.596 182.525 459.488 182.603 459.4 182.7L458.1 184C457.913 184.183 457.662 184.286 457.4 184.286C457.138 184.286 456.887 184.183 456.7 184L455.7 182.7C455.612 182.603 455.504 182.525 455.383 182.473C455.262 182.422 455.131 182.397 455 182.4H449.5C449.384 182.406 449.269 182.386 449.162 182.342C449.055 182.297 448.96 182.229 448.883 182.143C448.806 182.056 448.75 181.954 448.718 181.842C448.686 181.731 448.68 181.614 448.7 181.5L449.5 170.7C449.519 170.441 449.63 170.197 449.813 170.014C449.997 169.83 450.241 169.719 450.5 169.7L466.8 169.1C467.039 169.1 467.268 169.195 467.436 169.364C467.605 169.532 467.7 169.761 467.7 170L466.8 181.3C466.814 181.44 466.799 181.58 466.755 181.714C466.711 181.847 466.639 181.969 466.545 182.073C466.451 182.177 466.336 182.259 466.207 182.316C466.079 182.372 465.94 182.401 465.8 182.4Z" fill="white"/>
<path d="M519.2 187.8L513.5 187.7C513.369 187.696 513.238 187.721 513.117 187.773C512.996 187.825 512.888 187.902 512.8 188L511.5 189.3C511.408 189.399 511.296 189.476 511.17 189.525C511.045 189.575 510.91 189.595 510.776 189.586C510.642 189.576 510.511 189.536 510.394 189.47C510.277 189.403 510.177 189.311 510.1 189.2L509.1 187.9C509.012 187.802 508.904 187.725 508.783 187.673C508.662 187.621 508.531 187.596 508.4 187.6L503 187.5C502.5 187.5 502.2 187.1 502.2 186.5L503 175.6C503.013 175.355 503.109 175.123 503.273 174.941C503.437 174.759 503.658 174.639 503.9 174.6L520.2 174.2C520.326 174.202 520.45 174.23 520.565 174.283C520.68 174.335 520.783 174.411 520.867 174.504C520.952 174.598 521.016 174.708 521.056 174.828C521.096 174.948 521.111 175.074 521.1 175.2L520.2 186.8C520.209 186.934 520.189 187.068 520.142 187.193C520.095 187.318 520.021 187.432 519.927 187.527C519.832 187.621 519.718 187.695 519.593 187.742C519.468 187.789 519.334 187.809 519.2 187.8Z" fill="#F4C2C9"/>
<path d="M245.3 476.3C244.9 477.6 244 482.8 243.3 487.6C235.825 488.717 228.187 487.784 221.2 484.9C221.7 479.9 222.2 474.7 222.2 474.7C222.2 471.9 246.1 473.9 245.3 476.3Z" fill="#22272E"/>
<path d="M243.3 487.5C242.7 491.7 242.1 495.4 242.1 495.4C242.1 495.4 239.4 501.7 232.6 501.7C225.8 501.7 220.3 496 220.4 493.6C220.5 492.5 220.8 488.7 221.2 484.8C228.183 487.697 235.825 488.631 243.3 487.5Z" fill="#FFD8C2"/>
<path d="M220.5 491.7C221.479 492.786 222.514 493.821 223.6 494.8C224.7 495.8 228.1 492.7 232.9 493.3C237.7 493.9 239.2 495.8 239.2 495.8C240.309 495.576 241.363 495.134 242.3 494.5C242.392 497 242.899 499.466 243.8 501.8C245.3 505.7 252.9 517.1 252.9 519.3C252.9 521.5 252.4 523.2 250.8 523.9C249.2 524.6 238.6 524.7 229.7 524.9C220.8 525.1 213.9 525.6 212.9 522.1C211.9 518.6 216 507.7 217.7 501C219.4 494.3 219.1 491.8 220.5 491.7Z" fill="#22272E"/>
<path d="M222 510.2C222 510.2 232.7 504.5 242.9 510.2" stroke="white" stroke-width="1.8" stroke-linecap="round" stroke-linejoin="round"/>
<path d="M224 504.6C229.557 503.021 235.444 503.021 241 504.6" stroke="white" stroke-width="1.8" stroke-linecap="round" stroke-linejoin="round"/>
<path d="M349.1 483.2C337.7 487.1 325.9 484.7 326 484.8C325.6 479.2 325.1 473.3 325.1 473.3C326.6 469.8 348.1 468.2 348.3 469.7C348.3 470.5 348.7 477.1 349.1 483.2Z" fill="#22272E"/>
<path d="M349.7 493.8C349.7 493.8 348.2 498.5 341.7 500.9C335.2 503.3 326.9 496.8 326.8 494.9C326.7 494.1 326.4 489.5 326 484.8C326 484.7 337.7 487.1 349.1 483.2C349.4 488.7 349.7 493.8 349.7 493.8Z" fill="#FFD8C2"/>
<path d="M326.6 493.5C325.9 493.5 325.4 494.5 325 500.8C324.6 507.1 322.6 521 325 523.1C327.4 525.2 375.3 524.6 380.8 524.2C386.3 523.8 389.3 520.2 387.6 517.8C385.9 515.4 374.1 511 363.7 504C353.3 497 350.8 495.5 349.6 493.8C349.6 493.8 350.2 488.1 347.1 489C344 489.9 341.9 497.3 337.9 498.3C333.9 499.3 333.4 493.1 326.6 493.5Z" fill="#22272E"/>
<path d="M366 504.2C366 504.2 363.3 503.4 357.2 509.9" stroke="white" stroke-width="1.8" stroke-linecap="round" stroke-linejoin="round"/>
<path d="M359.4 499.9C359.4 499.9 354.6 499.7 349.1 506.8" stroke="white" stroke-width="1.8" stroke-linecap="round" stroke-linejoin="round"/>
<path d="M225 486.2L225.6 482.2" stroke="#63737A" stroke-width="1.8" stroke-linecap="round" stroke-linejoin="round"/>
<path d="M231.9 487.7L232.5 483.7" stroke="#63737A" stroke-width="1.8" stroke-linecap="round" stroke-linejoin="round"/>
<path d="M239.5 488L240.2 484.4" stroke="#63737A" stroke-width="1.8" stroke-linecap="round" stroke-linejoin="round"/>
<path d="M330.5 485.3L330.2 481.1" stroke="#63737A" stroke-width="1.8" stroke-linecap="round" stroke-linejoin="round"/>
<path d="M338.8 485.2L338.5 480.6" stroke="#63737A" stroke-width="1.8" stroke-linecap="round" stroke-linejoin="round"/>
<path d="M346.3 484L346 479.7" stroke="#63737A" stroke-width="1.8" stroke-linecap="round" stroke-linejoin="round"/>
<path d="M218.3 252.4C216.589 260.29 215.651 268.328 215.5 276.4C215.2 290.1 225.9 333 229.8 347.5C233.7 362 232.9 364.3 232.3 367.1C231.7 369.9 225.7 392.1 223.7 415.1C221.7 438.1 214.5 456.6 215.3 463.7C216.4 473.3 220.5 476.1 222.2 477.2C223.9 478.3 237.9 482.8 247.4 480.6C247.4 480.6 257.5 474.2 259.4 465.2C261.3 456.2 260.2 445.3 266.7 415.9C273.2 386.5 276.2 374.4 277.1 362.7C277.6 355.7 277.7 335.7 277.8 320.4C277.9 310 277.9 301.7 278 300.9C278.3 298.9 283.2 301.2 285.8 294.8C286.9 291.9 287.5 286.4 287.6 280.5C287.8 273 287.3 264.8 286.3 260.3C284.7 252 219.9 243.6 218.3 252.4Z" fill="#22272E"/>
<path d="M355.5 465.5C353.8 469.7 350.7 474.5 347.9 475.6C345.1 476.7 332.5 478.4 326.1 477.8C326.1 477.8 315.4 474.7 314.3 466.6C313.2 458.5 315.1 449.5 311.5 431.3C307.9 413.1 304.8 380.9 303.9 371.4C303 361.9 283.4 333.6 274.2 316.5C265 299.4 255.1 268.1 263.3 260.8C271.5 253.5 300.8 250.2 309.5 256.1C309.5 256.1 319.6 280.7 329.7 310.1C339 337.1 340.9 346.2 342.2 354C342.285 354.708 342.419 355.41 342.6 356.1C343 358.5 343.5 364.7 344.2 372.7C345.8 393 347.7 424.5 348.5 431.7C349.6 441.7 357.2 461.3 355.5 465.5Z" fill="#22272E"/>
<path d="M272.4 302.4C278.908 300.055 285.597 298.249 292.4 297" stroke="#63737A" stroke-width="1.8" stroke-linecap="round" stroke-linejoin="round"/>
<path d="M271.863 374.69C273.343 367.438 268.752 360.377 261.607 358.918C254.463 357.46 247.471 362.158 245.991 369.41C244.511 376.663 249.103 383.724 256.247 385.182C263.392 386.641 270.383 381.943 271.863 374.69Z" stroke="#63737A" stroke-width="1.80036" stroke-linecap="round" stroke-linejoin="round"/>
<path d="M344.2 372.6C342.979 374.133 341.428 375.369 339.661 376.218C337.895 377.066 335.96 377.505 334 377.5C330.473 377.513 327.085 376.125 324.581 373.64C322.077 371.155 320.664 367.777 320.65 364.25C320.637 360.723 322.026 357.334 324.51 354.831C326.995 352.327 330.373 350.913 333.9 350.9C336.932 350.901 339.868 351.963 342.2 353.9" stroke="#63737A" stroke-width="1.8" stroke-linecap="round" stroke-linejoin="round"/>
<path d="M220.6 299.7C224.138 296.441 226.961 292.483 228.889 288.076C230.817 283.67 231.808 278.91 231.8 274.1C228.039 273.888 224.297 273.421 220.6 272.7" stroke="#63737A" stroke-width="1.8" stroke-linecap="round" stroke-linejoin="round"/>
<path d="M277.8 320.4C277.9 310 277.9 301.7 278 300.9C278.3 298.9 283.2 301.2 285.8 294.8C286.9 291.9 287.5 286.4 287.6 280.5" stroke="#63737A" stroke-width="1.8" stroke-linecap="round" stroke-linejoin="round"/>
<path d="M307.3 137.9C307.3 137.9 315.5 138.3 328.7 164.7C341.9 191.1 346.6 200.6 346.6 200.6C346.6 200.6 355.3 198.5 369.5 196.2C383.7 193.9 403.7 191 403.7 191C403.7 191 409.1 191.1 411.4 198.8C411.986 200.749 412.074 202.814 411.654 204.806C411.235 206.798 410.322 208.652 409 210.2C408.503 210.827 407.847 211.311 407.1 211.6C401 214.2 365.4 229.2 353.3 231.8C340 234.6 333.5 234.2 321.7 218C309.9 201.8 300.6 189.2 296.3 182.7C292 175.9 288.9 138.9 307.3 137.9Z" fill="#6A7B83"/>
<path d="M329.8 227.2C329.8 227.2 329.1 221.9 339.4 221.9C349.7 221.9 355 229.6 352.5 231.8" stroke="#22272E" stroke-width="1.8" stroke-linecap="round" stroke-linejoin="round"/>
<path d="M346.6 200.5C346.6 200.5 342.3 202.5 341.4 205.5" stroke="#22272E" stroke-width="1.8" stroke-linecap="round" stroke-linejoin="round"/>
<path d="M404.2 191.8C404.2 191.8 408.6 190.2 409.7 189.6C410.8 189 413.2 184.8 415.2 182.2C417.2 179.6 422.9 178.1 424.5 178.4C424.935 178.459 425.354 178.604 425.732 178.827C426.11 179.05 426.439 179.347 426.7 179.7C426.7 179.7 431.7 177.9 435.1 176.5C438.5 175.1 444.8 172 445.7 174.5C446.2 176 442.3 178.2 439.6 179.7C436.3 181.6 434.1 183 434.1 183C434.624 183.309 435.074 183.729 435.42 184.23C435.765 184.731 435.997 185.301 436.1 185.9C436.5 188 437.6 190.3 435.6 193.5C435 194.4 437.3 196.9 435.5 199.2C432.4 202.9 424.9 204.8 420.9 206C416.9 207.2 407.5 207.8 407.5 207.8C407.5 207.8 404.5 207.1 403.2 200.6C401.9 194.1 404.2 191.8 404.2 191.8Z" fill="#FFD8C2"/>
<path d="M426.7 179.7C426.7 179.7 427.4 181.5 428.2 184.2C429 186.9 429.6 189 427.5 189.1C425.4 189.2 423.5 186 422.7 184.4" stroke="#E2A66E" stroke-width="1.8" stroke-linecap="round" stroke-linejoin="round"/>
<path d="M424.1 186.7C424.1 186.7 426.4 191.3 421.1 195.3" stroke="#E2A66E" stroke-width="1.8" stroke-linecap="round" stroke-linejoin="round"/>
<path d="M434.2 183L428.6 185.6" stroke="#E2A66E" stroke-width="1.8" stroke-linecap="round" stroke-linejoin="round"/>
<path d="M425.8 188.5C425.8 188.5 424.8 190.1 425.8 191C426.8 191.9 432.3 189.9 436.3 187.6" stroke="#E2A66E" stroke-width="1.8" stroke-linecap="round" stroke-linejoin="round"/>
<path d="M426.7 191.2C426.232 191.448 425.877 191.867 425.709 192.37C425.541 192.872 425.574 193.421 425.8 193.9C426.6 195.7 430.9 195 435.6 193.5" stroke="#E2A66E" stroke-width="1.8" stroke-linecap="round" stroke-linejoin="round"/>
<path d="M427.6 195C427.6 195 425.1 195.3 426.4 197.8C427.2 199.3 432 198.8 433 199.2" stroke="#E2A66E" stroke-width="1.8" stroke-linecap="round" stroke-linejoin="round"/>
<path d="M398.4 192.7C397.6 194.1 396.6 196.8 397.3 201.6C397.496 203.672 398.155 205.673 399.228 207.455C400.301 209.238 401.761 210.757 403.5 211.9" stroke="#22272E" stroke-width="1.8" stroke-linecap="round" stroke-linejoin="round"/>
<path d="M274.9 101.3C274.9 101.3 271.7 117.4 269.9 121.8C268.1 126.2 277.9 133.1 287.7 133.5C297.5 133.9 296.5 128.2 296.5 128.2L299.4 112.2C299.4 112.3 278.4 97.6001 274.9 101.3Z" fill="#FFD8C2"/>
<path d="M279.3 106.1C277.9 118.3 286.7 124.2 296.5 128.8V128.2L298.1 119.7C290.8 117.3 284.4 112.1 279.3 106.1Z" fill="#E2A66E"/>
<path d="M232.9 133.6C235.1 127.1 243.5 123.2 250.3 123.8C257.3 124.4 270.7 124.6 283.6 128.6C305.6 135.4 310.9 139.4 312.2 140.6C319.5 147.6 318.8 158 314.6 186.7C311.9 205.6 309.6 210.4 310.2 219.7C310.8 229 312.5 245.5 313.6 248.9C314.7 252.3 311.9 258.2 309.5 260.3C307.1 262.4 287.7 266.8 269.7 266.4C251.7 266 223.4 261.1 218.9 258.1C214.4 255.1 211.2 249.9 212.2 245.4C213.443 238.521 215.046 231.712 217 225C219.8 215.5 220 203.1 224.4 183.2C227.8 168.5 228.3 147.2 232.9 133.6Z" fill="white"/>
<path d="M260.4 206.9C271.521 209.246 282.837 210.552 294.2 210.8C294.94 210.82 295.648 211.102 296.198 211.597C296.747 212.092 297.103 212.767 297.2 213.5C297.75 217.538 299.531 221.309 302.3 224.3C302.559 224.564 302.764 224.876 302.901 225.22C303.038 225.563 303.106 225.93 303.1 226.3C303.2 230.5 303.4 244.7 300.6 246.9C297.4 249.3 263.4 251.5 242.3 245.6C241.628 245.429 241.031 245.043 240.598 244.502C240.165 243.96 239.92 243.293 239.9 242.6C240 238.5 240.2 229.9 240.9 224.5C240.998 223.963 241.221 223.457 241.551 223.023C241.881 222.588 242.309 222.238 242.8 222C246.1 220.5 253.7 216.5 256.4 209C256.722 208.242 257.297 207.619 258.026 207.237C258.755 206.854 259.594 206.735 260.4 206.9V206.9Z" stroke="#586A74" stroke-width="1.8" stroke-linecap="round" stroke-linejoin="round"/>
<path d="M268.6 119.4C268.703 119.173 268.858 118.974 269.053 118.819C269.249 118.664 269.478 118.558 269.722 118.509C269.966 118.46 270.219 118.47 270.458 118.538C270.698 118.606 270.918 118.73 271.1 118.9C273 120.9 277.1 123.9 284.5 125.3C295.8 127.4 296.9 125.7 296.9 125.7C296.9 125.7 298.7 126.3 298.9 127.8C298.959 130.225 298.69 132.647 298.1 135C297.5 136.9 289.1 137.1 282.4 135.7C276.48 134.615 271.016 131.796 266.7 127.6C266.359 127.271 266.128 126.845 266.038 126.379C265.949 125.914 266.005 125.432 266.2 125C266.8 123.5 267.8 121.3 268.6 119.4Z" fill="#6A7B83"/>
<path d="M317.9 82.3001C317.998 86.5863 317.32 90.8549 315.9 94.9001C313.9 100.1 310.6 114.6 304.1 119.3C297.6 124 283.4 123.1 277.2 111C271 98.9001 273 86.2001 276.2 76.0001C279.4 65.8001 292.6 62.1001 304.1 66.3001C315.6 70.5001 317.9 77.8001 317.9 82.3001Z" fill="#FFD8C2"/>
<path d="M275.9 89.3001C276.582 90.1945 277.153 91.1682 277.6 92.2001C278.5 94.3001 280.4 93.1001 281.1 89.3001C281.8 85.5001 283.4 82.8001 284.6 83.0001C286.141 83.3686 287.762 83.2033 289.197 82.5312C290.632 81.859 291.797 80.7199 292.5 79.3001C295 74.7001 296.1 75.4001 296.1 75.4001C296.1 75.4001 298.1 70.6001 303.3 77.5001C308.5 84.4001 311.8 89.8001 318 88.7001C324.2 87.6001 329.7 77.5001 325 67.8001C320.3 58.1001 305.5 55.8001 294.5 58.7001C283.5 61.6001 277.8 59.2001 271.2 64.8001C264.6 70.4001 266.2 76.3001 265.8 82.9001C265.4 89.5001 262 93.0001 266.5 98.9001C271 104.8 269.8 110.3 272.3 113.6C272.3 113.6 275 104.9 274.7 98.6001C274.4 92.3001 275.9 89.3001 275.9 89.3001Z" fill="#22272E"/>
<path d="M305.6 94.8C305.529 97.3141 304.491 99.704 302.703 101.473C300.916 103.242 298.515 104.255 296 104.3C294.748 104.29 293.51 104.029 292.36 103.533C291.21 103.037 290.171 102.316 289.304 101.412C288.437 100.508 287.76 99.4392 287.313 98.2693C286.866 97.0994 286.658 95.8517 286.7 94.6C286.692 93.3061 286.94 92.0233 287.428 90.8251C287.917 89.627 288.637 88.5369 289.547 87.6174C290.457 86.6978 291.54 85.9668 292.733 85.4662C293.926 84.9656 295.206 84.7052 296.5 84.7C297.766 84.7507 299.009 85.054 300.155 85.5921C301.302 86.1303 302.33 86.8922 303.178 87.8333C304.025 88.7744 304.677 89.8755 305.093 91.0719C305.509 92.2683 305.681 93.5359 305.6 94.8V94.8Z" stroke="#22272E" stroke-width="1.8" stroke-linecap="round" stroke-linejoin="round"/>
<path d="M321.024 100.722C322.414 95.9502 320.833 91.2927 317.492 90.3197C314.152 89.3466 310.317 92.4265 308.927 97.1987C307.537 101.971 309.118 106.628 312.459 107.601C315.799 108.575 319.634 105.495 321.024 100.722Z" stroke="#22272E" stroke-width="1.8" stroke-linecap="round" stroke-linejoin="round"/>
<path d="M309.1 96.9C309.1 96.9 309 94.9 305.5 96" stroke="#22272E" stroke-width="1.8" stroke-linecap="round" stroke-linejoin="round"/>
<path d="M287.5 90.4999L275.9 88.3999" stroke="#22272E" stroke-width="1.8" stroke-linecap="round" stroke-linejoin="round"/>
<path d="M276.9 91.1C276.9 91.1 276 85.8 271.7 85.7C267.4 85.6 264.8 98.8 275.5 100.6" fill="#FFD8C2"/>
<path d="M271 89.8C271.499 89.6724 272.024 89.6998 272.506 89.8784C272.989 90.0571 273.405 90.3786 273.7 90.8C273.984 91.3203 274.122 91.9076 274.1 92.5C274.1 92.8 274 93 274 93.3C274 93.6 273.9 93.7 273.9 93.9C273.822 94.2273 273.789 94.5637 273.8 94.9C273.779 95.0242 273.786 95.1516 273.82 95.2728C273.855 95.3939 273.917 95.5058 274 95.6C274.538 96.1838 275.183 96.6591 275.9 97C275.425 97.171 274.918 97.2328 274.416 97.1809C273.914 97.129 273.43 96.9646 273 96.7C272.52 96.333 272.198 95.7964 272.1 95.2C272.03 94.6652 272.064 94.1219 272.2 93.6C272.3 93.4 272.3 93.1 272.4 92.9C272.5 92.7 272.5 92.6 272.5 92.4C272.601 92.1428 272.601 91.8572 272.5 91.6C272.392 91.2108 272.202 90.849 271.944 90.5387C271.685 90.2284 271.364 89.9766 271 89.8Z" fill="#22272E"/>
<path d="M307.7 95.3C307.768 96.4287 308.004 97.5409 308.4 98.6001C308.573 99.0634 308.808 99.5009 309.1 99.9C309.52 100.395 309.827 100.975 310 101.6C310.16 102.269 310.172 102.965 310.034 103.639C309.895 104.313 309.611 104.948 309.2 105.5C308.835 106.032 308.357 106.476 307.8 106.8C307.272 107.161 306.639 107.336 306 107.3C306.886 106.649 307.549 105.741 307.9 104.7C308.289 103.856 308.395 102.909 308.2 102C308.024 101.538 307.789 101.101 307.5 100.7C307.196 100.105 306.993 99.4624 306.9 98.8C306.855 97.5834 307.131 96.3763 307.7 95.3Z" fill="#22272E"/>
<path d="M297.7 111.2C296.301 111.149 294.943 110.711 293.778 109.934C292.612 109.157 291.686 108.072 291.1 106.8" stroke="#22272E" stroke-width="1.8" stroke-linecap="round" stroke-linejoin="round"/>
<path d="M293.6 96.7C293.41 96.6543 293.23 96.5714 293.072 96.4561C292.913 96.3408 292.779 96.1954 292.677 96.0282C292.575 95.861 292.506 95.6753 292.476 95.4817C292.446 95.2881 292.454 95.0905 292.5 94.9L292.9 93.4C292.946 93.2095 293.029 93.0299 293.144 92.8714C293.259 92.713 293.405 92.5788 293.572 92.4767C293.739 92.3745 293.925 92.3063 294.119 92.276C294.312 92.2457 294.51 92.2539 294.7 92.3C294.891 92.3458 295.07 92.4287 295.229 92.544C295.387 92.6593 295.521 92.8047 295.624 92.9719C295.726 93.1391 295.794 93.3248 295.824 93.5184C295.855 93.712 295.846 93.9096 295.8 94.1001L295.4 95.6001C295.354 95.7906 295.272 95.9702 295.156 96.1286C295.041 96.2871 294.896 96.4212 294.728 96.5234C294.561 96.6256 294.375 96.6938 294.182 96.7241C293.988 96.7544 293.791 96.7462 293.6 96.7Z" fill="#22272E"/>
<path d="M309.5 100.8C309.31 100.754 309.13 100.671 308.972 100.556C308.813 100.441 308.679 100.295 308.577 100.128C308.475 99.9609 308.406 99.7752 308.376 99.5816C308.346 99.388 308.354 99.1903 308.4 98.9999L308.8 97.4999C308.846 97.3094 308.929 97.1297 309.044 96.9713C309.159 96.8129 309.305 96.6787 309.472 96.5765C309.639 96.4744 309.825 96.4062 310.018 96.3758C310.212 96.3455 310.41 96.3537 310.6 96.3999C310.791 96.4457 310.97 96.5286 311.129 96.6438C311.287 96.7591 311.421 96.9045 311.524 97.0717C311.626 97.2389 311.694 97.4246 311.724 97.6182C311.755 97.8118 311.746 98.0095 311.7 98.1999L311.3 99.6999C311.254 99.8904 311.171 100.07 311.056 100.229C310.941 100.387 310.796 100.521 310.628 100.623C310.461 100.725 310.275 100.794 310.082 100.824C309.888 100.854 309.691 100.846 309.5 100.8Z" fill="#22272E"/>
<path d="M297.6 89.8C296.5 90 296 88.5 294.4 88.6C291.9 88.7 290.5 89.2 290.3 88.1C290.2 87.3 292.1 85.8 294.5 85.7C298 85.7 299.6 89.5 297.6 89.8Z" fill="#22272E"/>
<path d="M309.5 92.7999C310.2 93.3999 311.2 92.2999 312.2 92.9999C313.7 93.8999 314.2 94.6999 314.7 93.9999C315.2 93.2999 314.7 91.5999 313.3 90.6999C311 89.0999 308 91.6999 309.5 92.7999Z" fill="#22272E"/>
<path d="M183.5 260C182.827 261.42 182.387 262.94 182.2 264.5C182.2 266.2 183.6 281.9 183.2 285C182.8 288.1 181.8 294.2 181.2 295.1C180.6 296 177 293.2 176.9 283.8C176.8 274.4 173.6 261.5 176.3 260C179 258.5 182.7 258.8 183.5 260Z" fill="#FFD8C2"/>
<path d="M118 306.4L142 268.6C142.266 268.182 142.612 267.822 143.019 267.54C143.426 267.258 143.885 267.06 144.369 266.957C144.853 266.855 145.353 266.85 145.839 266.943C146.325 267.036 146.788 267.226 147.2 267.5L203.7 303.4C204.118 303.666 204.478 304.012 204.76 304.419C205.042 304.826 205.24 305.285 205.343 305.769C205.445 306.253 205.45 306.753 205.357 307.239C205.264 307.725 205.074 308.188 204.8 308.6L180.8 346.4C180.534 346.818 180.188 347.178 179.781 347.46C179.375 347.742 178.916 347.94 178.431 348.043C177.947 348.145 177.447 348.15 176.961 348.057C176.475 347.964 176.012 347.774 175.6 347.5L119.1 311.6C118.275 311.047 117.699 310.195 117.494 309.223C117.288 308.252 117.47 307.239 118 306.4Z" fill="#22272E"/>
<path d="M184.3 335.3L196.3 316.5C196.425 316.298 196.597 316.13 196.801 316.01C197.006 315.891 197.237 315.823 197.474 315.813C197.711 315.803 197.946 315.852 198.16 315.954C198.374 316.056 198.559 316.209 198.7 316.4L200.6 318.9C200.787 319.14 200.897 319.431 200.915 319.735C200.933 320.038 200.858 320.34 200.7 320.6L189.9 337.6C189.756 337.856 189.529 338.055 189.256 338.164C188.983 338.273 188.681 338.286 188.4 338.2L185.3 337.6C185.067 337.538 184.851 337.424 184.668 337.267C184.485 337.11 184.34 336.913 184.244 336.692C184.148 336.471 184.103 336.231 184.113 335.99C184.123 335.749 184.187 335.513 184.3 335.3Z" fill="#6DAFA7"/>
<path d="M180.8 259C180.8 259 180.2 276.4 180.1 280.1C180 283.8 180.2 291.1 179.3 294.6C178.4 298.1 176.9 306.9 174.2 307.5C171.5 308.1 174.4 296.7 174.4 294.5C174.181 291.974 173.78 289.468 173.2 287C173.2 287 172.2 292.5 171.5 294.9C170.8 297.3 166.2 304.8 164.4 304.5C162.6 304.2 164.8 298.6 166.2 295.2C167.5 292.1 168 285.6 168 285.6C167.221 287.587 166.319 289.524 165.3 291.4C164.1 293.4 160 299.6 158.3 299.3C156.6 299 159.4 292.7 161.1 289.8C162.063 288.287 162.678 286.579 162.9 284.8C162.9 284.8 160.2 287.5 158.5 288.8C156.8 290.1 150.8 293 150.3 291.5C149.8 290 152.5 288.4 155 286.1C157.5 283.8 160.2 279.2 160.8 278.4C161.4 277.6 159.7 270.6 162.4 265.9C165.1 261.2 166.7 259.3 167.4 256.1C168.1 252.9 180.5 256.7 180.8 259Z" fill="#FFD8C2"/>
<path d="M243.3 123.8C243.3 123.8 231.9 122.7 218.2 139.9C204.5 157.1 191 171.5 187.2 178.3C183.4 185.1 175 210.6 170.8 230.7C166.6 250.8 166.2 254.4 166.3 256.6C166.4 258.6 176.5 261.4 183.1 261.3C183.68 261.312 184.25 261.145 184.732 260.824C185.215 260.502 185.588 260.04 185.8 259.5C188.4 253.4 197.5 232.6 201.1 225C205.3 216.1 210.2 202.9 210.8 202C211.4 201.1 238.7 173.3 243.8 166C248.9 158.7 253.8 146.9 252.7 136.5C251.5 125.2 245.7 123.7 243.3 123.8Z" fill="#6A7B83"/>
<path d="M188.6 176C188.6 176 191.7 171.7 195.6 175.6C199.7 179.7 197.9 188.6 192.2 194.2C187.5 198.8 180.8 196.9 181.4 192.6" stroke="#22272E" stroke-width="1.8" stroke-linecap="round" stroke-linejoin="round"/>
<path d="M167.7 251.8C170.4 253.1 178.5 256.7 186.4 255.7" stroke="#22272E" stroke-width="1.8" stroke-linecap="round" stroke-linejoin="round"/>
<path d="M429.5 280.2L446.3 225.2C446.545 224.467 447.015 223.831 447.644 223.382C448.273 222.933 449.027 222.694 449.8 222.7L549.2 225.5C549.587 225.504 549.967 225.597 550.312 225.772C550.657 225.947 550.958 226.199 551.19 226.508C551.422 226.817 551.579 227.176 551.651 227.556C551.722 227.936 551.704 228.328 551.6 228.7L532.1 295.8C531.864 296.619 531.339 297.325 530.621 297.785C529.903 298.245 529.043 298.428 528.2 298.3L431.7 283.4C431.325 283.38 430.96 283.274 430.633 283.091C430.306 282.907 430.025 282.651 429.812 282.342C429.6 282.032 429.461 281.678 429.407 281.307C429.353 280.936 429.385 280.557 429.5 280.2Z" fill="#22272E"/>
<path d="M428.6 283L370.8 288.4L469.9 312.8C472.296 313.401 474.804 313.401 477.2 312.8L531 298.9L428.6 283Z" fill="#63737A"/>
<path d="M470 312.8L370.9 288.4C370.907 289.314 371.214 290.201 371.774 290.924C372.334 291.647 373.116 292.165 374 292.4L467.4 317.2C471.343 318.234 475.494 318.165 479.4 317L528.4 302.6C529.22 302.364 529.94 301.864 530.446 301.176C530.953 300.489 531.218 299.653 531.2 298.8L477.4 312.7C474.985 313.381 472.433 313.416 470 312.8Z" fill="#22272E"/>
<path d="M494.8 234.9L487.8 258.7C487.697 258.99 487.508 259.242 487.258 259.421C487.007 259.6 486.708 259.697 486.4 259.7L447.1 256.3C446.902 256.285 446.709 256.226 446.536 256.128C446.364 256.03 446.214 255.895 446.1 255.733C445.985 255.57 445.908 255.384 445.873 255.189C445.839 254.993 445.848 254.792 445.9 254.6L452.5 232.8C452.581 232.516 452.751 232.266 452.985 232.086C453.219 231.906 453.505 231.806 453.8 231.8L493.5 233.2C493.705 233.206 493.906 233.258 494.088 233.352C494.27 233.445 494.429 233.578 494.554 233.741C494.678 233.904 494.765 234.092 494.808 234.293C494.85 234.493 494.848 234.701 494.8 234.9Z" fill="white"/>
<path d="M487.3 239.2L482.9 253.5L452.3 251.3L453.4 248.1L464.7 243.1L471.1 248.1L487.3 239.2Z" fill="#F4C2C9"/>
<path d="M464.4 268.4L461.5 277.4C461.397 277.704 461.19 277.961 460.915 278.126C460.641 278.291 460.316 278.352 460 278.3L441.1 275.8C440.906 275.782 440.719 275.72 440.552 275.619C440.386 275.518 440.244 275.38 440.138 275.216C440.032 275.053 439.965 274.867 439.941 274.674C439.917 274.481 439.937 274.284 440 274.1L442.5 265.7C442.603 265.41 442.792 265.158 443.042 264.979C443.293 264.8 443.592 264.703 443.9 264.7L463.2 266.7C463.407 266.692 463.612 266.735 463.798 266.827C463.983 266.918 464.143 267.055 464.262 267.224C464.381 267.393 464.456 267.589 464.48 267.794C464.505 268 464.477 268.208 464.4 268.4Z" fill="#FFE779"/>
<path d="M494 271.4L490.8 281.3C490.697 281.604 490.49 281.861 490.215 282.026C489.941 282.191 489.616 282.252 489.3 282.2L471.3 279.8C471.099 279.775 470.906 279.704 470.736 279.594C470.566 279.484 470.423 279.337 470.317 279.165C470.211 278.992 470.146 278.797 470.126 278.596C470.105 278.394 470.131 278.19 470.2 278L473.2 268.7C473.291 268.41 473.481 268.161 473.737 267.997C473.993 267.832 474.298 267.763 474.6 267.8L492.8 269.6C493.01 269.611 493.214 269.671 493.396 269.775C493.579 269.879 493.735 270.024 493.851 270.199C493.968 270.374 494.042 270.573 494.068 270.782C494.093 270.99 494.07 271.202 494 271.4Z" fill="#6DAFA7"/>
<path d="M528 274.8L524.6 285.8C524.497 286.104 524.29 286.361 524.015 286.526C523.741 286.691 523.416 286.752 523.1 286.7L501.4 283.8C501.199 283.775 501.006 283.704 500.836 283.594C500.666 283.484 500.523 283.337 500.417 283.165C500.311 282.992 500.246 282.797 500.226 282.596C500.206 282.394 500.231 282.19 500.3 282L503.6 271.7C503.691 271.41 503.881 271.161 504.137 270.997C504.393 270.832 504.698 270.763 505 270.8L526.7 273C526.915 273.004 527.127 273.059 527.317 273.158C527.508 273.258 527.673 273.401 527.799 273.576C527.925 273.75 528.009 273.952 528.044 274.164C528.078 274.377 528.064 274.594 528 274.8Z" fill="#F4C2C9"/>
<path d="M516.3 239.7C515.906 241.192 515.021 242.507 513.787 243.432C512.552 244.358 511.042 244.84 509.5 244.8C506.6 244.6 505.1 242.1 505.9 239.3C506.342 237.965 507.183 236.799 508.31 235.958C509.437 235.118 510.795 234.643 512.2 234.6C512.836 234.574 513.469 234.698 514.048 234.962C514.627 235.225 515.137 235.621 515.535 236.117C515.934 236.613 516.211 237.195 516.344 237.817C516.476 238.44 516.461 239.084 516.3 239.7Z" fill="#FFE779"/>
<path d="M523.4 236.4L538 236.9" stroke="#63737A" stroke-width="1.8" stroke-linecap="round" stroke-linejoin="round"/>
<path d="M500.6 255.4L531.9 257.6" stroke="#63737A" stroke-width="1.8" stroke-linecap="round" stroke-linejoin="round"/>
<path d="M521.7 242.3L536.3 242.9" stroke="#63737A" stroke-width="1.8" stroke-linecap="round" stroke-linejoin="round"/>
<path d="M601.8 92.8999L525.8 98.7999C525.346 98.8293 524.891 98.7615 524.465 98.601C524.039 98.4406 523.652 98.1911 523.331 97.8693C523.009 97.5476 522.759 97.1609 522.599 96.735C522.438 96.3092 522.371 95.854 522.4 95.3999L525.6 51.4999C525.69 50.2271 526.217 49.0244 527.092 48.0952C527.966 47.166 529.135 46.5672 530.4 46.3999L607.6 35.8999C608.069 35.8414 608.546 35.8874 608.996 36.0346C609.446 36.1818 609.857 36.4266 610.201 36.7515C610.545 37.0764 610.813 37.4734 610.986 37.9139C611.158 38.3545 611.232 38.8278 611.2 39.2999L606.9 87.8999C606.756 89.1932 606.169 90.397 605.24 91.308C604.311 92.2189 603.096 92.7813 601.8 92.8999Z" fill="#F9B6BE"/>
<path d="M599.3 91.3001L523.3 97.2001C522.846 97.2294 522.391 97.1616 521.965 97.0012C521.539 96.8407 521.152 96.5913 520.831 96.2695C520.509 95.9477 520.259 95.561 520.099 95.1352C519.938 94.7093 519.871 94.2542 519.9 93.8001L523.1 49.9001C523.19 48.6272 523.717 47.4246 524.592 46.4953C525.466 45.5661 526.635 44.9673 527.9 44.8001L605.1 34.3001C605.569 34.2415 606.046 34.2875 606.496 34.4347C606.946 34.5819 607.357 34.8268 607.701 35.1517C608.045 35.4766 608.313 35.8735 608.486 36.3141C608.658 36.7546 608.732 37.2279 608.7 37.7001L604.4 86.3001C604.29 87.6063 603.715 88.8296 602.779 89.7473C601.843 90.665 600.608 91.216 599.3 91.3001Z" fill="#EB7C89"/>
<path d="M548.7 61.9C548.559 63.3939 547.921 64.7973 546.887 65.8852C545.853 66.9732 544.485 67.6826 543 67.9C542.349 67.9853 541.688 67.9198 541.067 67.7088C540.445 67.4977 539.881 67.1466 539.417 66.6827C538.953 66.2188 538.602 65.6544 538.391 65.0332C538.18 64.4119 538.115 63.7505 538.2 63.1C538.319 61.6145 538.937 60.2131 539.954 59.1237C540.971 58.0343 542.326 57.321 543.8 57.1C546.8 56.7 548.9 58.9 548.7 61.9Z" fill="white"/>
<path d="M547.2 80.9999L536.8 81.9999C536.278 82.0561 535.751 81.993 535.257 81.8154C534.764 81.6377 534.317 81.3502 533.951 80.9745C533.585 80.5988 533.309 80.1447 533.144 79.6467C532.98 79.1488 532.93 78.6198 533 78.0999C533.257 75.4483 534.389 72.9576 536.218 71.0203C538.046 69.083 540.468 67.8093 543.1 67.3999C548.3 66.7999 552.3 70.7999 551.8 76.2999C551.673 77.4862 551.15 78.5951 550.315 79.4478C549.481 80.3004 548.383 80.8472 547.2 80.9999Z" fill="white"/>
<path d="M561 56.5L593.4 52.7" stroke="#DDDDDD" stroke-width="1.8" stroke-linecap="round" stroke-linejoin="round"/>
<path d="M560.2 65.3999L592.6 61.8999" stroke="#DDDDDD" stroke-width="1.8" stroke-linecap="round" stroke-linejoin="round"/>
<path d="M559.5 74.2999L579 72.3999" stroke="#DDDDDD" stroke-width="1.8" stroke-linecap="round" stroke-linejoin="round"/>
<path d="M211.5 68.7H249.9L253.8 71.2C254.085 71.3843 254.415 71.4879 254.755 71.4997C255.094 71.5115 255.431 71.431 255.728 71.2669C256.026 71.1028 256.273 70.8611 256.444 70.5676C256.615 70.2741 256.704 69.9397 256.7 69.6V42.5C256.7 41.1739 256.173 39.9021 255.236 38.9645C254.298 38.0268 253.026 37.5 251.7 37.5H211.5C210.174 37.5 208.902 38.0268 207.964 38.9645C207.027 39.9021 206.5 41.1739 206.5 42.5V63.7C206.5 65.0261 207.027 66.2979 207.964 67.2355C208.902 68.1732 210.174 68.7 211.5 68.7Z" fill="#EB7C89"/>
<path d="M244.3 46.3999H218.7" stroke="white" stroke-width="1.8" stroke-linecap="round" stroke-linejoin="round"/>
<path d="M244.3 53.3999H218.7" stroke="white" stroke-width="1.8" stroke-linecap="round" stroke-linejoin="round"/>
<path d="M244.3 60.3999H229.6" stroke="white" stroke-width="1.8" stroke-linecap="round" stroke-linejoin="round"/>
<path d="M157.449 169L19.3214 189.923C18.5919 190.036 17.8469 189.996 17.1336 189.805C16.4204 189.615 15.7544 189.279 15.178 188.818C14.6015 188.357 14.1272 187.781 13.7849 187.127C13.4427 186.473 13.2401 185.755 13.1899 185.018L4.93081 60.6202C4.87419 59.8109 4.99196 58.9989 5.27617 58.2391C5.56038 57.4793 6.0044 56.7893 6.57822 56.2159C7.15204 55.6424 7.84228 55.1989 8.60228 54.9151C9.36229 54.6314 10.1744 54.5142 10.9836 54.5713L149.355 63.4007C150.626 63.4774 151.827 64.0053 152.743 64.8894C153.659 65.7734 154.229 66.9554 154.35 68.2225L162.279 162.951C162.367 164.378 161.921 165.788 161.029 166.905C160.137 168.023 158.861 168.769 157.449 169Z" fill="#63737A"/>
<path d="M161.209 168.834L22.4247 189.844C21.6957 189.955 20.9517 189.914 20.2396 189.722C19.5275 189.531 18.8629 189.194 18.2877 188.733C17.7125 188.271 17.2393 187.696 16.8981 187.042C16.5568 186.389 16.3549 185.671 16.305 184.936L7.95939 59.9672C7.90293 59.1474 8.02282 58.3251 8.31099 57.5556C8.59915 56.7861 9.04889 56.0873 9.62991 55.5063C10.2109 54.9252 10.9097 54.4755 11.6792 54.1873C12.4487 53.8992 13.2711 53.7793 14.0908 53.8357L153.033 62.6651C154.314 62.7478 155.523 63.2888 156.439 64.1892C157.355 65.0897 157.916 66.2895 158.02 67.5695L166.031 162.707C166.189 164.156 165.773 165.609 164.872 166.755C163.97 167.901 162.655 168.647 161.209 168.834Z" fill="#22272E"/>
<path d="M70.7284 126.009L31.6628 128.132C31.0701 128.156 30.4916 127.948 30.0507 127.551C29.6099 127.154 29.3415 126.601 29.303 126.009L27.0141 92.9722C26.9987 92.6621 27.0457 92.3521 27.1522 92.0604C27.2587 91.7687 27.4225 91.5014 27.6341 91.2741C27.8456 91.0468 28.1005 90.8642 28.3838 90.737C28.6671 90.6099 28.9729 90.5408 29.2834 90.5338L68.3529 90.7816C68.9349 90.7715 69.4982 90.9869 69.9248 91.3828C70.3515 91.7787 70.6085 92.3243 70.6419 92.9054L72.9387 123.555C72.9589 123.862 72.9174 124.17 72.8165 124.461C72.7157 124.752 72.5576 125.019 72.3515 125.248C72.1455 125.477 71.8957 125.662 71.6169 125.793C71.3382 125.923 71.0361 125.997 70.7284 126.009Z" fill="#6DAFA7"/>
<path d="M112.74 113.258L80.0455 114.403C79.4522 114.427 78.8731 114.217 78.4321 113.82C77.9912 113.422 77.7232 112.868 77.6857 112.275L76.2935 93.2319C76.2765 92.9192 76.3229 92.6063 76.4298 92.312C76.5368 92.0177 76.7021 91.748 76.9159 91.5191C77.1297 91.2903 77.3875 91.107 77.6739 90.9803C77.9603 90.8536 78.2693 90.786 78.5824 90.7817L111.277 91.0256C111.852 91.04 112.401 91.2637 112.823 91.6548C113.244 92.0458 113.508 92.5773 113.566 93.1494L114.946 110.792C114.975 111.102 114.94 111.414 114.842 111.708C114.745 112.003 114.588 112.275 114.381 112.507C114.174 112.738 113.921 112.924 113.639 113.054C113.356 113.183 113.05 113.253 112.74 113.258Z" fill="#FFE779"/>
<path d="M149.765 112.031L122.234 113.011C121.641 113.035 121.062 112.827 120.621 112.43C120.18 112.033 119.912 111.479 119.874 110.887L118.486 93.641C118.469 93.3282 118.515 93.015 118.621 92.7204C118.728 92.4259 118.893 92.156 119.107 91.927C119.321 91.698 119.579 91.5148 119.866 91.3883C120.152 91.2617 120.462 91.1946 120.775 91.1908L148.305 91.352C148.881 91.3665 149.431 91.5908 149.853 91.9827C150.274 92.3745 150.538 92.907 150.594 93.4798L151.9 109.577C151.93 109.88 151.898 110.187 151.806 110.477C151.713 110.767 151.563 111.036 151.362 111.266C151.162 111.495 150.917 111.682 150.643 111.814C150.368 111.945 150.069 112.019 149.765 112.031Z" fill="#F4C2C9"/>
<path d="M73.1824 158.046L34.1129 162.314C33.805 162.351 33.4928 162.324 33.1955 162.236C32.8983 162.147 32.6225 161.999 32.385 161.799C32.1476 161.6 31.9536 161.353 31.8152 161.076C31.6767 160.799 31.5967 160.496 31.5801 160.186L30.1091 138.838C30.0831 138.236 30.2886 137.646 30.6835 137.19C31.0785 136.735 31.6329 136.448 32.2329 136.388L71.3851 133.772C71.6855 133.75 71.9874 133.788 72.2732 133.883C72.5591 133.978 72.8235 134.128 73.0511 134.326C73.2787 134.523 73.4652 134.763 73.5998 135.033C73.7343 135.302 73.8144 135.596 73.8353 135.896L75.2984 155.596C75.2998 156.191 75.0865 156.766 74.6978 157.216C74.3091 157.666 73.771 157.961 73.1824 158.046V158.046Z" stroke="#63737A" stroke-width="1.47091" stroke-linecap="round" stroke-linejoin="round"/>
<path d="M116.417 157.228L83.8054 161.071C83.4978 161.108 83.1859 161.081 82.889 160.993C82.592 160.905 82.3163 160.757 82.0789 160.558C81.8415 160.359 81.6475 160.113 81.5088 159.836C81.3701 159.559 81.2897 159.256 81.2726 158.947L78.6572 123.72C78.6139 123.113 78.8132 122.514 79.2114 122.054C79.6096 121.593 80.1741 121.31 80.781 121.266L113.475 119.712C114.069 119.688 114.648 119.898 115.089 120.295C115.53 120.693 115.798 121.247 115.835 121.84L118.45 154.778C118.486 155.368 118.296 155.95 117.918 156.405C117.54 156.86 117.004 157.155 116.417 157.228Z" fill="#F4C2C9"/>
<path d="M109.633 125.844L86.1769 127.232C86.0441 127.231 85.9129 127.26 85.7923 127.315C85.6717 127.37 85.5647 127.452 85.4788 127.553C85.393 127.654 85.3303 127.773 85.2953 127.901C85.2603 128.029 85.2538 128.163 85.2762 128.294L86.3421 142.846C86.347 142.976 86.3791 143.105 86.4364 143.222C86.4937 143.34 86.575 143.444 86.6749 143.529C86.7749 143.613 86.8913 143.676 87.0169 143.712C87.1424 143.749 87.2742 143.759 87.4039 143.742L110.86 141.701C110.991 141.696 111.119 141.663 111.236 141.606C111.354 141.548 111.458 141.467 111.543 141.367C111.627 141.268 111.69 141.151 111.728 141.026C111.765 140.901 111.776 140.769 111.76 140.639L110.695 126.744C110.643 126.498 110.51 126.275 110.318 126.112C110.126 125.949 109.885 125.855 109.633 125.844Z" fill="#6DAFA7"/>
<path d="M153.033 149.138L125.502 152.163C125.194 152.2 124.882 152.174 124.584 152.086C124.287 151.998 124.011 151.849 123.773 151.649C123.536 151.45 123.342 151.204 123.203 150.926C123.065 150.648 122.986 150.345 122.97 150.035L120.763 121.675C120.72 121.068 120.919 120.469 121.318 120.01C121.716 119.55 122.28 119.268 122.887 119.224L150.417 117.915C151.011 117.891 151.59 118.1 152.031 118.498C152.472 118.896 152.74 119.45 152.777 120.043L154.983 146.684C155.017 146.973 154.994 147.267 154.914 147.547C154.834 147.827 154.7 148.089 154.518 148.317C154.337 148.545 154.113 148.735 153.858 148.876C153.603 149.017 153.322 149.106 153.033 149.138Z" fill="#FFE779"/>
<path d="M53.2388 144.561L53.7304 150.609" stroke="#63737A" stroke-width="1.47091" stroke-linecap="round" stroke-linejoin="round"/>
<path d="M50.6235 147.829L56.3459 147.341" stroke="#63737A" stroke-width="1.47091" stroke-linecap="round" stroke-linejoin="round"/>
<path d="M92.3868 151.262C92.2256 149.626 90.9985 148.32 89.5276 148.486C88.0567 148.651 86.9122 150.118 87.0774 151.836C87.2426 153.555 88.5483 154.778 90.0192 154.613C91.4233 154.369 92.4694 152.898 92.3868 151.262Z" fill="#282828"/>
<path d="M97.1304 150.771L112.414 149.221" stroke="#282828" stroke-width="1.47091" stroke-linecap="round" stroke-linejoin="round"/>
<path d="M131.146 126.917C130.981 125.364 129.919 124.219 128.613 124.219C127.303 124.302 126.407 125.611 126.485 127.165C126.65 128.715 127.712 129.942 129.022 129.859C130.395 129.769 131.291 128.459 131.146 126.917Z" fill="#6DAFA7"/>
<path d="M135.299 126.662L148.459 125.844" stroke="#282828" stroke-width="1.47091" stroke-linecap="round" stroke-linejoin="round"/>
<path d="M131.866 135.652C131.701 134.079 130.639 132.954 129.333 133.037C128.027 133.119 127.127 134.508 127.205 136.061C127.371 137.615 128.515 138.838 129.742 138.677C131.048 138.511 132.031 137.206 131.866 135.652Z" fill="#6DAFA7"/>
<path d="M135.952 135.326L149.194 134.264" stroke="#282828" stroke-width="1.47091" stroke-linecap="round" stroke-linejoin="round"/>
<path d="M132.601 144.395C132.436 142.846 131.374 141.701 130.069 141.78C128.763 141.859 127.862 143.255 127.941 144.804C128.106 146.358 129.25 147.502 130.478 147.42C131.783 147.258 132.684 145.949 132.601 144.395Z" fill="#6DAFA7"/>
<path d="M136.688 143.99L149.847 142.681" stroke="#282828" stroke-width="1.47091" stroke-linecap="round" stroke-linejoin="round"/>
<path d="M40.6536 103.776L35.3403 103.859C35.0972 103.846 34.866 103.75 34.6866 103.585C34.5071 103.421 34.3906 103.199 34.357 102.958L33.9638 97.4007C33.9582 97.2706 33.9797 97.1408 34.0269 97.0194C34.0742 96.8981 34.1461 96.7879 34.2382 96.6958C34.3303 96.6038 34.4405 96.5318 34.5618 96.4846C34.6831 96.4373 34.813 96.4158 34.943 96.4214H40.2564C40.4982 96.4344 40.728 96.5309 40.9066 96.6945C41.0851 96.858 41.2015 97.0784 41.2357 97.3181L41.629 102.797C41.5979 103.045 41.4853 103.276 41.3087 103.453C41.1322 103.63 40.9018 103.744 40.6536 103.776Z" fill="#FFE779"/>
<path d="M46.3721 96.4213L64.7624 96.3387" stroke="#282828" stroke-width="1.47091" stroke-linecap="round" stroke-linejoin="round"/>
<path d="M46.7021 101.161L65.0885 100.995" stroke="#282828" stroke-width="1.47091" stroke-linecap="round" stroke-linejoin="round"/>
<path d="M128.841 102.466L124.672 102.549C124.541 102.531 124.417 102.475 124.316 102.388C124.215 102.302 124.141 102.188 124.102 102.061L123.709 96.7478C123.707 96.6721 123.72 96.5968 123.748 96.5265C123.776 96.4561 123.817 96.3921 123.871 96.3384C123.924 96.2847 123.988 96.2424 124.058 96.2141C124.128 96.1857 124.203 96.172 124.279 96.1736H128.448C128.58 96.1934 128.704 96.2499 128.806 96.3369C128.907 96.4238 128.982 96.5376 129.022 96.6652L129.415 101.896C129.405 102.045 129.341 102.184 129.236 102.289C129.13 102.394 128.99 102.457 128.841 102.466Z" fill="#282828"/>
<path d="M132.766 96.095H146.413" stroke="#282828" stroke-width="1.47091" stroke-linecap="round" stroke-linejoin="round"/>
<path d="M133.171 100.26L146.74 100.099" stroke="#282828" stroke-width="1.47091" stroke-linecap="round" stroke-linejoin="round"/>
<path d="M124.511 107.044L147.232 106.474" stroke="#282828" stroke-width="1.47091" stroke-linecap="round" stroke-linejoin="round"/>
<path d="M41.5504 116.444L36.237 116.609C35.9906 116.609 35.7533 116.516 35.5719 116.35C35.3906 116.183 35.2784 115.954 35.2577 115.709L34.8645 110.151C34.857 110.027 34.8746 109.903 34.9163 109.786C34.9579 109.669 35.0227 109.562 35.1067 109.47C35.1908 109.379 35.2924 109.305 35.4055 109.254C35.5187 109.203 35.6409 109.175 35.7651 109.172L41.0785 109.007C41.3208 109.02 41.5511 109.117 41.7297 109.281C41.9084 109.446 42.0244 109.667 42.0578 109.907L42.451 115.382C42.4666 115.641 42.3817 115.896 42.2139 116.094C42.0461 116.292 41.8084 116.417 41.5504 116.444Z" fill="#FFE779"/>
<path d="M47.2725 108.924L65.6628 108.437" stroke="#282828" stroke-width="1.47091" stroke-linecap="round" stroke-linejoin="round"/>
<path d="M47.5991 113.746L65.9894 113.176" stroke="#282828" stroke-width="1.47091" stroke-linecap="round" stroke-linejoin="round"/>
<path d="M54.9533 76.8868L27.4229 76.0687C26.9851 76.0572 26.5672 75.8834 26.2503 75.5811C25.9334 75.2787 25.7402 74.8694 25.7082 74.4326L25.3817 70.1064C25.3609 69.8613 25.3924 69.6146 25.4742 69.3826C25.5561 69.1507 25.6863 68.9387 25.8563 68.7609C26.0262 68.5832 26.2321 68.4435 26.4602 68.3514C26.6882 68.2593 26.9333 68.2167 27.1791 68.2265L54.7095 69.371C55.1457 69.3842 55.5617 69.5582 55.8775 69.8594C56.1932 70.1607 56.3866 70.568 56.4203 71.0031L56.7546 75.0029C56.7681 75.2468 56.7313 75.491 56.6467 75.7201C56.562 75.9493 56.4312 76.1587 56.2623 76.3353C56.0935 76.5119 55.8902 76.6519 55.665 76.7468C55.4399 76.8416 55.1976 76.8893 54.9533 76.8868Z" fill="#6DAFA7"/>
<path d="M82.8262 96.2563L108.819 96.1737" stroke="#282828" stroke-width="1.47091" stroke-linecap="round" stroke-linejoin="round"/>
<path d="M83.1523 100.834L109.145 100.508" stroke="#282828" stroke-width="1.47091" stroke-linecap="round" stroke-linejoin="round"/>
<path d="M83.644 108.028L97.6177 107.701" stroke="#282828" stroke-width="1.47091" stroke-linecap="round" stroke-linejoin="round"/>
<path d="M148.946 76.4778C148.868 75.2507 147.967 74.1888 146.905 74.118C145.922 74.0393 145.108 75.1012 145.269 76.3244C145.352 77.634 146.252 78.6841 147.314 78.6841C148.293 78.7667 149.029 77.7048 148.946 76.4778Z" fill="#63737A"/>
<path d="M141.674 76.234C141.592 74.9244 140.613 73.8743 139.629 73.8743C138.567 73.7917 137.832 74.8536 137.915 76.1632C137.997 77.4729 138.976 78.523 140.038 78.523C141.018 78.519 141.765 77.4572 141.674 76.234Z" fill="#63737A"/>
<path d="M134.155 75.9033C134.072 74.5976 133.093 73.5436 132.031 73.4531C130.969 73.3626 130.151 74.4324 130.23 75.7421C130.308 77.0517 131.292 78.1018 132.358 78.1923C133.506 78.2749 134.237 77.213 134.155 75.9033Z" fill="#63737A"/>
<path d="M182.132 87.1948L145.843 86.542C145.134 86.5432 144.45 86.273 143.933 85.7868C143.416 85.3005 143.105 84.635 143.063 83.9266L139.798 43.9327C139.78 43.6179 139.828 43.3027 139.939 43.0078C140.051 42.7129 140.225 42.4451 140.448 42.2221C140.671 41.9991 140.938 41.8259 141.233 41.714C141.528 41.6021 141.843 41.5541 142.158 41.573L178.612 45.4154C179.277 45.4787 179.897 45.7768 180.361 46.2562C180.825 46.7356 181.103 47.3648 181.145 48.0308L184.335 84.7289C184.37 85.0391 184.34 85.3533 184.245 85.6509C184.151 85.9485 183.994 86.2227 183.786 86.4556C183.578 86.6884 183.323 86.8747 183.038 87.0021C182.753 87.1295 182.445 87.1952 182.132 87.1948Z" fill="#F8AB5D"/>
<path d="M184.091 86.5302L147.802 85.8773C147.092 85.8785 146.41 85.6082 145.893 85.1219C145.377 84.6356 145.066 83.9701 145.025 83.262L141.765 43.2957C141.746 42.9808 141.794 42.6656 141.906 42.3707C142.018 42.0758 142.191 41.808 142.414 41.585C142.637 41.362 142.905 41.1888 143.2 41.0769C143.494 40.9651 143.81 40.917 144.125 40.9359L180.579 44.7784C181.243 44.8408 181.864 45.1387 182.328 45.6183C182.793 46.0978 183.07 46.7275 183.112 47.3938L186.297 84.0918C186.321 84.3987 186.283 84.7074 186.183 84.9988C186.084 85.2902 185.926 85.5583 185.72 85.7866C185.513 86.0149 185.262 86.1986 184.982 86.3265C184.702 86.4543 184.399 86.5237 184.091 86.5302Z" fill="#FFE779"/>
<path d="M157.611 48.3612L176.819 50.1585" stroke="#63737A" stroke-width="1.47091" stroke-linecap="round" stroke-linejoin="round"/>
<path d="M157.937 52.2863L177.145 53.9184" stroke="#63737A" stroke-width="1.47091" stroke-linecap="round" stroke-linejoin="round"/>
<path d="M158.672 61.2769L177.963 62.5826" stroke="#63737A" stroke-width="1.47091" stroke-linecap="round" stroke-linejoin="round"/>
<path d="M158.999 65.1156L178.207 66.2601" stroke="#63737A" stroke-width="1.47091" stroke-linecap="round" stroke-linejoin="round"/>
<path d="M159.817 74.1888L179.026 75.0069" stroke="#63737A" stroke-width="1.47091" stroke-linecap="round" stroke-linejoin="round"/>
<path d="M160.144 78.0312L179.352 78.6841" stroke="#63737A" stroke-width="1.47091" stroke-linecap="round" stroke-linejoin="round"/>
<path d="M150.991 50.5677L151.971 51.7947L153.363 49.9148" stroke="#6DAFA7" stroke-width="1.47091" stroke-linecap="round" stroke-linejoin="round"/>
<path d="M152.053 63.6445L153.033 64.789L154.504 62.9091" stroke="#6DAFA7" stroke-width="1.47091" stroke-linecap="round" stroke-linejoin="round"/>
<path d="M153.115 76.4778L154.177 77.6223L155.569 75.6598" stroke="#6DAFA7" stroke-width="1.47091" stroke-linecap="round" stroke-linejoin="round"/>
<path d="M490.457 59.3355C490.602 58.6857 490.551 58.0074 490.311 57.3865C490.071 56.7656 489.652 56.2298 489.107 55.8471C488.562 55.4643 487.916 55.2517 487.25 55.2362C486.585 55.2207 485.93 55.4029 485.367 55.7598C484.805 56.1167 484.362 56.6323 484.093 57.2414C483.824 57.8505 483.741 58.5256 483.856 59.1815C483.971 59.8373 484.278 60.4444 484.737 60.926C485.197 61.4075 485.789 61.7419 486.439 61.8868C486.871 61.9876 487.318 62.0013 487.755 61.9272C488.192 61.853 488.61 61.6924 488.984 61.4548C489.358 61.2173 489.681 60.9075 489.934 60.5436C490.187 60.1796 490.365 59.7689 490.457 59.3355Z" fill="#6DAFA7"/>
<path d="M514.245 27.2263C513.848 29.8827 512.913 32.4301 511.496 34.7122C510.08 36.9944 508.212 38.9632 506.008 40.4979C501.455 43.6506 498.26 48.406 497.062 53.813L496.308 57.193C496.098 58.084 495.548 58.8575 494.775 59.3482C494.003 59.8389 493.069 60.0079 492.173 59.819L482.321 57.6222C481.43 57.4123 480.657 56.8624 480.166 56.09C479.676 55.3176 479.506 54.384 479.695 53.4885L480.449 50.1084C481.655 44.6982 480.789 39.0309 477.981 34.3475C475.464 30.0747 474.673 25.0025 475.769 20.1661C478.224 9.15654 489.575 2.35958 500.515 5.61095C509.75 8.27859 515.68 17.6097 514.245 27.2263Z" fill="#FFE779"/>
<path d="M480.353 50.087L496.964 53.7913" stroke="#22272E" stroke-width="1.78152" stroke-linecap="round" stroke-linejoin="round"/>
<path d="M479.62 53.3708L496.232 57.0751" stroke="#22272E" stroke-width="1.78152" stroke-linecap="round" stroke-linejoin="round"/>
<path d="M486.92 51.5515L492.822 25.0848C493.361 22.6688 490.979 20.6182 488.651 21.5161C486.868 22.2344 486.159 24.5085 487.3 26.1817L488.223 27.5033" stroke="#22272E" stroke-width="1.78152" stroke-linecap="round" stroke-linejoin="round"/>
<path d="M490.396 52.3266L496.298 25.8599C496.837 23.4438 499.864 22.5993 501.59 24.4013C502.898 25.809 502.575 28.1691 500.831 29.1987L499.435 30.0034" stroke="#22272E" stroke-width="1.78152" stroke-linecap="round" stroke-linejoin="round"/>
<path d="M137.64 400.423C137.64 400.423 129.94 383.923 149.24 373.523C168.54 363.123 195.34 373.423 192.94 377.023C189.199 382.885 184.949 388.406 180.24 393.523C174.14 400.223 156.64 410.623 137.64 400.423Z" fill="#6DAFA7"/>
<path d="M189.54 376.323C189.54 376.323 147.14 366.823 137.54 400.423C127.94 434.023 130.94 466.223 130.94 466.223" stroke="#22272E" stroke-width="1.8" stroke-linecap="round" stroke-linejoin="round"/>
<path d="M99.4395 438.223L106.339 519.523C106.339 522.623 118.939 525.023 134.539 525.023C150.139 525.023 162.739 522.523 162.739 519.523L169.639 438.223H99.4395Z" fill="#22272E"/>
<path d="M134.54 443.523C153.87 443.523 169.54 441.15 169.54 438.223C169.54 435.296 153.87 432.923 134.54 432.923C115.21 432.923 99.5396 435.296 99.5396 438.223C99.5396 441.15 115.21 443.523 134.54 443.523Z" fill="#6DAFA7"/>
<path d="M125.639 421.323C125.639 421.323 114.339 415.723 107.039 428.323C99.7394 440.923 105.139 459.923 110.139 462.723C115.139 465.523 135.939 456.023 135.939 436.923C135.939 419.923 125.639 421.323 125.639 421.323Z" fill="#6DAFA7"/>
<path d="M125.639 421.323C125.639 421.323 114.339 420.523 110.939 460.123" stroke="#22272E" stroke-width="1.8" stroke-linecap="round" stroke-linejoin="round"/>
<path d="M117.04 398.223C117.04 398.223 105.14 379.723 81.3396 391.623C57.5396 403.523 58.2396 436.323 61.9396 438.223C65.6396 440.123 121.34 420.723 117.04 398.223Z" fill="#6DAFA7"/>
<path d="M135.94 436.923C135.94 436.923 128.54 410.923 117.04 398.123C105.54 385.323 69.8396 400.023 63.5396 430.923" stroke="#22272E" stroke-width="1.8" stroke-linecap="round" stroke-linejoin="round"/>
<path d="M149.24 408.623C149.24 408.623 139.14 405.123 134.54 417.623C130.04 429.823 135.34 457.623 161.34 466.023C162.011 466.23 162.729 466.237 163.404 466.041C164.08 465.846 164.683 465.457 165.14 464.923C171.645 457.053 175.152 447.133 175.04 436.923C174.94 416.623 163.74 401.923 149.24 408.623Z" fill="#6DAFA7"/>
<path d="M149.24 408.623C149.24 408.623 170.239 418.923 162.539 462.223" stroke="#22272E" stroke-width="1.8" stroke-linecap="round" stroke-linejoin="round"/>
<path d="M546.064 378.129L541.552 383.067C540.846 383.771 540.846 385.041 541.552 385.888C541.874 386.221 542.295 386.443 542.752 386.519C543.209 386.595 543.679 386.522 544.091 386.31L549.45 383.067L546.064 378.129Z" fill="#22272E"/>
<path d="M587.249 390.117L588.518 396.746C588.66 397.735 588.096 398.863 587.117 399.147C586.648 399.297 586.14 399.265 585.695 399.055C585.249 398.846 584.9 398.475 584.716 398.019L581.895 392.376L587.249 390.117Z" fill="#22272E"/>
<path d="M572.157 395.9C589.138 395.9 602.903 382.134 602.903 365.153C602.903 348.172 589.138 334.407 572.157 334.407C555.176 334.407 541.41 348.172 541.41 365.153C541.41 382.134 555.176 395.9 572.157 395.9Z" fill="#6DAFA7"/>
<path d="M586.098 379.145C593.808 371.435 593.808 358.934 586.098 351.223C578.387 343.513 565.886 343.513 558.175 351.223C550.465 358.934 550.465 371.435 558.175 379.145C565.886 386.856 578.387 386.856 586.098 379.145Z" fill="#FFE779"/>
<path d="M577.659 372.206L572.157 365.153L575.12 355.281" stroke="#63737A" stroke-width="2.53903" stroke-linecap="round" stroke-linejoin="round"/>
<path d="M552.553 335.405C552.34 335.478 552.115 335.505 551.891 335.487C551.667 335.469 551.449 335.405 551.251 335.299C551.053 335.193 550.878 335.048 550.739 334.872C550.599 334.696 550.496 334.494 550.438 334.277C550.123 332.251 550.514 330.178 551.546 328.406C552.577 326.634 554.187 325.27 556.104 324.543C558.021 323.816 560.13 323.77 562.077 324.413C564.024 325.056 565.691 326.349 566.799 328.074C567.363 328.921 566.939 329.907 565.952 330.331L552.553 335.405Z" fill="#6DAFA7"/>
<path d="M604.596 350.627C604.738 350.804 604.916 350.948 605.117 351.052C605.319 351.155 605.539 351.216 605.766 351.229C605.992 351.242 606.218 351.208 606.43 351.128C606.642 351.049 606.835 350.926 606.997 350.767C609.818 347.664 610.1 343.01 607.419 339.485C604.738 335.959 600.23 334.971 596.557 336.806C595.71 337.228 595.428 338.356 595.993 339.061L604.596 350.627Z" fill="#6DAFA7"/>
<path d="M586.121 332.15L578.081 329.893C576.821 329.471 575.966 328.202 576.389 326.802C576.813 325.531 578.081 324.685 579.492 325.109L587.531 327.366C588.8 327.788 589.646 329.059 589.224 330.467C588.8 331.728 587.389 332.574 586.121 332.15Z" fill="#6DAFA7"/>
<path d="M579.554 328.673L577.35 336.259L583.174 337.951L585.378 330.365L579.554 328.673Z" fill="#6DAFA7"/>
<defs>
<filter id="filter0_d_2104_6010" x="20" y="220" width="728.936" height="425.514" filterUnits="userSpaceOnUse" color-interpolation-filters="sRGB">
<feFlood flood-opacity="0" result="BackgroundImageFix"/>
<feColorMatrix in="SourceAlpha" type="matrix" values="0 0 0 0 0 0 0 0 0 0 0 0 0 0 0 0 0 0 127 0" result="hardAlpha"/>
<feOffset dy="4"/>
<feGaussianBlur stdDeviation="2"/>
<feColorMatrix type="matrix" values="0 0 0 0 0 0 0 0 0 0 0 0 0 0 0 0 0 0 0.05 0"/>
<feBlend mode="normal" in2="BackgroundImageFix" result="effect1_dropShadow_2104_6010"/>
<feBlend mode="normal" in="SourceGraphic" in2="effect1_dropShadow_2104_6010" result="shape"/>
</filter>
<filter id="filter1_d_2104_6010" x="80.4575" y="60.5957" width="683.104" height="375.222" filterUnits="userSpaceOnUse" color-interpolation-filters="sRGB">
<feFlood flood-opacity="0" result="BackgroundImageFix"/>
<feColorMatrix in="SourceAlpha" type="matrix" values="0 0 0 0 0 0 0 0 0 0 0 0 0 0 0 0 0 0 127 0" result="hardAlpha"/>
<feOffset dy="4"/>
<feGaussianBlur stdDeviation="2"/>
<feComposite in2="hardAlpha" operator="out"/>
<feColorMatrix type="matrix" values="0 0 0 0 0 0 0 0 0 0 0 0 0 0 0 0 0 0 0.05 0"/>
<feBlend mode="normal" in2="BackgroundImageFix" result="effect1_dropShadow_2104_6010"/>
<feBlend mode="normal" in="SourceGraphic" in2="effect1_dropShadow_2104_6010" result="shape"/>
</filter>
</defs>
</svg>
